<?xml version="1.0" encoding="UTF-8" ?>
<!DOCTYPE svg PUBLIC "-//W3C//DTD SVG 1.1//EN" "http://www.w3.org/Graphics/SVG/1.1/DTD/svg11.dtd">
<svg width="1920pt" height="434pt" viewBox="0 0 1920 434" version="1.1" xmlns="http://www.w3.org/2000/svg">
<g id="#ff6a4fff">
<path fill="#ff6a4f" opacity="1.00" d=" M 240.99 6.99 C 278.07 -1.49 317.29 0.23 353.59 11.53 C 395.67 25.00 433.48 51.61 460.28 86.74 C 469.81 98.08 477.07 111.13 483.52 124.41 C 485.48 128.52 483.73 133.51 480.62 136.55 C 476.76 140.79 469.43 140.51 465.77 136.18 C 462.42 132.34 460.42 127.58 457.82 123.25 C 440.23 91.77 414.02 65.07 382.58 47.35 C 353.57 31.15 320.26 22.54 287.02 23.08 C 250.64 23.18 214.41 34.05 183.91 53.87 C 149.03 76.35 121.76 110.35 107.21 149.20 C 95.45 180.84 92.09 215.65 97.84 248.92 C 102.93 278.34 114.78 306.54 132.11 330.84 C 133.40 332.22 134.15 334.73 136.11 335.18 C 177.78 333.93 218.97 325.93 259.13 315.10 C 248.52 310.02 237.26 306.11 227.32 299.73 C 219.81 293.26 227.76 278.19 237.40 281.43 C 257.46 289.25 276.35 299.75 296.33 307.76 C 301.95 310.95 301.16 318.89 298.56 323.86 C 289.16 341.05 282.27 359.48 272.63 376.55 C 268.50 383.79 256.43 382.10 253.43 374.70 C 252.91 373.23 252.42 371.59 252.99 370.07 C 256.72 357.98 263.27 347.07 268.55 335.65 C 231.18 346.05 192.81 353.16 154.10 355.97 C 190.34 391.65 241.23 411.78 292.03 411.09 C 312.26 410.50 332.49 407.20 351.61 400.49 C 399.89 383.71 441.01 347.31 463.49 301.40 C 465.00 298.42 465.93 294.72 469.15 293.08 C 474.80 290.46 482.39 292.88 485.24 298.49 C 486.30 300.91 486.19 303.80 485.08 306.19 C 468.78 344.15 440.22 376.34 405.59 398.62 C 371.10 420.94 330.11 433.06 289.02 432.89 C 260.74 433.16 232.50 427.50 206.36 416.79 C 176.21 404.42 149.33 384.70 127.29 360.79 C 125.70 359.35 124.56 356.70 122.06 356.90 C 93.33 356.16 63.59 353.61 37.52 340.50 C 26.40 334.62 15.24 327.41 8.57 316.42 C 0.41 303.01 -1.93 286.19 2.38 271.07 C 6.63 256.51 14.14 243.06 23.22 230.96 C 38.09 211.29 56.96 195.12 76.13 179.80 C 84.00 135.70 105.95 94.25 137.99 62.95 C 166.24 35.20 202.31 15.55 240.99 6.99 M 25.14 273.24 C 20.41 285.31 21.68 300.43 30.92 310.05 C 38.80 317.87 48.84 323.22 59.27 326.80 C 75.00 332.16 91.64 333.79 108.07 335.48 C 84.14 298.79 72.01 254.74 72.92 211.01 C 53.58 228.65 34.06 248.02 25.14 273.24 Z" />
<path fill="#ff6a4f" opacity="1.00" d=" M 1614.22 102.28 C 1619.22 101.05 1624.84 101.74 1629.10 104.77 C 1633.99 108.14 1636.99 114.03 1636.81 119.98 C 1636.79 183.67 1636.84 247.35 1636.79 311.04 C 1636.83 320.74 1627.72 329.18 1618.05 328.47 C 1608.78 328.54 1600.79 320.11 1600.84 310.94 C 1600.80 247.30 1600.84 183.66 1600.82 120.02 C 1600.53 111.94 1606.41 104.25 1614.22 102.28 Z" />
<path fill="#ff6a4f" opacity="1.00" d=" M 639.47 118.55 C 644.45 113.46 652.44 111.43 659.13 114.11 C 663.89 115.90 667.34 120.12 669.28 124.71 C 689.56 172.53 709.77 220.39 730.05 268.22 C 749.19 220.55 768.15 172.82 787.22 125.12 C 789.63 119.37 794.82 114.59 801.08 113.51 C 808.81 112.07 817.32 116.04 820.87 123.12 C 823.35 127.96 822.87 133.81 820.72 138.68 C 796.46 196.06 772.19 253.44 747.94 310.82 C 746.31 314.48 745.11 318.43 742.49 321.54 C 738.96 325.75 733.56 328.44 728.05 328.47 C 722.54 328.32 717.25 325.47 713.87 321.17 C 711.71 318.42 710.58 315.09 709.21 311.92 C 684.85 254.25 660.55 196.55 636.14 138.89 C 633.33 132.28 634.08 123.67 639.47 118.55 Z" />
<path fill="#ff6a4f" opacity="1.00" d=" M 861.44 114.65 C 867.84 113.40 874.82 113.28 880.90 115.93 C 886.02 118.14 888.84 123.68 889.02 129.08 C 889.21 134.81 889.65 141.19 886.19 146.13 C 882.76 150.90 876.49 152.26 870.95 152.43 C 865.29 152.58 859.06 152.24 854.45 148.56 C 850.71 145.59 849.25 140.67 849.24 136.06 C 849.20 131.15 848.81 125.87 851.36 121.44 C 853.39 117.71 857.41 115.56 861.44 114.65 Z" />
<path fill="#ff6a4f" opacity="1.00" d=" M 1229.37 125.13 C 1231.89 118.36 1238.80 113.44 1246.06 113.56 C 1269.36 113.55 1292.66 113.54 1315.96 113.57 C 1336.09 113.59 1355.13 125.35 1365.77 142.18 C 1383.06 168.55 1379.92 206.35 1358.38 229.43 C 1350.25 238.20 1339.61 244.79 1327.90 247.47 C 1320.07 249.42 1311.95 248.81 1303.97 248.90 C 1290.41 248.95 1276.86 248.80 1263.30 248.97 C 1263.27 269.65 1263.32 290.32 1263.28 311.00 C 1263.25 316.00 1261.01 320.93 1257.28 324.25 C 1250.22 330.66 1237.66 329.79 1231.93 322.04 C 1229.01 318.39 1228.10 313.61 1228.17 309.05 C 1228.17 252.02 1228.18 194.99 1228.17 137.96 C 1228.23 133.68 1227.80 129.21 1229.37 125.13 M 1263.26 213.96 C 1280.15 214.32 1297.06 214.00 1313.96 214.12 C 1319.86 214.42 1325.58 211.81 1329.72 207.69 C 1340.39 197.38 1343.34 180.46 1338.13 166.76 C 1335.35 159.91 1330.37 153.64 1323.60 150.43 C 1318.75 148.11 1313.25 148.76 1308.06 148.69 C 1293.18 148.64 1278.30 148.78 1263.42 148.61 C 1263.11 170.39 1263.42 192.18 1263.26 213.96 Z" />
<path fill="#ff6a4f" opacity="1.00" d=" M 1129.58 129.52 C 1136.44 126.91 1144.96 128.55 1149.77 134.29 C 1152.60 137.47 1154.25 141.72 1154.21 146.00 C 1154.21 153.14 1154.19 160.27 1154.20 167.41 C 1161.45 167.50 1168.70 167.37 1175.95 167.47 C 1180.72 167.55 1185.38 169.90 1188.31 173.67 C 1193.37 180.11 1193.07 190.37 1187.15 196.18 C 1183.97 199.39 1179.45 200.98 1174.98 201.05 C 1168.05 201.13 1161.13 201.01 1154.20 201.09 C 1154.20 228.74 1154.20 256.38 1154.20 284.03 C 1154.26 287.83 1154.44 292.68 1158.13 294.86 C 1165.17 298.60 1172.79 291.41 1179.89 295.05 C 1186.83 298.30 1189.44 307.25 1187.19 314.22 C 1185.27 319.56 1180.38 323.11 1175.42 325.43 C 1165.93 329.85 1155.05 328.72 1145.05 326.97 C 1134.90 325.41 1126.37 317.91 1122.16 308.74 C 1118.88 301.29 1118.24 293.00 1118.31 284.95 C 1118.29 256.98 1118.39 229.01 1118.26 201.05 C 1110.32 200.61 1101.20 202.85 1094.44 197.48 C 1086.00 191.21 1085.93 176.74 1094.62 170.66 C 1101.45 165.53 1110.43 168.05 1118.31 167.42 C 1118.34 160.29 1118.29 153.16 1118.33 146.03 C 1118.21 138.90 1122.94 132.05 1129.58 129.52 Z" />
<path fill="#ff6a4f" opacity="1.00" d=" M 335.19 151.26 C 350.12 141.21 369.32 140.24 386.49 143.86 C 414.53 149.81 439.11 165.51 462.05 182.03 C 484.18 171.86 506.33 161.75 528.39 151.43 C 533.33 149.04 538.40 146.78 543.84 145.79 C 558.33 142.92 573.33 145.86 586.97 151.00 C 598.98 155.61 606.95 170.38 601.75 182.66 C 598.34 190.33 591.26 195.49 584.11 199.40 C 568.98 207.54 553.14 214.24 537.59 221.50 C 478.07 248.76 418.43 275.76 358.94 303.08 C 355.40 304.83 351.24 305.45 347.41 304.43 C 317.56 290.70 287.51 277.37 257.88 263.18 C 249.67 258.47 253.12 243.16 262.89 243.15 C 291.60 241.16 320.43 241.83 349.12 239.49 C 350.04 239.43 350.91 239.20 351.75 238.80 C 362.42 233.86 371.83 226.69 382.08 221.00 C 365.74 203.00 348.72 185.65 332.59 167.48 C 328.52 162.73 329.83 154.50 335.19 151.26 M 358.00 164.82 C 373.80 182.73 391.04 199.32 406.74 217.32 C 410.72 221.70 408.43 228.86 404.02 232.05 C 391.74 240.63 378.42 247.57 366.00 255.92 C 362.22 258.49 357.92 260.23 353.48 261.27 C 339.51 264.51 325.06 261.41 310.98 263.50 C 324.40 269.32 337.69 275.46 351.08 281.35 L 351.82 281.36 C 422.56 249.34 493.17 217.04 563.89 184.97 C 570.37 182.17 576.17 178.09 581.83 173.92 C 569.06 168.31 553.89 164.70 540.55 170.50 C 515.70 181.97 490.75 193.22 465.88 204.62 C 461.71 206.50 456.30 207.72 452.41 204.61 C 442.54 197.04 432.46 189.69 421.81 183.25 C 402.74 171.59 380.69 163.14 358.00 164.82 Z" />
<path fill="#ff6a4f" opacity="1.00" d=" M 979.05 163.86 C 996.66 159.87 1015.74 162.56 1031.43 171.56 C 1056.63 185.47 1072.67 214.13 1071.55 242.86 C 1070.70 249.57 1065.34 255.18 1058.95 257.04 C 1055.73 258.04 1052.31 257.74 1048.99 257.78 C 1017.32 257.76 985.64 257.77 953.97 257.77 C 955.83 271.19 963.74 283.64 975.36 290.67 C 986.20 297.56 999.70 298.60 1012.14 296.71 C 1020.58 295.52 1028.32 291.24 1034.72 285.75 C 1039.13 281.35 1045.74 279.19 1051.88 280.46 C 1058.19 281.83 1063.18 287.54 1063.92 293.93 C 1064.62 299.30 1062.31 304.74 1058.49 308.47 C 1046.59 320.49 1030.46 327.89 1013.87 330.59 C 999.56 332.50 984.76 331.14 971.07 326.54 C 954.40 320.90 939.58 309.56 930.51 294.40 C 920.75 278.58 917.20 259.49 918.56 241.09 C 919.44 223.51 925.29 206.08 936.00 192.02 C 946.43 177.95 961.95 167.73 979.05 163.86 M 969.39 204.21 C 962.19 209.50 957.92 217.78 955.58 226.23 C 981.62 226.25 1007.66 226.21 1033.70 226.25 C 1031.91 211.80 1019.34 200.81 1005.78 197.26 C 993.44 194.34 979.58 196.38 969.39 204.21 Z" />
<path fill="#ff6a4f" opacity="1.00" d=" M 1443.89 168.56 C 1468.59 156.89 1499.86 161.18 1520.38 179.27 C 1521.35 170.94 1528.44 163.61 1537.04 163.57 C 1546.19 162.58 1555.28 169.66 1556.11 178.91 C 1556.54 186.92 1556.17 194.97 1556.29 203.00 C 1556.29 236.31 1556.29 269.63 1556.29 302.95 C 1556.26 308.84 1557.02 315.30 1553.41 320.42 C 1547.75 329.81 1533.09 331.26 1525.46 323.53 C 1522.54 320.74 1521.08 316.86 1520.34 312.97 C 1508.76 323.53 1493.76 330.77 1477.95 331.34 C 1460.27 332.32 1442.31 326.59 1428.66 315.27 C 1412.60 302.17 1402.95 282.34 1400.11 262.02 C 1397.32 241.36 1399.92 219.52 1410.01 201.05 C 1417.48 187.00 1429.39 175.26 1443.89 168.56 M 1469.56 196.71 C 1453.28 199.51 1440.78 213.38 1436.55 228.91 C 1431.21 248.29 1434.31 271.37 1449.00 286.00 C 1462.94 300.13 1487.50 301.48 1503.00 289.16 C 1516.04 279.11 1521.84 262.07 1521.53 246.02 C 1521.50 229.90 1514.97 213.03 1501.55 203.44 C 1492.51 196.63 1480.54 194.75 1469.56 196.71 Z" />
<path fill="#ff6a4f" opacity="1.00" d=" M 1736.64 168.61 C 1746.46 163.79 1757.68 162.10 1768.53 163.24 C 1777.82 164.02 1787.12 166.77 1794.78 172.23 C 1801.40 176.88 1806.47 183.46 1809.98 190.70 C 1821.88 175.69 1839.57 164.26 1859.04 163.05 C 1874.97 162.05 1892.37 166.33 1903.21 178.77 C 1915.19 192.45 1918.04 211.43 1918.54 228.99 C 1918.60 255.33 1918.52 281.68 1918.58 308.02 C 1918.88 313.31 1917.57 318.91 1913.93 322.91 C 1907.21 330.45 1893.93 330.35 1887.23 322.83 C 1884.03 319.39 1882.38 314.71 1882.47 310.04 C 1882.44 283.04 1882.51 256.03 1882.43 229.03 C 1882.12 220.20 1880.52 210.56 1874.15 203.96 C 1868.26 197.84 1859.20 196.47 1851.10 196.94 C 1840.17 197.49 1829.43 203.02 1823.24 212.14 C 1819.22 217.92 1817.26 224.97 1817.27 231.97 C 1817.25 258.30 1817.28 284.62 1817.26 310.94 C 1817.29 315.50 1815.37 319.98 1812.19 323.21 C 1805.45 330.33 1792.58 330.33 1785.99 323.01 C 1782.96 319.81 1781.36 315.39 1781.39 311.00 C 1781.35 284.35 1781.42 257.70 1781.36 231.05 C 1781.20 221.32 1779.50 210.75 1772.66 203.35 C 1765.99 196.72 1755.68 196.20 1746.89 197.32 C 1731.21 199.12 1717.59 213.00 1717.15 228.96 C 1717.01 256.30 1717.17 283.65 1717.07 310.99 C 1716.96 317.42 1713.16 323.67 1707.39 326.55 C 1699.87 330.34 1689.53 328.63 1684.53 321.57 C 1681.83 317.99 1680.91 313.43 1681.07 309.03 C 1681.10 267.36 1681.08 225.69 1681.08 184.02 C 1680.86 177.81 1684.05 171.62 1689.32 168.31 C 1696.64 163.63 1707.41 165.08 1712.89 171.95 C 1715.49 174.94 1716.76 178.84 1717.10 182.75 C 1722.87 177.11 1729.35 172.12 1736.64 168.61 Z" />
<path fill="#ff6a4f" opacity="1.00" d=" M 864.50 164.68 C 869.85 163.35 875.84 164.34 880.26 167.71 C 884.66 171.05 887.34 176.51 887.26 182.05 C 887.25 225.02 887.27 268.00 887.25 310.98 C 887.23 317.71 883.01 324.26 876.82 326.93 C 869.97 330.00 861.16 328.57 856.09 322.88 C 852.86 319.45 851.21 314.73 851.27 310.06 C 851.28 267.35 851.24 224.65 851.29 181.94 C 851.21 174.09 856.84 166.56 864.50 164.68 Z" />
</g>
</svg>
