<svg width="16" height="13" xmlns="http://www.w3.org/2000/svg"><path d="M13.931 3.14c.007.137.01.272.01.411 0 4.207-3.203 9.057-9.06 9.057A9.01 9.01 0 0 1 0 11.178c.25.028.502.043.76.043A6.38 6.38 0 0 0 4.713 9.86 3.19 3.19 0 0 1 1.74 7.649a3.213 3.213 0 0 0 1.437-.054A3.189 3.189 0 0 1 .623 4.473v-.04c.43.239.92.382 1.443.398A3.18 3.18 0 0 1 .65 2.181c0-.583.157-1.13.43-1.6a9.036 9.036 0 0 0 6.564 3.326A3.182 3.182 0 0 1 10.746 0a3.18 3.18 0 0 1 2.323 1.004A6.36 6.36 0 0 0 15.09.23a3.19 3.19 0 0 1-1.4 1.76 6.349 6.349 0 0 0 1.829-.499 6.464 6.464 0 0 1-1.589 1.648" fill="#FFF" fill-rule="evenodd"/></svg>