<svg id="Download_on_the_App_Store_Badge_JP_RGB_blk_100317" xmlns="http://www.w3.org/2000/svg" width="198.134" height="72.809" viewBox="0 0 198.134 72.809">
  <defs>
    <style>
      .cls-1 {
        fill: #a6a6a6;
      }

      .cls-2 {
        fill: #fff;
      }
    </style>
  </defs>
  <g id="Group_3346" data-name="Group 3346">
    <path id="Path_11019" data-name="Path 11019" class="cls-1" d="M180.789,0H17.355c-.667,0-1.327,0-1.993,0-.557,0-1.11.014-1.673.023a24.053,24.053,0,0,0-3.648.322A12.132,12.132,0,0,0,6.582,1.49,11.718,11.718,0,0,0,3.636,3.635,11.392,11.392,0,0,0,1.491,6.586,12.016,12.016,0,0,0,.354,10.05a23.65,23.65,0,0,0-.326,3.644C.011,14.252.009,14.812,0,15.371V57.444c.009.565.011,1.113.028,1.678a23.649,23.649,0,0,0,.326,3.644,11.991,11.991,0,0,0,1.138,3.466A11.3,11.3,0,0,0,3.636,69.17a11.421,11.421,0,0,0,2.946,2.145,12.2,12.2,0,0,0,3.46,1.148,24.491,24.491,0,0,0,3.648.322c.563.012,1.115.019,1.673.019.666,0,1.325,0,1.993,0H180.789c.654,0,1.319,0,1.973,0,.555,0,1.123-.007,1.678-.019a24.17,24.17,0,0,0,3.64-.322,12.385,12.385,0,0,0,3.473-1.148A11.427,11.427,0,0,0,194.5,69.17a11.64,11.64,0,0,0,2.151-2.938,12.021,12.021,0,0,0,1.127-3.466,24.586,24.586,0,0,0,.338-3.644c.007-.565.007-1.113.007-1.678.014-.661.014-1.319.014-1.991V17.358c0-.667,0-1.328-.014-1.987,0-.558,0-1.118-.007-1.676a24.582,24.582,0,0,0-.338-3.644,12.046,12.046,0,0,0-1.127-3.464,11.77,11.77,0,0,0-5.094-5.1A12.319,12.319,0,0,0,188.08.348a23.743,23.743,0,0,0-3.64-.322c-.555-.009-1.123-.02-1.678-.023C182.108,0,181.443,0,180.789,0Z"/>
    <path id="Path_11020" data-name="Path 11020" d="M14.655,70.5c-.555,0-1.1-.007-1.646-.019a23.094,23.094,0,0,1-3.4-.3,10.709,10.709,0,0,1-3.016-1,9.839,9.839,0,0,1-2.543-1.85,9.685,9.685,0,0,1-1.858-2.542A10.415,10.415,0,0,1,1.2,61.776a22.6,22.6,0,0,1-.3-3.413C.888,57.979.873,56.7.873,56.7V14.653S.889,13.394.9,13.025a22.517,22.517,0,0,1,.3-3.408A10.476,10.476,0,0,1,2.19,6.592,9.781,9.781,0,0,1,4.038,4.047,10.13,10.13,0,0,1,6.591,2.186,10.6,10.6,0,0,1,9.6,1.2,22.909,22.909,0,0,1,13.014.9L14.656.875h167.38L183.7.9a22.543,22.543,0,0,1,3.383.3,10.809,10.809,0,0,1,3.041,1,10.182,10.182,0,0,1,4.4,4.4,10.489,10.489,0,0,1,.974,3,23.653,23.653,0,0,1,.316,3.435c.005.515.005,1.069.005,1.62.014.683.014,1.332.014,1.987V54.735c0,.661,0,1.307-.014,1.957,0,.592,0,1.134-.007,1.692a23.172,23.172,0,0,1-.311,3.374,10.446,10.446,0,0,1-.983,3.04,9.976,9.976,0,0,1-1.849,2.522,9.852,9.852,0,0,1-2.547,1.861,10.67,10.67,0,0,1-3.036,1,22.83,22.83,0,0,1-3.4.3c-.533.012-1.091.019-1.633.019l-1.973,0Z" transform="translate(0.716 0.718)"/>
  </g>
  <g id="Group_3347" data-name="Group 3347" transform="translate(62.664 15.692)">
    <path id="Path_11021" data-name="Path 11021" class="cls-2" d="M46.7,22.916H39.321L37.55,28.146H34.427L41.412,8.8h3.245l6.985,19.348H48.466ZM40.085,20.5h5.846l-2.882-8.487h-.081Z" transform="translate(-34.427 -8.476)"/>
    <path id="Path_11022" data-name="Path 11022" class="cls-2" d="M58.16,18.8c0,4.383-2.346,7.2-5.887,7.2a4.782,4.782,0,0,1-4.438-2.468h-.067v6.987h-2.9V11.746h2.8v2.346h.053A5,5,0,0,1,52.22,11.6C55.8,11.6,58.16,14.428,58.16,18.8Zm-2.976,0c0-2.856-1.476-4.733-3.728-4.733-2.212,0-3.7,1.917-3.7,4.733,0,2.842,1.488,4.746,3.7,4.746,2.252,0,3.728-1.864,3.728-4.746Z" transform="translate(-25.859 -6.181)"/>
    <path id="Path_11023" data-name="Path 11023" class="cls-2" d="M66.691,18.8c0,4.383-2.347,7.2-5.887,7.2a4.782,4.782,0,0,1-4.438-2.468H56.3v6.987H53.4V11.746h2.8v2.346h.053A5,5,0,0,1,60.75,11.6C64.33,11.6,66.691,14.428,66.691,18.8Zm-2.977,0c0-2.856-1.476-4.733-3.728-4.733-2.212,0-3.7,1.917-3.7,4.733,0,2.842,1.488,4.746,3.7,4.746,2.252,0,3.728-1.864,3.728-4.746Z" transform="translate(-18.863 -6.181)"/>
    <path id="Path_11024" data-name="Path 11024" class="cls-2" d="M67.675,22.9c.215,1.919,2.078,3.178,4.625,3.178,2.44,0,4.2-1.26,4.2-2.99,0-1.5-1.059-2.4-3.566-3.017l-2.507-.6c-3.553-.858-5.2-2.52-5.2-5.216,0-3.338,2.909-5.631,7.039-5.631,4.09,0,6.892,2.293,6.987,5.631H76.323c-.175-1.931-1.771-3.1-4.1-3.1s-3.929,1.179-3.929,2.9c0,1.368,1.019,2.173,3.513,2.789l2.132.523c3.97.939,5.617,2.533,5.617,5.363,0,3.62-2.882,5.887-7.468,5.887-4.291,0-7.188-2.214-7.375-5.713Z" transform="translate(-9.587 -8.621)"/>
    <path id="Path_11025" data-name="Path 11025" class="cls-2" d="M78.535,9.844v3.338h2.682v2.293H78.535v7.776c0,1.208.537,1.771,1.716,1.771a9.047,9.047,0,0,0,.952-.067v2.279a7.951,7.951,0,0,1-1.608.134c-2.856,0-3.97-1.073-3.97-3.808V15.475H73.575V13.182h2.051V9.844Z" transform="translate(-2.317 -7.618)"/>
    <path id="Path_11026" data-name="Path 11026" class="cls-2" d="M78.626,18.81c0-4.438,2.614-7.227,6.69-7.227s6.692,2.789,6.692,7.227-2.588,7.227-6.692,7.227S78.626,23.26,78.626,18.81Zm10.431,0c0-3.045-1.4-4.841-3.741-4.841s-3.741,1.811-3.741,4.841c0,3.057,1.4,4.84,3.741,4.84S89.057,21.867,89.057,18.81Z" transform="translate(1.826 -6.192)"/>
    <path id="Path_11027" data-name="Path 11027" class="cls-2" d="M87.289,11.746h2.762v2.4h.067A3.364,3.364,0,0,1,93.51,11.6a4.465,4.465,0,0,1,.992.108v2.708a4.047,4.047,0,0,0-1.3-.175,2.918,2.918,0,0,0-3.017,3.245v8.367h-2.9Z" transform="translate(8.932 -6.181)"/>
    <path id="Path_11028" data-name="Path 11028" class="cls-2" d="M104.32,21.719a5.661,5.661,0,0,1-6.074,4.318c-4.1,0-6.651-2.749-6.651-7.16s2.561-7.294,6.529-7.294c3.9,0,6.357,2.681,6.357,6.958v.992H94.518v.175a3.674,3.674,0,0,0,3.795,4,3.191,3.191,0,0,0,3.258-1.984Zm-9.788-4.21h7.052a3.392,3.392,0,0,0-3.46-3.58,3.571,3.571,0,0,0-3.592,3.58Z" transform="translate(12.464 -6.192)"/>
  </g>
  <g id="Group_3348" data-name="Group 3348" transform="translate(62.587 42.546)">
    <path id="Path_11029" data-name="Path 11029" class="cls-2" d="M38.12,36.487,38.24,35a5.7,5.7,0,0,0,1.73.276c.532,0,.737-.052.995-.412a8.31,8.31,0,0,0,.787-4.215c0-1.543-.479-1.989-1.7-1.989-.275,0-.583.018-.926.036a24.986,24.986,0,0,1-3.221,7.5l-1.423-.771a20.152,20.152,0,0,0,3-6.581,24.894,24.894,0,0,0-2.793.464L34.384,27.8c1.045-.188,2.3-.359,3.461-.462a32.053,32.053,0,0,0,.532-3.445l1.68.188c-.155,1.045-.343,2.092-.583,3.12h.668c2.177,0,3.222,1.079,3.222,3.376a10.618,10.618,0,0,1-.994,5.089,2.105,2.105,0,0,1-2.057,1.1A9.432,9.432,0,0,1,38.12,36.487Zm5.518-9.236,1.251-.841a9.645,9.645,0,0,1,2.93,6.342l-1.645.256a8.006,8.006,0,0,0-2.537-5.758Z" transform="translate(-34.384 -22.95)"/>
    <path id="Path_11030" data-name="Path 11030" class="cls-2" d="M46.143,36.751,45.8,35.208c.428.036.994.052,1.337.052,3.392,0,4.678-.958,4.678-2.382,0-1.131-.737-1.781-2.382-1.781a7.351,7.351,0,0,0-4.7,2.3l-1.32-.583a10.055,10.055,0,0,1,1.457-6.426l1.525.5a6.712,6.712,0,0,0-1.3,4.456,8.767,8.767,0,0,1,4.679-1.595c2.3,0,3.719,1.182,3.719,3.1,0,2.433-1.92,3.925-6.529,3.925C46.742,36.768,46.417,36.751,46.143,36.751ZM44.549,25.372l.428-1.509a47.117,47.117,0,0,1,6.735,1.543L51.3,26.9a38.483,38.483,0,0,0-6.752-1.525Z" transform="translate(-27.026 -22.973)"/>
    <path id="Path_11031" data-name="Path 11031" class="cls-2" d="M52.587,35.97A10.826,10.826,0,0,0,57.2,32.987a19.468,19.468,0,0,0-3.2-2.158l.942-1.182A20.832,20.832,0,0,1,58.19,31.7a10.837,10.837,0,0,0,1.68-3.959H55.5a17.66,17.66,0,0,1-3.736,4.3l-1.251-1.079a16.243,16.243,0,0,0,4.765-6.547l1.645.395c-.188.48-.377.976-.6,1.44h4.25l1.217.565a13,13,0,0,1-8.209,10.488Zm7.231-11.961.96-.464a10.333,10.333,0,0,1,1.217,2.108l-1.08.5a9.346,9.346,0,0,0-1.1-2.142Zm2.142-.172.977-.462a11.569,11.569,0,0,1,1.251,2.16L63.108,26a9.408,9.408,0,0,0-1.148-2.16Z" transform="translate(-21.155 -23.374)"/>
    <path id="Path_11032" data-name="Path 11032" class="cls-2" d="M62.62,36.813l-.874-1.388a7.179,7.179,0,0,0,6.032-7.556h-7.2v3.445H58.85v-4.9h4.3V23.892h1.73V26.41h3.2l1.577.446C69.458,31.724,67.83,35.442,62.62,36.813Z" transform="translate(-14.317 -22.949)"/>
    <path id="Path_11033" data-name="Path 11033" class="cls-2" d="M66.623,25.975l.96-1.406A21.266,21.266,0,0,1,71.8,27.124L70.7,28.6a20.119,20.119,0,0,0-4.078-2.622Zm.325,8.449a13.319,13.319,0,0,0,9.889-7.13l1.131,1.269A14.5,14.5,0,0,1,67.6,36.017Z" transform="translate(-7.942 -22.394)"/>
    <path id="Path_11034" data-name="Path 11034" class="cls-2" d="M85.428,35.031H74.649v-10.2H85.428ZM76.347,26.41v7.044h7.368V26.41Z" transform="translate(-1.358 -22.177)"/>
    <path id="Path_11035" data-name="Path 11035" class="cls-2" d="M94.509,28.708H82.393V26.961H94.509Z" transform="translate(4.994 -20.432)"/>
    <path id="Path_11036" data-name="Path 11036" class="cls-2" d="M91.314,24.051h1.7v4.387a52.81,52.81,0,0,1,6.547,3.274L98.6,33.22a41.361,41.361,0,0,0-5.587-3v6.614h-1.7Zm4.026.926,1.011-.48a11.276,11.276,0,0,1,1.218,2.33l-1.115.5a10.04,10.04,0,0,0-1.115-2.348Zm1.954-.738,1.029-.48a11.112,11.112,0,0,1,1.285,2.33l-1.115.5a11.153,11.153,0,0,0-1.2-2.348Z" transform="translate(12.311 -23.058)"/>
  </g>
  <g id="_Group_" data-name="&lt;Group&gt;" transform="translate(18.15 15.873)">
    <g id="_Group_2" data-name="&lt;Group&gt;">
      <path id="_Path_" data-name="&lt;Path&gt;" class="cls-2" d="M36.906,25.491A9.008,9.008,0,0,1,41.2,17.933a9.221,9.221,0,0,0-7.265-3.927c-3.057-.321-6.02,1.829-7.577,1.829-1.588,0-3.986-1.8-6.568-1.744a9.675,9.675,0,0,0-8.142,4.965c-3.52,6.095-.894,15.052,2.478,19.979,1.687,2.412,3.659,5.107,6.239,5.012,2.525-.1,3.468-1.61,6.515-1.61,3.019,0,3.9,1.61,6.536,1.549,2.709-.044,4.416-2.423,6.044-4.858A19.953,19.953,0,0,0,42.22,33.5,8.7,8.7,0,0,1,36.906,25.491Z" transform="translate(-9.972 -4.412)"/>
      <path id="_Path_2" data-name="&lt;Path&gt;" class="cls-2" d="M24.7,15.074A8.869,8.869,0,0,0,26.729,8.72a9.024,9.024,0,0,0-5.839,3.021,8.439,8.439,0,0,0-2.082,6.118A7.461,7.461,0,0,0,24.7,15.074Z" transform="translate(-2.738 -8.72)"/>
    </g>
  </g>
</svg>
