<svg xmlns="http://www.w3.org/2000/svg" width="668.688" height="287.521" viewBox="0 0 668.688 287.521">
  <defs>
    <style>
      .cls-1 {
        fill: #444;
      }

      .cls-2 {
        fill: #83c024;
        opacity: 0.519;
      }
    </style>
  </defs>
  <g id="Group_3388" data-name="Group 3388" transform="translate(-626 -7886)">
    <g id="Group_3204" data-name="Group 3204" transform="translate(527.219 7724.243)">
      <path id="Path_10608" data-name="Path 10608" class="cls-1" d="M105.124,393.377a29.316,29.316,0,0,0,15.3,12.986c6.453,2.536,13.808,3.585,22.657,4.152A7.774,7.774,0,0,0,144.038,395q-10.789-.643-16.519-2.572a17.243,17.243,0,0,1-6.3-3.434c-2.164-2-3.827-4.819-5.1-10.174-1.241-5.33-1.809-12.892-1.8-22.885.054-20.068,8.132-35.657,20.97-48.837,19.23-19.658,49.51-32.544,74.969-40.047a322.506,322.506,0,0,1,32.489-7.807c4.138-.777,7.463-1.293,9.741-1.627,1.142-.184,2.023-.3,2.6-.365l.838-.108a7.811,7.811,0,0,0,4.239-1.894l.179-.167c4.687-4.018,92.765-77.838,240.37-77.789,77.3-.007,120.417,3.839,143.834,7.558,11.712,1.861,18.486,3.7,22.07,4.936a28.991,28.991,0,0,1,2.97,1.185c.285.316.6.65,1.074,1.166,4.188,4.553,15,16.561,26.738,31.3,11.566,14.529,23.99,31.806,31.733,46.868.278,1.185.7,3.469,1.046,6.065.667,4.826,1.291,10.947,1.733,15.8.459,4.854.735,8.436.735,8.448a7.858,7.858,0,0,0,3.759,6.057l0,.024a20.565,20.565,0,0,1,2.435,1.861c4.435,3.959,13.043,13.391,13.092,32.054.017,8.267-.735,14.769-2.138,19.748a25.5,25.5,0,0,1-5.984,11.168,7.767,7.767,0,1,0,11.222,10.74,40.97,40.97,0,0,0,9.724-17.72c1.934-6.912,2.7-14.769,2.72-23.936.028-16.359-5.513-28.333-11.192-35.9a47.612,47.612,0,0,0-8.439-8.834c-.217-2.621-.551-6.387-.977-10.459-.377-3.726-.817-7.668-1.312-11.187a66.779,66.779,0,0,0-1.7-9.039l-.535-1.321c-9.814-19.263-25.535-40.094-38.851-56.406-13.316-16.276-24.246-27.869-24.324-27.951l-.737-.669c-2.091-1.583-7.72-5.32-32.416-9.324-24.689-3.933-68.455-7.756-146.279-7.763-146.025.042-235.634,69.291-248.938,80.266-8.719,1.218-41.048,6.319-73.973,20.028-19.159,8.005-38.575,18.917-53.592,34.169-15,15.167-25.48,35.2-25.426,59.713.009,9.366.426,17.138,1.677,23.879A43.5,43.5,0,0,0,105.124,393.377Z" transform="translate(0 0)"/>
      <path id="Path_10609" data-name="Path 10609" class="cls-1" d="M373.016,349.092a56.7,56.7,0,1,0-56.693-56.71A56.726,56.726,0,0,0,373.016,349.092Zm-29.105-85.815a41.177,41.177,0,1,1-12.054,29.105A40.958,40.958,0,0,1,343.911,263.277Z" transform="translate(294.804 100.186)"/>
      <path id="Path_10610" data-name="Path 10610" class="cls-1" d="M128.324,292.382a56.7,56.7,0,1,0,56.707-56.7A56.726,56.726,0,0,0,128.324,292.382Zm97.869,0a41.154,41.154,0,1,1-12.054-29.105A41.026,41.026,0,0,1,226.193,292.382Z" transform="translate(40.036 100.186)"/>
      <path id="Path_10611" data-name="Path 10611" class="cls-1" d="M190.115,259.845a7.768,7.768,0,0,0,0,15.537H478.278a7.768,7.768,0,0,0,0-15.537Z" transform="translate(113.247 132.925)"/>
      <path id="Path_10612" data-name="Path 10612" class="cls-1" d="M525.239,239.067a15.832,15.832,0,0,0,5.923-5.054,13.264,13.264,0,0,0,2.35-7.612,18.721,18.721,0,0,0-3.9-10.8,42.69,42.69,0,0,0-8.363-8.406c-2.718-2.1-6.22-5.516-11.451-9.216-7.883-5.57-19.5-11.364-39-15.586-19.534-4.235-47.115-7.087-87.927-7.087-32.409.016-75.019,7.136-112.871,19.122-18.924,6.013-36.613,13.243-51.269,21.6-14.626,8.4-26.38,17.777-33.04,29.277l-.191.386a19.42,19.42,0,0,0-2.39,8.738,11.86,11.86,0,0,0,1.816,6.453,12.828,12.828,0,0,0,7.223,5.221,24.068,24.068,0,0,0,7.037.883,92.283,92.283,0,0,0,14.922-1.682c4.958-.843,9.8-1.733,13.281-2.075,7.27-.714,72.365-5.864,138.088-10.853,32.892-2.5,66.006-4.955,92.277-6.813,26.18-1.858,45.838-3.125,50.86-3.194C515.392,242.213,520.684,241.361,525.239,239.067Zm-143.253-3.516c-22.263,1.675-44.981,3.41-65.989,5.038-46.437,3.585-84.213,6.6-90.12,7.188-4.571.464-9.571,1.415-14.374,2.219A89.313,89.313,0,0,1,200.35,251.4c4.623-7.122,13.667-14.852,26.086-21.884,39.981-22.982,111.161-38.8,156.441-38.683.3,0,.551.017.853.017Zm74.67-5.487c-17.374,1.234-37.789,2.734-59.086,4.319l1.7-43.347c43.151.916,68.333,5.485,83.5,10.723a69.783,69.783,0,0,1,18.092,8.94c4.171,2.918,7.115,5.805,10.824,8.721a28.481,28.481,0,0,1,5.287,5.219l.509.888a27.6,27.6,0,0,1-9.131,1.3C502.26,226.945,483.035,228.2,456.657,230.063Z" transform="translate(114.284 18.364)"/>
    </g>
    <rect id="Rectangle_9636" data-name="Rectangle 9636" class="cls-2" width="292" height="83" rx="10" transform="translate(831 8020)"/>
  </g>
</svg>
