<svg xmlns="http://www.w3.org/2000/svg" width="935" height="402.031" viewBox="0 0 935 402.031">
  <g id="car-svg" transform="translate(-945 -2633.836)">
    <g id="Group_3172" data-name="Group 3172" transform="translate(-2194.347 220.194)">
      <path id="Path_10565" data-name="Path 10565" d="M3148.216,2737.511a41,41,0,0,0,21.4,18.158c9.023,3.544,19.307,5.012,31.679,5.8a10.869,10.869,0,0,0,1.337-21.7q-15.086-.894-23.1-3.593a24.1,24.1,0,0,1-8.816-4.8c-3.027-2.8-5.354-6.738-7.127-14.23-1.736-7.452-2.529-18.023-2.519-32,.075-28.061,11.37-49.858,29.321-68.287,26.888-27.49,69.228-45.5,104.826-56a451.928,451.928,0,0,1,45.429-10.917c5.785-1.086,10.436-1.8,13.62-2.272,1.6-.257,2.824-.422,3.631-.514l1.17-.151a10.93,10.93,0,0,0,5.93-2.645l.25-.234c6.553-5.618,129.709-108.837,336.1-108.768,108.083-.01,168.374,5.365,201.114,10.564,16.38,2.6,25.848,5.177,30.864,6.905a41.2,41.2,0,0,1,4.153,1.653c.4.445.833.91,1.5,1.634,5.859,6.366,20.979,23.154,37.387,43.772,16.175,20.315,33.548,44.474,44.374,65.533.389,1.653.971,4.851,1.462,8.477.932,6.75,1.806,15.31,2.425,22.094.638,6.783,1.027,11.792,1.027,11.812a10.967,10.967,0,0,0,5.256,8.467l-.006.036a28.291,28.291,0,0,1,3.4,2.6c6.2,5.532,18.237,18.725,18.3,44.819.028,11.556-1.023,20.651-2.986,27.613-1.982,6.982-4.7,11.74-8.368,15.616a10.86,10.86,0,1,0,15.692,15.017c6.443-6.708,10.9-15.1,13.6-24.78s3.78-20.648,3.8-33.465c.039-22.877-7.71-39.62-15.649-50.207a66.691,66.691,0,0,0-11.8-12.349c-.3-3.666-.771-8.932-1.367-14.626-.527-5.209-1.143-10.722-1.834-15.645a93.433,93.433,0,0,0-2.375-12.639l-.748-1.844c-13.722-26.938-35.707-56.065-54.323-78.871-18.624-22.759-33.9-38.967-34.012-39.086l-1.031-.932c-2.924-2.216-10.8-7.439-45.327-13.038-34.524-5.5-95.717-10.844-204.535-10.857-204.18.059-329.476,96.887-348.08,112.236-12.191,1.7-57.4,8.835-103.433,28-26.79,11.2-53.938,26.45-74.935,47.777-20.978,21.208-35.629,49.215-35.553,83.5.011,13.093.593,23.963,2.345,33.385A60.818,60.818,0,0,0,3148.216,2737.511Z" transform="translate(0 0)" fill="#f8f7f6"/>
      <path id="Path_10566" data-name="Path 10566" d="M3436.163,2646.143a79.285,79.285,0,1,0-79.272-79.3A79.322,79.322,0,0,0,3436.163,2646.143Zm-40.7-119.991a57.585,57.585,0,1,1-16.851,40.693A57.284,57.284,0,0,1,3395.463,2526.151Z" transform="translate(498.848 169.53)" fill="#f8f7f6"/>
      <path id="Path_10567" data-name="Path 10567" d="M3168.89,2566.844a79.287,79.287,0,1,0,79.292-79.272A79.321,79.321,0,0,0,3168.89,2566.844Zm136.847,0a57.558,57.558,0,1,1-16.859-40.693A57.36,57.36,0,0,1,3305.737,2566.844Z" transform="translate(67.746 169.53)" fill="#f8f7f6"/>
      <path id="Path_10568" data-name="Path 10568" d="M3233.775,2511.731a10.861,10.861,0,1,0,0,21.722H3636.7a10.861,10.861,0,0,0,0-21.722Z" transform="translate(191.629 224.929)" fill="#f8f7f6"/>
    </g>
    <circle id="Ellipse_215" data-name="Ellipse 215" cx="44" cy="44" r="44" transform="translate(1710 2750)" fill="#e2f8be"/>
    <g id="Group_3175" data-name="Group 3175" transform="translate(-1773.899 389.225)">
      <g id="Group_3174" data-name="Group 3174" transform="translate(3495.514 2398.817)">
        <path id="Path_10570" data-name="Path 10570" d="M3754.319,2422.774a2.323,2.323,0,0,1-2.1,1.771h-6.247a.236.236,0,0,0-.234.184l-.134.651a.151.151,0,0,0,.151.184H3752a1.4,1.4,0,0,1,1.353,1.787,2.327,2.327,0,0,1-2.1,1.754h-9.22a1.87,1.87,0,0,1-1.921-2.422l1.487-8.09,5.211.722-.234,1.488a.144.144,0,0,0,.15.184h6.247A1.4,1.4,0,0,1,3754.319,2422.774Z" transform="translate(-3723.15 -2417.226)" fill="#83c024"/>
        <path id="Path_10571" data-name="Path 10571" d="M3509.781,2422.774a2.323,2.323,0,0,1-2.1,1.771h-6.247a.236.236,0,0,0-.234.184l-.133.651a.151.151,0,0,0,.15.184h6.247a1.4,1.4,0,0,1,1.353,1.787,2.327,2.327,0,0,1-2.1,1.754h-9.22a1.87,1.87,0,0,1-1.92-2.422l1.486-8.09,5.211.722-.234,1.488a.144.144,0,0,0,.15.184h6.247A1.4,1.4,0,0,1,3509.781,2422.774Z" transform="translate(-3495.515 -2417.226)" fill="#83c024"/>
        <path id="Path_10572" data-name="Path 10572" d="M3984.179,2441.672l-2.773,6.631h-5.211l1.971-4.727a.137.137,0,0,0-.117-.184h-3.006a.289.289,0,0,0-.25.184l-.852,2.054h-5.228l2.623-6.414h11.408C3985.214,2439.217,3984.179,2441.672,3984.179,2441.672Z" transform="translate(-3936.005 -2436.425)" fill="#83c024"/>
        <path id="Path_10573" data-name="Path 10573" d="M4223.12,2439.458l-2.94,9.07H4215.2l2.923-9.07Zm7.065,7a2.751,2.751,0,0,1-2.472,2.071h-3.391a1.862,1.862,0,0,1-1.921-2.422l1.4-6.648h4.994l-1,4.71a.151.151,0,0,0,.15.184h.651A1.65,1.65,0,0,1,4230.186,2446.457Z" transform="translate(-4165.459 -2436.649)" fill="#83c024"/>
        <text transform="translate(17.185 1.038)" fill="#83c024" font-size="10" font-family="ArialMT, Arial"/>        <path id="Path_10574" data-name="Path 10574" d="M3624.966,2401.389l1.036-2.572h1.954l-1.036,2.572Z" transform="translate(-3616.019 -2398.817)" fill="#83c024"/>
        <path id="Path_10575" data-name="Path 10575" d="M3675.093,2401.389l1.035-2.572h1.971l-1.052,2.572Z" transform="translate(-3662.68 -2398.817)" fill="#83c024"/>
      </g>
    </g>
  </g>
</svg>
