<svg xmlns="http://www.w3.org/2000/svg" width="55.498" height="44.27" viewBox="0 0 55.498 44.27">
  <g id="check-green" transform="translate(2676.414 -193.585)">
    <path id="Path_11078" data-name="Path 11078" d="M-2654.99,235.743l-.16-.154-.05.05-2.86-2.857v0l-.01,0-4.12-3.979.07-.072-.34-.348-11.83-11.829,7.07-7.071,11.69,11.693.36.36.35-.366,24.59-25.458,7.19,6.948Z" fill="#18c10f" stroke="#030303" stroke-width="2"/>
    <path id="Path_11079" data-name="Path 11079" d="M-2655,235.036l31.25-32.37-6.47-6.253-24.24,25.1-.7.732-.72-.719-11.34-11.34-6.37,6.364,11.48,11.475.69.7-.06.066,3.76,3.631.01.006v.006l2.51,2.5.04-.044.16.148m.02,1.414-.17-.16-.05.056-3.21-3.211-4.48-4.326.07-.078L-2675,216.548l7.78-7.779,12.04,12.047L-2630.24,195l7.91,7.642Z" fill="#18c10f" stroke="#030303" stroke-width="2"/>
  </g>
</svg>
