<svg xmlns="http://www.w3.org/2000/svg" width="497.2" height="103.504" viewBox="0 0 497.2 103.504">
  <defs>
    <style>
      .cls-1, .cls-2 {
        fill: #83c024;
      }

      .cls-2 {
        font-size: 10px;
        font-family: ArialMT, Arial;
      }

      .cls-3 {
        fill: #219a3a;
      }

      .cls-4 {
        fill: #fff;
      }
    </style>
  </defs>
  <g id="Group_3386" data-name="Group 3386" transform="translate(-48 -48)">
    <g id="Group_3206" data-name="Group 3206" transform="translate(-354.983 -12.638)">
      <path id="Path_10613" data-name="Path 10613" class="cls-1" d="M989.038,126.915c-1.173,5.574-6.845,10.366-12.321,10.366H940.145a1.379,1.379,0,0,0-1.369,1.076l-.782,3.813a.884.884,0,0,0,.88,1.076h36.572c5.476,0,9.094,4.792,7.92,10.463-1.173,5.476-6.845,10.268-12.321,10.268H917.067c-14.472,0-11.245-14.179-11.245-14.179l8.7-47.362,30.509,4.229-1.369,8.712a.842.842,0,0,0,.88,1.076h36.572C986.691,116.452,990.211,121.244,989.038,126.915Z" transform="translate(-285.577 -23.095)"/>
      <path id="Path_10614" data-name="Path 10614" class="cls-1" d="M604.506,126.915c-1.174,5.574-6.845,10.366-12.321,10.366H555.613a1.379,1.379,0,0,0-1.369,1.076l-.782,3.813a.884.884,0,0,0,.88,1.076h36.572c5.476,0,9.094,4.792,7.92,10.463-1.173,5.476-6.845,10.268-12.321,10.268H532.535c-14.472,0-11.245-14.179-11.245-14.179l8.7-47.362,30.509,4.229-1.369,8.712a.842.842,0,0,0,.88,1.076h36.572C602.159,116.452,605.679,121.244,604.506,126.915Z" transform="translate(0 -23.095)"/>
      <path id="Path_10615" data-name="Path 10615" class="cls-1" d="M1355.627,149.24l-16.233,38.821h-30.509l11.539-27.673a.8.8,0,0,0-.685-1.076h-17.6a1.7,1.7,0,0,0-1.467,1.076l-4.987,12.028h-30.607l15.352-37.55h66.788C1361.689,134.866,1355.627,149.24,1355.627,149.24Z" transform="translate(-552.61 -47.181)"/>
      <path id="Path_10616" data-name="Path 10616" class="cls-1" d="M1699.029,135.245l-17.21,53.1h-29.14l17.113-53.1Zm41.363,40.972c-1.467,6.454-8.018,12.125-14.472,12.125h-19.85c-14.57,0-11.245-14.179-11.245-14.179l8.214-38.919h29.238l-5.867,27.576a.884.884,0,0,0,.88,1.076h3.814C1737.556,163.9,1741.761,169.568,1740.392,176.217Z" transform="translate(-840.467 -47.462)"/>
      <text class="cls-2" transform="translate(621.592 77.416)"/>      <path id="Path_10617" data-name="Path 10617" class="cls-1" d="M727.037,84.629l5.027-12.486a1.287,1.287,0,0,1,1.194-.806h8.666a1.287,1.287,0,0,1,1.194,1.767L738.09,85.59a1.286,1.286,0,0,1-1.193.806H728.23A1.287,1.287,0,0,1,727.037,84.629Z" transform="translate(-152.958)"/>
      <path id="Path_10618" data-name="Path 10618" class="cls-1" d="M805.86,84.629l5.027-12.486a1.287,1.287,0,0,1,1.194-.806h8.753a1.287,1.287,0,0,1,1.191,1.774L816.916,85.6a1.287,1.287,0,0,1-1.191.8h-8.672A1.287,1.287,0,0,1,805.86,84.629Z" transform="translate(-211.497)"/>
    </g>
    <g id="Group_3184" data-name="Group 3184" transform="translate(-21.748 22.606)">
      <g id="Group_3182" data-name="Group 3182" transform="translate(69.748 25.394)">
        <g id="Group_3177" data-name="Group 3177" transform="translate(0.929 0.928)">
          <g id="Group_3176" data-name="Group 3176" transform="translate(0 0.145)">
            <path id="Path_10576" data-name="Path 10576" class="cls-1" d="M119.617,132.309l-41.53-23.743a2.323,2.323,0,0,1-1.17-2.018L76.946,59.2a2.323,2.323,0,0,1,1.165-2.012L119.46,33.419a2.323,2.323,0,0,1,2.316,0l41.238,23.707a2.323,2.323,0,0,1,1.165,2.015l-.026,47.46a2.323,2.323,0,0,1-1.162,2.011L121.931,132.3A2.323,2.323,0,0,1,119.617,132.309Z" transform="translate(-75.988 -32.182)"/>
            <path id="Path_10577" data-name="Path 10577" class="cls-3" d="M118.115,130.892a3.253,3.253,0,0,1-1.614-.427l-41.53-23.743a3.26,3.26,0,0,1-1.638-2.826l.028-47.349a3.262,3.262,0,0,1,1.631-2.818l41.349-23.767a3.262,3.262,0,0,1,3.241,0l41.239,23.707a3.262,3.262,0,0,1,1.632,2.821l-.026,47.46a3.263,3.263,0,0,1-1.627,2.815l-41.06,23.693A3.256,3.256,0,0,1,118.115,130.892Zm-.691-2.041a1.4,1.4,0,0,0,1.389,0l41.06-23.692a1.4,1.4,0,0,0,.7-1.207l.026-47.46a1.4,1.4,0,0,0-.7-1.209L118.657,31.574a1.4,1.4,0,0,0-1.389,0L75.919,55.341a1.4,1.4,0,0,0-.7,1.207L75.192,103.9a1.4,1.4,0,0,0,.7,1.211Z" transform="translate(-73.333 -29.531)"/>
          </g>
          <path id="Path_10578" data-name="Path 10578" class="cls-3" d="M116.964,130.315,74.5,106.04a2.322,2.322,0,0,1-1.17-2.018l.028-48.427a2.323,2.323,0,0,1,1.165-2.012l42.278-24.3a2.323,2.323,0,0,1,2.315,0l42.168,24.24a2.323,2.323,0,0,1,1.165,2.015l-.026,49.876-.465.269-42.684,24.63A2.323,2.323,0,0,1,116.964,130.315Zm-40.6-25.353,40.6,23.211a2.323,2.323,0,0,0,2.314,0l40.133-23.159A2.323,2.323,0,0,0,160.567,103l.027-46.386a2.323,2.323,0,0,0-1.165-2.015L119.12,31.427a2.322,2.322,0,0,0-2.315,0L76.385,54.658a2.324,2.324,0,0,0-1.165,2.013l-.028,46.272A2.323,2.323,0,0,0,76.362,104.962Z" transform="translate(-73.333 -28.972)"/>
        </g>
        <g id="Group_3179" data-name="Group 3179" transform="translate(0 0)">
          <g id="Group_3178" data-name="Group 3178">
            <path id="Path_10579" data-name="Path 10579" class="cls-3" d="M116.964,130.315,74.5,106.04a2.322,2.322,0,0,1-1.17-2.018l.028-48.427a2.323,2.323,0,0,1,1.165-2.012l42.278-24.3a2.323,2.323,0,0,1,2.315,0l42.168,24.24a2.323,2.323,0,0,1,1.165,2.015l-.026,49.876-.465.269-42.684,24.63A2.323,2.323,0,0,1,116.964,130.315Zm-40.6-25.353,40.6,23.211a2.323,2.323,0,0,0,2.314,0l40.133-23.159A2.323,2.323,0,0,0,160.567,103l.027-46.386a2.323,2.323,0,0,0-1.165-2.015L119.12,31.427a2.322,2.322,0,0,0-2.315,0L76.385,54.658a2.324,2.324,0,0,0-1.165,2.013l-.028,46.272A2.323,2.323,0,0,0,76.362,104.962Z" transform="translate(-72.404 -28.044)"/>
            <path id="Path_10580" data-name="Path 10580" class="cls-3" d="M115.462,128.9a3.254,3.254,0,0,1-1.614-.427h0L71.386,104.2a3.261,3.261,0,0,1-1.638-2.826l.028-48.427a3.261,3.261,0,0,1,1.632-2.818l42.278-24.3a3.261,3.261,0,0,1,3.241,0L159.1,50.065a3.26,3.26,0,0,1,1.632,2.821L160.7,103.3l-.928.537-42.685,24.63A3.252,3.252,0,0,1,115.462,128.9Zm-.692-2.041a1.4,1.4,0,0,0,1.388,0l.878-.507a3.264,3.264,0,0,1-3.1.034ZM74.168,101.5l40.6,23.212a1.4,1.4,0,0,0,1.388,0l40.133-23.159a1.4,1.4,0,0,0,.7-1.206l.027-46.386a1.4,1.4,0,0,0-.7-1.209L116,29.582a1.4,1.4,0,0,0-1.389,0L74.193,52.814a1.4,1.4,0,0,0-.7,1.207l-.028,46.272a1.4,1.4,0,0,0,.7,1.211Zm84.7-37.836-.022,36.681a3.261,3.261,0,0,1-1.627,2.815l-26.485,15.283,28.113-16.222Zm-87.256,36.69v1.014a1.4,1.4,0,0,0,.7,1.211l.919.525A3.259,3.259,0,0,1,71.607,100.358Zm43.7-73.106a1.4,1.4,0,0,0-.694.185l-42.278,24.3a1.4,1.4,0,0,0-.7,1.207l-.014,23.049.013-21.974A3.261,3.261,0,0,1,73.267,51.2l40.419-23.232a3.262,3.262,0,0,1,3.241,0l40.31,23.171a3.26,3.26,0,0,1,1.631,2.759V52.886a1.4,1.4,0,0,0-.7-1.209L116,27.436A1.4,1.4,0,0,0,115.307,27.252Z" transform="translate(-69.748 -25.394)"/>
          </g>
        </g>
        <g id="Group_3180" data-name="Group 3180" transform="translate(0.012 0)">
          <path id="Path_10581" data-name="Path 10581" class="cls-3" d="M119.243,29.281a2.323,2.323,0,0,0-2.315,0L73.584,54.193l-.085.993,49.857,57.121q.116.138.237.271l.171.2.012-.011a10.863,10.863,0,0,0,4.179,2.759,15.811,15.811,0,0,0,5.514.9c11.987,0,27.625-10.091,28.64-10.753l.441-.256.026-49.876a2.322,2.322,0,0,0-1.165-2.015Zm41.448,75.058-.02.011.012.022c-3.062,1.926-21.762,13.245-32.083,9.41a9.021,9.021,0,0,1-3.508-2.317l-.452-.518a10.132,10.132,0,0,1-1.146-1.767c-3.087-8.161-.766-14.421,6.9-18.6l.231-.125c2.066-1.14,7.061-1.823,7.108-1.83l2.906-.39L80.112,56.71a2.323,2.323,0,0,1-.085-4.074l36.9-21.209a2.323,2.323,0,0,1,2.315,0L159.553,54.6a2.323,2.323,0,0,1,1.165,2.015Z" transform="translate(-72.539 -28.045)"/>
          <path id="Path_10582" data-name="Path 10582" class="cls-3" d="M130.726,114.7a16.764,16.764,0,0,1-5.838-.957A11.855,11.855,0,0,1,121,111.387l-.052.047-.8-.894c-.077-.086-.163-.184-.248-.284L69.8,52.849l.161-1.87,43.765-25.153a3.262,3.262,0,0,1,3.241,0l42.168,24.24a3.26,3.26,0,0,1,1.632,2.821l-.027,50.41-.882.512C158.046,104.987,142.775,114.7,130.726,114.7Zm27.923-12.335-.214.143c-2.538,1.6-12.427,7.55-21.785,9.621,10.083-2.224,20.739-8.944,22.086-9.811Zm-35.61,5.825a8.053,8.053,0,0,0,3.142,2.07c4.069,1.512,10.324.636,18.089-2.534a91.512,91.512,0,0,0,12.413-6.319l-.026-.045.362-.209.026-47.191a1.4,1.4,0,0,0-.7-1.209l-40.31-23.171a1.4,1.4,0,0,0-1.389,0l-36.9,21.209a1.393,1.393,0,0,0,.051,2.444l63.131,32.881-5.813.78c-1.833.259-5.314.912-6.783,1.723l-.235.128c-7.282,3.968-9.407,9.662-6.494,17.406a9.169,9.169,0,0,0,1.008,1.547Zm-1.527,1.084.06.061-.4-.458a11.025,11.025,0,0,1-1.25-1.928l-.04-.092c-1.618-4.278-1.815-8.129-.584-11.446s3.892-6.109,7.911-8.3l.231-.125c2.051-1.132,6.531-1.808,7.408-1.932l.02,0L76.94,54.883a3.252,3.252,0,0,1-.118-5.7l36.9-21.209a3.262,3.262,0,0,1,3.241,0l40.31,23.171A3.26,3.26,0,0,1,158.9,53.9V52.886a1.4,1.4,0,0,0-.7-1.209l-42.168-24.24a1.4,1.4,0,0,0-1.389,0L71.726,52.106l-.01.116,49.6,56.824C121.384,109.13,121.448,109.2,121.512,109.275Zm37.365-7.062v.013h0v-.014Zm0-.729h0l.012-22.446Z" transform="translate(-69.796 -25.394)"/>
        </g>
        <g id="Group_3181" data-name="Group 3181" transform="translate(7.527 35.355)">
          <path id="Path_10583" data-name="Path 10583" class="cls-4" d="M99.479,187.255a3.227,3.227,0,0,0,1.685,1.43,8.235,8.235,0,0,0,2.494.457.856.856,0,0,0,.1-1.708,7.444,7.444,0,0,1-1.819-.283,1.9,1.9,0,0,1-.694-.378,2.053,2.053,0,0,1-.561-1.12,11.778,11.778,0,0,1-.2-2.519,7.463,7.463,0,0,1,2.309-5.376c2.117-2.164,5.45-3.583,8.253-4.409a35.5,35.5,0,0,1,3.577-.859c.456-.086.822-.142,1.072-.179.126-.02.223-.033.286-.04l.092-.012a.86.86,0,0,0,.467-.208l.02-.018c.516-.442,10.212-8.569,26.462-8.563a107.357,107.357,0,0,1,15.834.832,15.016,15.016,0,0,1,2.43.543,3.193,3.193,0,0,1,.327.13l.118.128c.461.5,1.652,1.823,2.944,3.446a34,34,0,0,1,3.493,5.16c.031.13.077.382.115.668.073.531.142,1.205.191,1.739s.081.929.081.93a.865.865,0,0,0,.414.667v0a2.264,2.264,0,0,1,.268.2,4.492,4.492,0,0,1,1.441,3.529,8.124,8.124,0,0,1-.235,2.174,2.807,2.807,0,0,1-.659,1.229.855.855,0,1,0,1.235,1.182,4.51,4.51,0,0,0,1.071-1.951,9.868,9.868,0,0,0,.3-2.635,6.5,6.5,0,0,0-1.232-3.953,5.243,5.243,0,0,0-.929-.973c-.024-.289-.061-.7-.108-1.151-.041-.41-.09-.844-.144-1.232a7.351,7.351,0,0,0-.187-1l-.059-.145a37.857,37.857,0,0,0-4.277-6.21c-1.466-1.792-2.669-3.068-2.678-3.077l-.081-.074c-.23-.174-.85-.586-3.569-1.026a108.492,108.492,0,0,0-16.1-.855c-16.075,0-25.94,7.628-27.4,8.836a35.183,35.183,0,0,0-8.143,2.2,17.95,17.95,0,0,0-5.9,3.762,9.179,9.179,0,0,0-2.8,6.574,14.724,14.724,0,0,0,.185,2.629A4.789,4.789,0,0,0,99.479,187.255Z" transform="translate(-98.781 -161.757)"/>
          <path id="Path_10584" data-name="Path 10584" class="cls-4" d="M322.564,248.17a6.242,6.242,0,1,0-6.241-6.243A6.245,6.245,0,0,0,322.564,248.17Zm-3.2-9.447a4.533,4.533,0,1,1-1.327,3.2A4.509,4.509,0,0,1,319.36,238.723Z" transform="translate(-259.92 -216.518)"/>
          <path id="Path_10585" data-name="Path 10585" class="cls-4" d="M128.324,241.927a6.242,6.242,0,1,0,6.243-6.241A6.245,6.245,0,0,0,128.324,241.927Zm10.774,0a4.53,4.53,0,1,1-1.327-3.2A4.516,4.516,0,0,1,139.1,241.927Z" transform="translate(-120.664 -216.518)"/>
          <path id="Path_10586" data-name="Path 10586" class="cls-4" d="M183.2,259.845a.855.855,0,0,0,0,1.71h31.723a.855.855,0,0,0,0-1.71Z" transform="translate(-160.681 -234.414)"/>
          <path id="Path_10587" data-name="Path 10587" class="cls-4" d="M220.777,182.327a1.743,1.743,0,0,0,.652-.556,1.46,1.46,0,0,0,.259-.838,2.061,2.061,0,0,0-.429-1.189,4.7,4.7,0,0,0-.921-.925c-.3-.231-.685-.607-1.261-1.015a11.37,11.37,0,0,0-4.293-1.716,46.764,46.764,0,0,0-9.68-.78,44.277,44.277,0,0,0-12.426,2.105,29.789,29.789,0,0,0-5.644,2.378,9.52,9.52,0,0,0-3.637,3.223l-.021.043a2.138,2.138,0,0,0-.263.962,1.305,1.305,0,0,0,.2.71,1.412,1.412,0,0,0,.8.575,2.649,2.649,0,0,0,.775.1,10.161,10.161,0,0,0,1.643-.185c.546-.093,1.079-.191,1.462-.228.8-.079,7.966-.646,15.2-1.195,3.621-.276,7.266-.546,10.159-.75s5.046-.344,5.6-.352A4.2,4.2,0,0,0,220.777,182.327Zm-15.77-.387c-2.451.184-4.952.375-7.265.555-5.112.395-9.271.727-9.921.791-.5.051-1.054.156-1.582.244a9.832,9.832,0,0,1-1.228.155,8.343,8.343,0,0,1,2.872-2.409c4.4-2.53,12.237-4.271,17.222-4.259l.094,0Zm8.22-.6c-1.913.136-4.16.3-6.5.475l.187-4.772c4.75.1,7.523.6,9.193,1.18a7.683,7.683,0,0,1,1.992.984c.459.321.783.639,1.192.96a3.135,3.135,0,0,1,.582.575l.056.1a3.039,3.039,0,0,1-1.005.143C218.247,180.993,216.131,181.131,213.227,181.336Z" transform="translate(-161.248 -171.795)"/>
        </g>
      </g>
    </g>
  </g>
</svg>
