<svg xmlns="http://www.w3.org/2000/svg" width="351.204" height="68.707" viewBox="0 0 351.204 68.707">
  <defs>
    <style>
      .cls-1, .cls-2 {
        fill: #fff;
      }

      .cls-2 {
        stroke: #fff;
        stroke-miterlimit: 10;
        stroke-width: 5.281px;
      }

      .cls-3 {
        font-size: 10px;
        font-family: ArialMT, Arial;
      }
    </style>
  </defs>
  <g id="Group_3300" data-name="Group 3300" transform="translate(-770.048 -4434.788)">
    <g id="Group_3305" data-name="Group 3305" transform="translate(-1833.557 3585.17)">
      <g id="Group_3302" data-name="Group 3302" transform="translate(2606.305 852.3)">
        <g id="Group_3300-2" data-name="Group 3300" transform="translate(0 0)">
          <path id="Path_10962" data-name="Path 10962" class="cls-1" d="M2633.494,915.453l-26.46-15.127a1.448,1.448,0,0,1-.729-1.258l.018-30.177a1.448,1.448,0,0,1,.726-1.254l26.346-15.143a1.448,1.448,0,0,1,1.443,0l26.277,15.105a1.447,1.447,0,0,1,.726,1.256l-.016,31.08-.29.167-26.6,15.348A1.448,1.448,0,0,1,2633.494,915.453Zm-25.3-15.8,25.3,14.464a1.448,1.448,0,0,0,1.442,0l25.009-14.432a1.448,1.448,0,0,0,.724-1.253l.017-28.905a1.448,1.448,0,0,0-.726-1.256l-25.119-14.439a1.448,1.448,0,0,0-1.443,0l-25.187,14.477a1.447,1.447,0,0,0-.726,1.254l-.018,28.835A1.448,1.448,0,0,0,2608.192,899.654Z" transform="translate(-2606.305 -852.301)"/>
        </g>
        <g id="Group_3301" data-name="Group 3301" transform="translate(0 0)">
          <path id="Path_10963" data-name="Path 10963" class="cls-2" d="M2633.494,915.453l-26.46-15.127a1.448,1.448,0,0,1-.729-1.258l.018-30.177a1.448,1.448,0,0,1,.726-1.254l26.346-15.143a1.448,1.448,0,0,1,1.443,0l26.277,15.105a1.447,1.447,0,0,1,.726,1.256l-.016,31.08-.29.167-26.6,15.348A1.448,1.448,0,0,1,2633.494,915.453Zm-25.3-15.8,25.3,14.464a1.448,1.448,0,0,0,1.442,0l25.009-14.432a1.448,1.448,0,0,0,.724-1.253l.017-28.905a1.448,1.448,0,0,0-.726-1.256l-25.119-14.439a1.448,1.448,0,0,0-1.443,0l-25.187,14.477a1.447,1.447,0,0,0-.726,1.254l-.018,28.835A1.448,1.448,0,0,0,2608.192,899.654Z" transform="translate(-2606.305 -852.301)"/>
        </g>
        <path id="Path_10964" data-name="Path 10964" class="cls-2" d="M2634.932,852.493a1.448,1.448,0,0,0-1.443,0l-27.01,15.524-.053.619,31.068,35.6c.049.057.1.114.148.169l.107.122.007-.007a6.77,6.77,0,0,0,2.6,1.719,9.857,9.857,0,0,0,3.436.56c7.47,0,17.215-6.288,17.847-6.7l.275-.159.016-31.08a1.448,1.448,0,0,0-.726-1.256Zm25.829,46.773-.012.007.008.014c-1.908,1.2-13.561,8.254-19.993,5.864a5.623,5.623,0,0,1-2.186-1.444l-.282-.323a6.338,6.338,0,0,1-.714-1.1c-1.924-5.085-.477-8.987,4.3-11.59l.143-.078a17.948,17.948,0,0,1,4.43-1.14l1.811-.243-37.719-19.645a1.448,1.448,0,0,1-.052-2.539l22.994-13.216a1.448,1.448,0,0,1,1.443,0l25.119,14.439a1.448,1.448,0,0,1,.726,1.256Z" transform="translate(-2606.4 -852.3)"/>
      </g>
      <g id="Group_3303" data-name="Group 3303" transform="translate(2674.699 866.79)">
        <path id="Path_10965" data-name="Path 10965" class="cls-1" d="M3207.96,951.411a7.372,7.372,0,0,1-6.678,5.618H3181.46a.747.747,0,0,0-.742.583l-.424,2.067a.479.479,0,0,0,.477.583h19.822c2.968,0,4.929,2.6,4.293,5.671a7.382,7.382,0,0,1-6.677,5.565h-29.256c-7.844,0-6.095-7.685-6.095-7.685l4.717-25.67,16.536,2.292-.742,4.722a.456.456,0,0,0,.477.583h19.822C3206.688,945.74,3208.6,948.337,3207.96,951.411Z" transform="translate(-3109.059 -933.806)"/>
        <path id="Path_10966" data-name="Path 10966" class="cls-1" d="M2963.421,951.411a7.372,7.372,0,0,1-6.678,5.618h-19.822a.747.747,0,0,0-.742.583l-.424,2.067a.479.479,0,0,0,.477.583h19.822c2.968,0,4.929,2.6,4.293,5.671a7.383,7.383,0,0,1-6.678,5.565h-29.256c-7.844,0-6.095-7.685-6.095-7.685l4.717-25.67,16.536,2.292-.742,4.722a.456.456,0,0,0,.477.583h19.822C2962.149,945.74,2964.057,948.337,2963.421,951.411Z" transform="translate(-2918.153 -933.806)"/>
        <path id="Path_10967" data-name="Path 10967" class="cls-1" d="M3440.428,966.558l-8.8,21.041h-16.536l6.254-15a.435.435,0,0,0-.371-.583h-9.54a.92.92,0,0,0-.795.583l-2.7,6.519h-16.589l8.321-20.352h36.2C3443.714,958.767,3440.428,966.558,3440.428,966.558Z" transform="translate(-3287.569 -949.906)"/>
        <path id="Path_10968" data-name="Path 10968" class="cls-1" d="M3662.963,959.008l-9.328,28.778h-15.794l9.275-28.778Zm22.418,22.207c-.795,3.5-4.346,6.572-7.844,6.572h-10.759c-7.9,0-6.095-7.685-6.095-7.685l4.452-21.094h15.846l-3.18,14.946a.479.479,0,0,0,.477.583h2.067C3683.844,974.537,3686.123,977.611,3685.381,981.215Z" transform="translate(-3479.999 -950.094)"/>
        <text class="cls-3" transform="translate(54.529 3.295)"/>        <path id="Path_10969" data-name="Path 10969" class="cls-1" d="M3047.6,926.528l3.286-8.162h6.2l-3.286,8.162Z" transform="translate(-3019.213 -918.367)"/>
        <path id="Path_10970" data-name="Path 10970" class="cls-1" d="M3097.732,926.528l3.286-8.162h6.254l-3.339,8.162Z" transform="translate(-3058.346 -918.367)"/>
      </g>
      <g id="Group_3304" data-name="Group 3304" transform="translate(2892.538 875.336)">
        <path id="Path_10971" data-name="Path 10971" class="cls-1" d="M3911.988,978.9a2.729,2.729,0,0,0,1.425,1.209,6.965,6.965,0,0,0,2.11.387.724.724,0,0,0,.089-1.445,6.284,6.284,0,0,1-1.538-.239,1.6,1.6,0,0,1-.587-.32,1.734,1.734,0,0,1-.474-.948,9.926,9.926,0,0,1-.168-2.131,6.313,6.313,0,0,1,1.953-4.548,16.655,16.655,0,0,1,6.981-3.729,30.063,30.063,0,0,1,3.026-.727c.385-.072.7-.12.907-.152.106-.017.188-.028.242-.034l.078-.01a.728.728,0,0,0,.4-.176l.016-.016c.437-.374,8.639-7.249,22.384-7.244a90.808,90.808,0,0,1,13.394.7,12.706,12.706,0,0,1,2.056.46,2.715,2.715,0,0,1,.276.11l.1.109c.39.424,1.4,1.542,2.49,2.915a28.777,28.777,0,0,1,2.955,4.365c.026.11.065.323.1.565.062.45.12,1.02.162,1.471s.068.786.068.787a.732.732,0,0,0,.35.564v0A1.926,1.926,0,0,1,3971,971a3.8,3.8,0,0,1,1.219,2.985,6.878,6.878,0,0,1-.2,1.839,2.374,2.374,0,0,1-.557,1.04.723.723,0,1,0,1.045,1,3.817,3.817,0,0,0,.906-1.65,8.34,8.34,0,0,0,.253-2.229,5.492,5.492,0,0,0-1.042-3.344,4.428,4.428,0,0,0-.786-.823c-.02-.244-.051-.595-.091-.974-.035-.347-.076-.714-.122-1.042a6.3,6.3,0,0,0-.158-.842l-.05-.123a32.045,32.045,0,0,0-3.618-5.253c-1.24-1.516-2.258-2.6-2.265-2.6l-.069-.062c-.195-.148-.719-.5-3.019-.868a91.753,91.753,0,0,0-13.622-.723c-13.6,0-21.943,6.453-23.182,7.475a29.75,29.75,0,0,0-6.889,1.865,15.178,15.178,0,0,0-4.99,3.182,7.764,7.764,0,0,0-2.368,5.561,12.44,12.44,0,0,0,.156,2.224A4.051,4.051,0,0,0,3911.988,978.9Z" transform="translate(-3911.397 -957.33)"/>
        <path id="Path_10972" data-name="Path 10972" class="cls-1" d="M4134.219,1041.821a5.28,5.28,0,1,0-5.28-5.281A5.282,5.282,0,0,0,4134.219,1041.821Zm-2.711-7.991a3.835,3.835,0,1,1-1.122,2.71A3.816,3.816,0,0,1,4131.508,1033.829Z" transform="translate(-4081.228 -1015.046)"/>
        <path id="Path_10973" data-name="Path 10973" class="cls-1" d="M3940.94,1036.54a5.281,5.281,0,1,0,5.281-5.28A5.282,5.282,0,0,0,3940.94,1036.54Zm9.114,0a3.833,3.833,0,1,1-1.123-2.71A3.82,3.82,0,0,1,3950.054,1036.54Z" transform="translate(-3934.46 -1015.046)"/>
        <path id="Path_10974" data-name="Path 10974" class="cls-1" d="M3995.688,1055.419a.723.723,0,1,0,0,1.447h26.834a.723.723,0,1,0,0-1.447Z" transform="translate(-3976.636 -1033.906)"/>
      </g>
    </g>
  </g>
</svg>
