<svg xmlns="http://www.w3.org/2000/svg" width="252.287" height="615.875" viewBox="0 0 252.287 615.875">
  <g id="Group_3216" data-name="Group 3216" transform="translate(-5582.887 177.802)">
    <g id="Group_3213" data-name="Group 3213" transform="translate(5582.887 -177.802)">
      <path id="Path_10625" data-name="Path 10625" d="M6293.5-171.786h11.067V-177.8h8.344v6.016h23.384v7.322h-23.384v4.03q2.837-.283,5.278-.284,9.989,0,15.354,4.342a14.412,14.412,0,0,1,5.363,11.834,15.6,15.6,0,0,1-4.4,11.153,22.058,22.058,0,0,1-12,6.158l-2.44-7.719a15.288,15.288,0,0,0,7.35-3.689,8.009,8.009,0,0,0,2.81-5.9,7.367,7.367,0,0,0-2.724-6.13q-3.974,9.82-10.728,15.211t-14.189,5.392a11.768,11.768,0,0,1-8.485-3.065,10.994,10.994,0,0,1-3.207-8.343,16.178,16.178,0,0,1,3.547-10.33,21.763,21.763,0,0,1,10.13-6.811v-5.846H6293.5Zm11.067,22.022q-4.994,2.952-4.995,7.321a5.1,5.1,0,0,0,1.051,3.434,3.646,3.646,0,0,0,2.922,1.22,6.739,6.739,0,0,0,1.021-.114Zm15.1-3.122c-.151,0-.388-.009-.709-.029s-.577-.028-.766-.028a39.2,39.2,0,0,0-5.278.4v9.876A33.119,33.119,0,0,0,6319.663-152.885Z" transform="translate(-6089.966 177.802)" fill="#83c024"/>
      <path id="Path_10626" data-name="Path 10626" d="M6284.648,85.437V77.718h9.309q1.247-5.108,1.816-7.719L6304,71.02q-.454,2.271-1.475,6.7h8.911v7.719H6300.6a250.259,250.259,0,0,1-9.308,28.322l-8-2.724q5.221-13.451,8.627-25.6Zm49.209,1.135a60.6,60.6,0,0,0-8.854-.851v16.857a76.72,76.72,0,0,1,10.273,8.514l-5.392,5.9q-3.064-2.78-5.562-4.881-2.328,7.946-13.054,7.946-6.641,0-10.358-3.065a11.056,11.056,0,0,1-.057-16.488q3.661-3.036,10.415-3.037a17.985,17.985,0,0,1,4.995.795V77.718a134.544,134.544,0,0,1,18.56,1.135Zm-17.595,19.638a10.26,10.26,0,0,0-4.995-1.419,6.527,6.527,0,0,0-4.03,1.05,3.424,3.424,0,0,0-1.362,2.866,3.581,3.581,0,0,0,1.419,2.98,6.316,6.316,0,0,0,3.973,1.107q2.837,0,3.917-1.249t1.078-4.824Z" transform="translate(-6084.522 0.324)" fill="#83c024"/>
      <path id="Path_10627" data-name="Path 10627" d="M6290.188,334.7v-7.776h8.8q.794-4.313,1.135-6.527l8.684.738q-.285,1.93-.965,5.789h19.411V334.7h-20.83a304.259,304.259,0,0,1-9.251,35.53l-8.684-1.93a303.114,303.114,0,0,0,8.967-33.6Zm45.576,25.711.965,7.776a64.811,64.811,0,0,1-11.919,1.135q-8.117,0-12.913-2.98t-4.8-7.634q0-4.313,5.392-8.684l6.754,3.235a24.563,24.563,0,0,0-2.752,2.809,2.846,2.846,0,0,0-.653,1.675q0,1.646,2.355,2.724a16.278,16.278,0,0,0,6.612,1.078A61.464,61.464,0,0,0,6335.765,360.412Zm-.34-14.757a208.771,208.771,0,0,0-23.157,1.249l-.455-7.549a217.153,217.153,0,0,1,23.612-1.249Z" transform="translate(-6088.246 -179.015)" fill="#83c024"/>
      <path id="Path_10628" data-name="Path 10628" d="M6316.4,620.29q12.088-1.7,12.089-14.643a13.765,13.765,0,0,0-3.037-9,13.235,13.235,0,0,0-7.974-4.682,160.853,160.853,0,0,1-3.321,17.737,41.614,41.614,0,0,1-4.143,10.9,15.512,15.512,0,0,1-4.683,5.25,10.248,10.248,0,0,1-5.506,1.475q-4.824,0-8.882-5.448a21.6,21.6,0,0,1-4.059-13.282q0-11.18,7.549-18.191t19.865-7.01q9.932,0,16.4,6.272a21.293,21.293,0,0,1,6.471,15.977q0,10.1-5.108,16.119a19.45,19.45,0,0,1-13.792,6.754Zm-8.061-27.981A15.93,15.93,0,0,0,6295.57,608.6a15.558,15.558,0,0,0,1.5,6.9q1.5,3.094,2.752,3.093a2.1,2.1,0,0,0,1.392-.795,10.592,10.592,0,0,0,1.674-2.724,36.661,36.661,0,0,0,1.788-4.824q.879-2.9,1.845-7.52T6308.341,592.309Z" transform="translate(-6087.101 -367.379)" fill="#83c024"/>
      <path id="Path_10629" data-name="Path 10629" d="M6280.908,843.29h13.168v18.673a7.9,7.9,0,0,0,3.178,2.951,21.04,21.04,0,0,0,6.471,1.363,60.246,60.246,0,0,0,6.017.34v-2.611h-13.792V857.82h13.792v-1.532h-12.487V838.693h12.487V837.16h-11.806V834.72h-2.043l-4.937,4.654q-4.485-5.051-10.047-10.614l5.9-5.335q4.2,4.257,8.456,9.081V823.2h37.177V834.72h-2.667v2.441h-11.522v1.532h12.2v17.595h-12.2v1.532h14.3v6.187h-14.3v2.724h14.984l-.455,7.038h-14.416q-7.378,0-11.8-.4a57.673,57.673,0,0,1-8.174-1.192,15.216,15.216,0,0,1-5.562-2.27q-.965-.738-1.248-.965a87.477,87.477,0,0,1-7.549,5.676l-4.144-6.981a63.176,63.176,0,0,0,5.96-4.087V850.669h-4.938Zm28.833-13.565h-6.583v1.7h6.583ZM6304.8,845.39h4.938V843.8H6304.8Zm0,5.789h4.938v-1.646H6304.8Zm19.694-19.752v-1.7h-6.243v1.7Zm-6.243,13.962h4.654V843.8h-4.654Zm0,4.144v1.646h4.654v-1.646Z" transform="translate(-6082.087 -539.127)" fill="#83c024"/>
      <path id="Path_10630" data-name="Path 10630" d="M6324.387,1099.912l7.605-1.93a209.451,209.451,0,0,1,4.825,22.646l-7.833,1.93q-.114-.8-.369-2.355t-.425-2.355q-9.139,1.646-18.333,2.611l-.114-3.462h-6.413v5.335h-8.457V1117h-10.387v-6.924h10.387v-2.838h-9.252v-23.271h9.252v-2.838h-10.387v-6.867h10.387v-3.86h8.457v3.86h7.946v6.867h-7.946v2.838h8.8v2.27h24.122v7.606H6324.67q-1.589,9.7-3.292,17.595,1.759-.226,5.392-.795Q6325.635,1105.3,6324.387,1099.912Zm-32.352-6.924h3.235v-2.838h-3.235Zm0,8.116h3.235v-2.951h-3.235Zm10.9-8.116h3.235v-2.838h-3.235Zm0,5.165v2.951h3.235v-2.951Zm.4,9.081v2.838h7.946v2.611a4.316,4.316,0,0,0,.823-.113,4.347,4.347,0,0,1,.823-.114q2.44-10.953,3.689-18.616h-4.483v13.394Zm9.535-27.073v-7.605h21.795v7.605Z" transform="translate(-6085.381 -716.175)" fill="#83c024"/>
      <path id="Path_10631" data-name="Path 10631" d="M6321.1,1347.574q0,21.058-10.33,21.057a32.219,32.219,0,0,1-5.9-.709,38.3,38.3,0,0,1-6.3-1.731l2.1-7.833q6.13,1.987,8.23,1.987.794,0,1.419-1.22a16.493,16.493,0,0,0,1.107-4.541,60.59,60.59,0,0,0,.482-8.428q0-6.413-.511-7.464t-3.632-1.05H6302.2a225.919,225.919,0,0,1-9.706,31.5l-7.605-2.5a235.306,235.306,0,0,0,8.854-29h-7.663v-7.776h9.365q1.192-6.015,1.987-11.068l8.06.568q-.455,3.746-1.7,10.5h7.264a24.556,24.556,0,0,1,2.9.2q1.646.2,2.355.312a4.835,4.835,0,0,1,1.7.738,5.014,5.014,0,0,1,1.306,1.05,8.853,8.853,0,0,1,.823,1.7,7.3,7.3,0,0,1,.567,2.185q.056.909.228,3.008t.17,3.746Zm7.549-16.176-5.846,2.781q-2.213-4.483-4.824-9.025l5.846-2.951Q6326.432,1327.029,6328.647,1331.4Zm.908,26.619q-2.328-8.854-6.356-20.49l8.229-2.554q3.972,11.125,6.527,21Zm8.287-28.436-5.959,2.838q-2.555-4.938-4.938-9.195l5.96-3.008Q6334.947,1323.907,6337.842,1329.582Z" transform="translate(-6085.668 -894.082)" fill="#83c024"/>
      <path id="Path_10632" data-name="Path 10632" d="M5947.738-156.088V-164.6h36.892v8.514a66.76,66.76,0,0,1-10.33,15.665q7.548,6.7,15.325,14.189l-6.3,6.243q-8.629-8.4-15.154-14.189a82.009,82.009,0,0,1-21.4,14.019l-4.086-7.492q21.568-10.442,31.614-28.435Z" transform="translate(-5840.581 168.348)" fill="#83c024"/>
      <path id="Path_10633" data-name="Path 10633" d="M5932.887,107.274q4.6-9.706,8.57-20.149l8.287,2.554q-3.861,10.556-8.8,20.83Zm2.042-32.125h19.582V66.806h9.479v8.343h6.47a8.008,8.008,0,0,1-.511-2.838,8.514,8.514,0,0,1,17.027,0A8.3,8.3,0,0,1,5985.7,76.8a8.408,8.408,0,0,1-3.434,3.122v3.462H5963.99v22.873a41.32,41.32,0,0,1-.227,5.108,4.556,4.556,0,0,1-4,4.03,39.987,39.987,0,0,1-5.023.227,82.7,82.7,0,0,1-9.138-.624l.625-8.116q4.483.511,6.357.511,1.417,0,1.675-.312a4.369,4.369,0,0,0,.254-2.015V83.379H5934.93Zm41.093,35.473q-4.6-11.862-8.57-20.943l8.059-3.065q4.427,9.65,8.8,21Zm5.052-35.7A3.7,3.7,0,1,0,5978.463,76,3.558,3.558,0,0,0,5981.074,74.923Z" transform="translate(-5833.562 4.765)" fill="#83c024"/>
      <path id="Path_10634" data-name="Path 10634" d="M5949.286,340.028l4.371-8.23q8.286,3.746,17.708,8.8l-4.6,8.23Q5957.288,343.775,5949.286,340.028Zm37.63-2.668,8.684,1.93q-3.009,17.142-13.707,26.25t-30,10.812l-1.419-8.911q16.347-1.645,24.888-8.712T5986.917,337.36Z" transform="translate(-5845.307 -187.18)" fill="#83c024"/>
      <path id="Path_10635" data-name="Path 10635" d="M5937.888,585.763h8.854V576.4h8.968v9.365h13.622V576.4h9.422v9.365h8.854v8.23h-8.854v3.065q0,13.4-6.5,19.581t-21.88,7.435l-1.759-8.23q8.4-.794,12.77-2.7a11.664,11.664,0,0,0,6.158-5.591q1.789-3.688,1.788-10.5v-3.065h-13.622v10.9h-8.968v-10.9h-8.854Z" transform="translate(-5837.144 -362.366)" fill="#83c024"/>
      <path id="Path_10636" data-name="Path 10636" d="M5966.4,1120.29q12.089-1.7,12.088-14.643a13.767,13.767,0,0,0-3.036-9,13.236,13.236,0,0,0-7.974-4.682,160.983,160.983,0,0,1-3.321,17.737,41.65,41.65,0,0,1-4.143,10.9,15.518,15.518,0,0,1-4.683,5.25,10.251,10.251,0,0,1-5.506,1.475q-4.824,0-8.882-5.448a21.6,21.6,0,0,1-4.058-13.281q0-11.181,7.548-18.191t19.865-7.01q9.932,0,16.4,6.272a21.29,21.29,0,0,1,6.47,15.977q0,10.1-5.108,16.119a19.451,19.451,0,0,1-13.792,6.754Zm-8.06-27.981a15.928,15.928,0,0,0-12.771,16.289,15.558,15.558,0,0,0,1.5,6.9q1.5,3.094,2.753,3.093a2.1,2.1,0,0,0,1.391-.795,10.579,10.579,0,0,0,1.674-2.724,36.4,36.4,0,0,0,1.788-4.824q.88-2.9,1.845-7.52T5958.341,1092.309Z" transform="translate(-5836.426 -725.486)" fill="#83c024"/>
      <path id="Path_10637" data-name="Path 10637" d="M5933.6,1325.266h18.162V1318.4h9.082v6.868H5979v7.379h-18.162v6.527H5981.1v7.379h-16.29a82.155,82.155,0,0,0,18.9,14.643l-4.37,7.719a81.182,81.182,0,0,1-18.5-16.119v18.049h-9.082v-18.106a81.858,81.858,0,0,1-18.5,16.176l-4.37-7.719a82.2,82.2,0,0,0,18.9-14.643H5931.5v-7.379h20.262v-6.527H5933.6Z" transform="translate(-5830.697 -893.796)" fill="#83c024"/>
      <path id="Path_10638" data-name="Path 10638" d="M5983.714,1611.989l-4.37,7.719a81.181,81.181,0,0,1-18.5-16.12v17.255h-9.082v-17.311a81.877,81.877,0,0,1-18.5,16.176l-4.37-7.719a86.57,86.57,0,0,0,16.8-12.487h-15.211v-7.379h10.216q-1.816-4.029-4.483-8.968l5.5-2.327h-9.421v-7.151h19.467V1568.4h9.082v5.278h19.468v7.151h-3.235a96.929,96.929,0,0,1-5.166,11.295h10.216v7.379h-15.21A86.525,86.525,0,0,0,5983.714,1611.989Zm-39.333-31.16q2.1,3.8,4.541,9.365l-4.6,1.93h7.435v-11.295Zm23.724,11.295-4.483-1.93a101.725,101.725,0,0,0,4.483-9.365h-7.265v11.295Z" transform="translate(-5830.697 -1072.85)" fill="#83c024"/>
      <path id="Path_10639" data-name="Path 10639" d="M5966.4,1870.289q12.089-1.7,12.088-14.643a13.765,13.765,0,0,0-3.036-9,13.233,13.233,0,0,0-7.974-4.682,161,161,0,0,1-3.321,17.737,41.65,41.65,0,0,1-4.143,10.9,15.518,15.518,0,0,1-4.683,5.25,10.248,10.248,0,0,1-5.506,1.476q-4.824,0-8.882-5.449a21.6,21.6,0,0,1-4.058-13.281q0-11.18,7.548-18.191t19.865-7.01q9.932,0,16.4,6.272a21.291,21.291,0,0,1,6.47,15.977q0,10.1-5.108,16.119a19.451,19.451,0,0,1-13.792,6.754Zm-8.06-27.981a15.928,15.928,0,0,0-12.771,16.289,15.557,15.557,0,0,0,1.5,6.9q1.5,3.094,2.753,3.093a2.1,2.1,0,0,0,1.391-.794,10.585,10.585,0,0,0,1.674-2.724,36.382,36.382,0,0,0,1.788-4.824q.88-2.895,1.845-7.521T5958.341,1842.308Z" transform="translate(-5836.426 -1262.645)" fill="#83c024"/>
      <path id="Path_10640" data-name="Path 10640" d="M5587.887-164.237h8.854V-173.6h8.968v9.365h13.622V-173.6h9.422v9.365h8.854v8.23h-8.854v3.065q0,13.4-6.5,19.581t-21.879,7.435l-1.76-8.23q8.4-.794,12.771-2.7a11.666,11.666,0,0,0,6.158-5.591q1.788-3.689,1.788-10.5v-3.065h-13.622v10.9h-8.968v-10.9h-8.854Z" transform="translate(-5586.468 174.794)" fill="#83c024"/>
      <path id="Path_10641" data-name="Path 10641" d="M5582.887,107.274q4.6-9.706,8.57-20.149l8.287,2.554q-3.86,10.556-8.8,20.83Zm2.043-32.125h19.581V66.806h9.479v8.343h6.471a8.008,8.008,0,0,1-.511-2.838,8.514,8.514,0,0,1,17.027,0A8.292,8.292,0,0,1,5635.7,76.8a8.411,8.411,0,0,1-3.434,3.122v3.462H5613.99v22.873a41.442,41.442,0,0,1-.227,5.108,4.555,4.555,0,0,1-4,4.03,39.978,39.978,0,0,1-5.022.227,82.677,82.677,0,0,1-9.138-.624l.624-8.116q4.483.511,6.357.511,1.417,0,1.674-.312a4.359,4.359,0,0,0,.255-2.015V83.379H5584.93Zm41.093,35.473q-4.6-11.862-8.571-20.943l8.06-3.065q4.427,9.65,8.8,21Zm5.051-35.7A3.7,3.7,0,1,0,5628.463,76,3.558,3.558,0,0,0,5631.074,74.923Z" transform="translate(-5582.887 4.765)" fill="#83c024"/>
      <path id="Path_10642" data-name="Path 10642" d="M5618.086,578.4h9.648v15.665a291.356,291.356,0,0,1,30.536,9.252L5655.319,612q-14.36-5.164-27.584-8.514v22.249h-9.648Z" transform="translate(-5608.097 -363.798)" fill="#83c024"/>
      <path id="Path_10643" data-name="Path 10643" d="M5608.348,829.363a97.946,97.946,0,0,0,0,45.406l-9.024.965a100.1,100.1,0,0,1,0-47.336Zm32.579,34.508,1.249,8a55.526,55.526,0,0,1-13.735,1.7q-8.172,0-12.771-3.178a9.912,9.912,0,0,1-4.6-8.57,12.818,12.818,0,0,1,1.93-6.016,26.422,26.422,0,0,1,5.165-6.471l6.3,4.938q-4.427,4.542-4.428,6.981a3.258,3.258,0,0,0,1.987,3.093,15.242,15.242,0,0,0,6.414.993A58.191,58.191,0,0,0,5640.927,863.871Zm-24.973-23.441v-8h24.577v8Z" transform="translate(-5592.627 -542.851)" fill="#83c024"/>
      <path id="Path_10644" data-name="Path 10644" d="M5584.648,1085.437v-7.719h9.309q1.247-5.108,1.816-7.719l8.229,1.021q-.455,2.271-1.476,6.7h8.911v7.719H5600.6a250.05,250.05,0,0,1-9.308,28.322l-8-2.724q5.221-13.451,8.627-25.6Zm49.209,1.135a60.614,60.614,0,0,0-8.854-.851v16.857a76.72,76.72,0,0,1,10.272,8.514l-5.392,5.9q-3.065-2.78-5.562-4.881-2.328,7.946-13.054,7.946-6.642,0-10.358-3.065a11.055,11.055,0,0,1-.057-16.488q3.66-3.036,10.415-3.037a17.98,17.98,0,0,1,4.994.795v-20.546a134.543,134.543,0,0,1,18.56,1.135Zm-17.595,19.638a10.258,10.258,0,0,0-4.994-1.419,6.53,6.53,0,0,0-4.03,1.05,3.425,3.425,0,0,0-1.362,2.866,3.581,3.581,0,0,0,1.419,2.98,6.317,6.317,0,0,0,3.973,1.107q2.837,0,3.916-1.249t1.078-4.824Z" transform="translate(-5583.173 -715.889)" fill="#83c024"/>
      <path id="Path_10645" data-name="Path 10645" d="M5625.13,1370.428a7.947,7.947,0,0,0,4.654-7.662q0-7.037-10.728-7.038a47.008,47.008,0,0,0-10.926,1.163,60.508,60.508,0,0,0-11.266,4.172l-3.178-6.3,24.462-14.359v-.057h-20.716V1332.8h37.119l.057,7.719-17.028,9.024.057.057a30.1,30.1,0,0,1,5.448-.511q7.718,0,11.948,3.519a11.76,11.76,0,0,1,4.228,9.535q0,8.117-5.959,12.6t-16.914,4.484q-17.254,0-17.254-10.387a7.874,7.874,0,0,1,3.746-6.584q3.746-2.667,10.1-2.668,6.526,0,9.45,2.128a7.386,7.386,0,0,1,2.923,6.385A11.316,11.316,0,0,1,5625.13,1370.428Zm-8.116,1.646a8.483,8.483,0,0,0,.737-3.065,2.415,2.415,0,0,0-1.107-2.185,8.459,8.459,0,0,0-4.171-.709,6.991,6.991,0,0,0-3.661.766,2.26,2.26,0,0,0-1.22,1.958q0,3.293,8.8,3.292a2.244,2.244,0,0,0,.313-.028A2.426,2.426,0,0,1,5617.015,1372.074Z" transform="translate(-5590.622 -904.109)" fill="#83c024"/>
    </g>
    <g id="Group_3214" data-name="Group 3214" transform="translate(5704.576 106.58)">
      <path id="Path_10646" data-name="Path 10646" d="M6011.69,824.293h9.195v47.336h-9.195Z" transform="translate(-6011.69 -824.293)" fill="#83c024"/>
    </g>
    <g id="Group_3215" data-name="Group 3215" transform="translate(5603.971 -31.539)">
      <path id="Path_10647" data-name="Path 10647" d="M5657.181,337.6h9.195v47.336h-9.195Z" transform="translate(-5657.181 -337.596)" fill="#83c024"/>
    </g>
  </g>
</svg>
