<svg xmlns="http://www.w3.org/2000/svg" width="158.424" height="138.988" viewBox="0 0 158.424 138.988">
  <defs>
    <style>
      .cls-1 {
        fill: #414042;
      }

      .cls-2 {
        fill: none;
      }

      .cls-3 {
        fill: #f1f2f2;
      }
    </style>
  </defs>
  <g id="Group_3336" data-name="Group 3336" transform="translate(-95.788 -45.506)">
    <path id="Path_11008" data-name="Path 11008" class="cls-1" d="M248.818,106.076c-.192-.4-.389-.794-.591-1.188q-.6-1.179-1.263-2.325-1.317-2.291-2.844-4.438-.382-.536-.775-1.062a55.14,55.14,0,0,0-4.238-5.013q-1.359-1.425-2.817-2.75t-3.008-2.543q-1.033-.813-2.106-1.575-.535-.381-1.082-.75-1.636-1.105-3.356-2.1-1.146-.658-2.325-1.263-1.769-.906-3.611-1.686a54.53,54.53,0,0,0-21.292-4.3h-.157a54.659,54.659,0,0,0-54.32,49.747c-.146,1.632-.225,3.284-.225,4.954a55.124,55.124,0,0,0,.63,8.33q.311,2.037.77,4.023t1.059,3.913q.2.644.415,1.278.429,1.272.92,2.514a54.347,54.347,0,0,0,2.808,6.016q.631,1.163,1.317,2.291.342.564.7,1.119.712,1.108,1.475,2.182.381.537.775,1.063a55,55,0,0,0,10.062,10.306q1.551,1.218,3.188,2.325,1.092.737,2.22,1.422t2.29,1.318q1.745.946,3.563,1.77a54.867,54.867,0,0,0,43.8.533c.6-.254,1.193-.521,1.782-.8q1.524-.71,3-1.507c.631-.343,1.253-.7,1.868-1.068q1.346-.8,2.642-1.672,1.638-1.107,3.188-2.325t3.008-2.544q1.458-1.325,2.817-2.75a55.128,55.128,0,0,0,4.238-5.012q.393-.526.775-1.063,1.383-1.945,2.6-4.016.245-.416.481-.836c.355-.63.7-1.266,1.031-1.911q.3-.59.591-1.188a54.831,54.831,0,0,0,0-47.431ZM216.994,144.3q-.207.57-.467,1.119a12.892,12.892,0,0,1-.9,1.6c-.113.171-.231.34-.352.507-.243.334-.5.659-.78.975a15.047,15.047,0,0,1-1.351,1.358q-.243.216-.5.423-.508.414-1.062.8t-1.148.731a20.064,20.064,0,0,1-2.884,1.384,23.167,23.167,0,0,1-3.267.987,1.561,1.561,0,0,0-.25.078,1.3,1.3,0,0,0-.207.108.592.592,0,0,0-.32.426v3.62a4.28,4.28,0,0,1-4.483,4.03h-.09a4.28,4.28,0,0,1-4.483-4.03v-3.086a.3.3,0,0,0-.018-.1.67.67,0,0,0-.256-.3,1.48,1.48,0,0,0-.709-.241q-.651-.059-1.3-.14c-.861-.108-1.715-.246-2.55-.41a30.6,30.6,0,0,1-5.78-1.707,4.494,4.494,0,0,1-1.079-.639c-.106-.085-.207-.176-.3-.27a3.962,3.962,0,0,1-.72-.961c-.063-.118-.12-.24-.171-.364s-.088-.233-.123-.351a3.683,3.683,0,0,1-.151-1.08q0-.182.021-.363t.057-.36a3.834,3.834,0,0,1,.223-.7l.273-.639h0a3.832,3.832,0,0,1,.269-.507c.025-.041.051-.081.078-.121a3.924,3.924,0,0,1,.339-.442l.005-.007a4.23,4.23,0,0,1,.411-.392c.037-.031.073-.06.111-.09a4.512,4.512,0,0,1,.454-.319l.014-.009a4.644,4.644,0,0,1,.512-.261l.134-.057a4.771,4.771,0,0,1,.528-.183l.024-.008a5,5,0,0,1,.575-.117c.049-.007.1-.014.147-.019a4.8,4.8,0,0,1,.563-.038l.037,0c.081,0,.162.007.244.011s.14,0,.21.011.167.022.251.035c.068.01.136.016.2.029.094.017.186.042.279.066.057.014.116.024.173.041.13.037.258.083.386.132.02.007.04.012.059.02a26.257,26.257,0,0,0,9.621,1.841,11.749,11.749,0,0,0,6.927-1.884,6.21,6.21,0,0,0,.635-.536,4.91,4.91,0,0,0,1.076-1.506,4.3,4.3,0,0,0,.377-1.771c0-.067,0-.133,0-.2,0-.134-.014-.271-.029-.409a4.572,4.572,0,0,0-.118-.63,4.3,4.3,0,0,0-.34-.869c-.039-.074-.08-.148-.125-.223a5.019,5.019,0,0,0-.3-.45,5.705,5.705,0,0,0-.385-.458c-.142-.154-.3-.308-.473-.464s-.363-.314-.571-.472-.432-.317-.676-.477c-.367-.24-.776-.482-1.233-.726-.152-.082-.31-.163-.473-.245q-.489-.246-1.045-.494c-.186-.082-.377-.165-.575-.248q-.593-.249-1.258-.5-.333-.125-.686-.251c-.235-.084-.477-.169-.725-.253-1.784-.586-3.539-1.215-5.2-1.924-.994-.425-1.953-.879-2.862-1.37q-.66-.357-1.283-.74t-1.2-.8q-.579-.414-1.11-.859c-.353-.3-.69-.606-1.007-.926a13.1,13.1,0,0,1-.9-1,11.888,11.888,0,0,1-.772-1.077,10.6,10.6,0,0,1-1.355-3.222,11.814,11.814,0,0,1-.313-2.736c0-6.493,4.909-11.633,12.813-13.416a1.422,1.422,0,0,0,.171-.048,1.26,1.26,0,0,0,.4-.219.915.915,0,0,0,.089-.086.521.521,0,0,0,.1-.175.271.271,0,0,0,.014-.082v-3.394a3.624,3.624,0,0,1,.2-1.2,3.717,3.717,0,0,1,.34-.722,4.546,4.546,0,0,1,3.664-2.1c.092,0,.183-.013.276-.013a4.582,4.582,0,0,1,3.941,2.111,3.838,3.838,0,0,1,.34.722,3.649,3.649,0,0,1,.2,1.2v2.807h0a.454.454,0,0,0,.149.3,1.263,1.263,0,0,0,.774.334,32.363,32.363,0,0,1,3.779.579,27.476,27.476,0,0,1,3.473.986,4.537,4.537,0,0,1,1.53.915,4.181,4.181,0,0,1,.575.646,3.962,3.962,0,0,1,.419.743,3.664,3.664,0,0,1-.038,2.968l-.265.586a3.82,3.82,0,0,1-.274.494c-.025.038-.049.075-.075.112a4.005,4.005,0,0,1-.344.435l-.024.024a4.27,4.27,0,0,1-.388.36c-.034.028-.068.056-.1.084a4.431,4.431,0,0,1-.459.315l-.053.029a4.854,4.854,0,0,1-.462.231c-.041.018-.082.036-.123.052a4.732,4.732,0,0,1-.538.184l-.08.019a4.971,4.971,0,0,1-.5.1c-.044.007-.087.014-.132.019a4.841,4.841,0,0,1-.579.039c-.078,0-.156,0-.234-.007-.062,0-.124,0-.186-.008-.086-.007-.171-.019-.257-.03-.058-.008-.117-.013-.175-.022-.1-.016-.19-.038-.284-.06-.049-.011-.1-.019-.146-.031-.143-.037-.285-.081-.425-.131a24.041,24.041,0,0,0-8.133-1.349c-.489,0-.941.025-1.378.06-4.735.379-6.468,2.708-6.468,4.732,0,.1,0,.2.012.3.1,1.458.959,2.612,3.092,3.82.239.136.495.272.768.41q.613.311,1.343.63t1.585.656q.571.224,1.2.457.942.35,2.021.724.7.239,1.4.493t1.39.53q.347.137.69.28c.686.285,1.363.587,2.024.908.221.108.44.217.656.329q.651.334,1.275.7.312.183.617.373.607.379,1.182.794a12.93,12.93,0,0,1,5.854,10.993A12.376,12.376,0,0,1,216.994,144.3Z"/>
    <g id="Group_3335" data-name="Group 3335">
      <path id="Path_11009" data-name="Path 11009" class="cls-2" d="M213.752,107.094a4.181,4.181,0,0,1,.575.646,3.962,3.962,0,0,1,.419.743,3.664,3.664,0,0,1-.038,2.968l-.265.586a3.82,3.82,0,0,1-.274.494c-.025.038-.049.075-.075.112a4.005,4.005,0,0,1-.344.435l-.024.024a4.141,4.141,0,0,1-.388.36c-.034.028-.068.056-.1.084a4.431,4.431,0,0,1-.459.315l-.053.029a4.854,4.854,0,0,1-.462.231c-.041.018-.082.036-.123.052a4.732,4.732,0,0,1-.538.184l-.08.019a4.971,4.971,0,0,1-.5.1c-.044.007-.087.014-.132.019a4.841,4.841,0,0,1-.579.039h-.012c-.074,0-.148,0-.222-.007s-.124,0-.186-.008c-.086-.007-.171-.019-.257-.03-.058-.008-.117-.013-.175-.022-.1-.016-.19-.038-.284-.06-.049-.011-.1-.019-.146-.031-.143-.037-.285-.081-.425-.131a24.041,24.041,0,0,0-8.133-1.349c-.489,0-.941.025-1.378.06-4.735.379-6.468,2.708-6.468,4.732,0,.1,0,.2.012.3.1,1.458.959,2.612,3.092,3.82.239.136.495.272.768.41q.613.311,1.343.63t1.585.656q.571.224,1.2.457.942.35,2.021.724.7.239,1.4.493t1.39.53q.347.137.689.28c.687.285,1.364.587,2.025.908.221.108.44.217.656.329q.651.334,1.275.7.312.183.617.373.607.379,1.182.794a12.93,12.93,0,0,1,5.854,10.993,12.376,12.376,0,0,1-.732,4.216q-.207.57-.467,1.119a12.892,12.892,0,0,1-.9,1.6q-.17.257-.352.507c-.243.334-.5.659-.78.975a15.047,15.047,0,0,1-1.351,1.358q-.243.216-.5.423-.508.414-1.062.8t-1.148.731a20.064,20.064,0,0,1-2.884,1.384,23.167,23.167,0,0,1-3.267.987,1.561,1.561,0,0,0-.25.078,1.3,1.3,0,0,0-.207.108.592.592,0,0,0-.32.425v3.621a4.279,4.279,0,0,1-4.483,4.03h-.09a4.279,4.279,0,0,1-4.483-4.03v-3.086a.3.3,0,0,0-.018-.1.67.67,0,0,0-.256-.3,1.48,1.48,0,0,0-.709-.241q-.651-.059-1.3-.14c-.861-.108-1.715-.246-2.55-.41a30.6,30.6,0,0,1-5.78-1.707,4.494,4.494,0,0,1-1.079-.639c-.106-.085-.207-.176-.3-.27a3.962,3.962,0,0,1-.72-.961c-.063-.118-.12-.24-.171-.364s-.088-.233-.123-.351a3.683,3.683,0,0,1-.151-1.08q0-.182.021-.363t.057-.36a3.834,3.834,0,0,1,.223-.7l.273-.639h0a3.832,3.832,0,0,1,.269-.507c.025-.041.051-.081.078-.121a3.924,3.924,0,0,1,.339-.442l.005-.007a4.23,4.23,0,0,1,.411-.392c.037-.031.073-.06.111-.09a4.512,4.512,0,0,1,.454-.319l.014-.009a4.644,4.644,0,0,1,.512-.261l.134-.057a4.771,4.771,0,0,1,.528-.183l.024-.008a5,5,0,0,1,.575-.117c.049-.007.1-.014.147-.019a4.8,4.8,0,0,1,.563-.038l.036,0h0c.081,0,.162.007.244.011s.14,0,.21.011.167.023.251.035c.068.01.136.016.2.029.094.017.186.042.279.066.057.014.116.024.173.041.13.037.258.083.386.132.02.007.04.012.059.02a26.257,26.257,0,0,0,9.621,1.841,11.749,11.749,0,0,0,6.927-1.884,6.21,6.21,0,0,0,.635-.536,4.91,4.91,0,0,0,1.076-1.506,4.28,4.28,0,0,0,.377-1.771c0-.067,0-.133,0-.2,0-.135-.014-.271-.029-.409a4.572,4.572,0,0,0-.118-.63,4.3,4.3,0,0,0-.34-.869c-.039-.074-.08-.148-.125-.223a5.019,5.019,0,0,0-.3-.45,5.705,5.705,0,0,0-.385-.458c-.142-.154-.3-.309-.473-.464s-.363-.313-.571-.472-.432-.317-.676-.477c-.367-.24-.776-.482-1.233-.726-.152-.082-.31-.163-.473-.245q-.489-.246-1.045-.494c-.186-.082-.377-.165-.575-.248q-.593-.249-1.258-.5-.333-.125-.686-.251c-.235-.084-.477-.169-.725-.253-1.783-.586-3.539-1.215-5.2-1.924-.994-.425-1.953-.879-2.862-1.37q-.66-.357-1.283-.74t-1.2-.8q-.579-.414-1.11-.859c-.353-.3-.69-.606-1.007-.926a13.1,13.1,0,0,1-.9-1,11.7,11.7,0,0,1-.772-1.077,10.6,10.6,0,0,1-1.355-3.222,11.814,11.814,0,0,1-.313-2.736c0-6.493,4.909-11.633,12.813-13.416a1.422,1.422,0,0,0,.171-.048,1.26,1.26,0,0,0,.4-.219.915.915,0,0,0,.089-.086.521.521,0,0,0,.1-.175.271.271,0,0,0,.014-.082v-3.394a3.624,3.624,0,0,1,.2-1.2,3.717,3.717,0,0,1,.34-.722,4.546,4.546,0,0,1,3.664-2.1c.092,0,.183-.013.276-.013a4.582,4.582,0,0,1,3.941,2.111,3.838,3.838,0,0,1,.34.722,3.65,3.65,0,0,1,.2,1.2v2.807h0a.452.452,0,0,0,.148.3,1.263,1.263,0,0,0,.774.334,32.363,32.363,0,0,1,3.779.579,27.476,27.476,0,0,1,3.473.986A4.537,4.537,0,0,1,213.752,107.094Z"/>
      <path id="Path_11010" data-name="Path 11010" class="cls-1" d="M147.815,96.262A61.933,61.933,0,0,1,160.84,81.81q-4.187.148-8.556.153c-24.713,0-45.719-3.7-53.388-8.864a1.988,1.988,0,0,0-3.108,1.589V88.7c0,6.677,21.261,12.195,48.842,13.067.015-.03.029-.06.044-.089A62.087,62.087,0,0,1,147.815,96.262Z"/>
      <path id="Path_11011" data-name="Path 11011" class="cls-1" d="M138.15,124.22a61.339,61.339,0,0,1,2.34-12.153c-19.436-.964-35.181-4.259-41.594-8.574a1.988,1.988,0,0,0-3.108,1.588v14.01c0,6.126,17.895,11.276,42.148,12.758-.023-.686-.039-1.372-.039-2.057C137.9,127.967,137.982,126.093,138.15,124.22Z"/>
      <path id="Path_11012" data-name="Path 11012" class="cls-1" d="M142.173,152.385c-.367-.932-.716-1.885-1.037-2.833q-.243-.717-.468-1.441c-.451-1.449-.852-2.933-1.193-4.411-.1-.433-.186-.872-.276-1.308-18.84-1.043-34.032-4.286-40.3-8.505a1.988,1.988,0,0,0-3.108,1.588v14.009c0,6.845,22.338,12.472,50.925,13.125.025-.3.065-.591.094-.888-.508-.836-1-1.7-1.47-2.556A61.828,61.828,0,0,1,142.173,152.385Z"/>
      <path id="Path_11013" data-name="Path 11013" class="cls-3" d="M204.97,104.614a1.263,1.263,0,0,1-.774-.334.452.452,0,0,1-.148-.3h0v-2.807a3.65,3.65,0,0,0-.2-1.2,3.838,3.838,0,0,0-.34-.722,4.582,4.582,0,0,0-3.941-2.111c-.093,0-.184.008-.276.013a4.546,4.546,0,0,0-3.664,2.1,3.717,3.717,0,0,0-.34.722,3.624,3.624,0,0,0-.2,1.2v3.394a.271.271,0,0,1-.014.082.521.521,0,0,1-.1.175.915.915,0,0,1-.089.086,1.26,1.26,0,0,1-.4.219,1.422,1.422,0,0,1-.171.048c-7.9,1.783-12.813,6.923-12.813,13.416a11.814,11.814,0,0,0,.313,2.736,10.6,10.6,0,0,0,1.355,3.222,11.7,11.7,0,0,0,.772,1.077,13.1,13.1,0,0,0,.9,1c.317.32.654.629,1.007.926s.724.583,1.11.859.788.541,1.2.8.843.5,1.283.74c.909.491,1.868.945,2.862,1.37,1.657.709,3.413,1.338,5.2,1.924.248.084.49.169.725.253s.464.168.686.251q.666.252,1.258.5c.2.083.389.166.575.248q.557.249,1.045.494c.163.082.321.163.473.245.457.244.866.486,1.233.726q.366.24.676.477t.571.472c.174.155.331.31.473.464a5.705,5.705,0,0,1,.385.458,5.019,5.019,0,0,1,.3.45c.045.075.086.149.125.223a4.3,4.3,0,0,1,.34.869,4.572,4.572,0,0,1,.118.63c.015.138.025.274.029.409,0,.068,0,.134,0,.2a4.28,4.28,0,0,1-.377,1.771,4.91,4.91,0,0,1-1.076,1.506,6.21,6.21,0,0,1-.635.536,11.749,11.749,0,0,1-6.927,1.884,26.257,26.257,0,0,1-9.621-1.841c-.019-.008-.039-.013-.059-.02-.128-.049-.256-.1-.386-.132-.057-.017-.116-.027-.173-.041-.093-.024-.185-.049-.279-.066-.067-.013-.135-.019-.2-.029-.084-.012-.167-.028-.251-.035s-.14-.007-.21-.011-.163-.011-.244-.011h0l-.036,0a4.8,4.8,0,0,0-.563.038c-.049.005-.1.012-.147.019a5,5,0,0,0-.575.117l-.024.008a4.771,4.771,0,0,0-.528.183l-.134.057a4.644,4.644,0,0,0-.512.261l-.014.009a4.512,4.512,0,0,0-.454.319c-.038.03-.074.059-.111.09a4.23,4.23,0,0,0-.411.392l-.005.007a3.924,3.924,0,0,0-.339.442c-.027.04-.053.08-.078.121a3.832,3.832,0,0,0-.269.507h0l-.273.639a3.834,3.834,0,0,0-.223.7q-.037.18-.057.36t-.021.363a3.683,3.683,0,0,0,.151,1.08q.052.177.123.351c.051.124.108.246.171.364a3.962,3.962,0,0,0,.72.961c.1.094.2.185.3.27a4.494,4.494,0,0,0,1.079.639,30.6,30.6,0,0,0,5.78,1.707c.835.164,1.689.3,2.55.41q.646.081,1.3.14a1.48,1.48,0,0,1,.709.241.67.67,0,0,1,.256.3.3.3,0,0,1,.018.1v3.086a4.279,4.279,0,0,0,4.483,4.03h.09a4.279,4.279,0,0,0,4.483-4.03v-3.621a.592.592,0,0,1,.32-.425,1.3,1.3,0,0,1,.207-.108,1.561,1.561,0,0,1,.25-.078,23.167,23.167,0,0,0,3.267-.987,20.064,20.064,0,0,0,2.884-1.384q.6-.348,1.148-.731t1.062-.8q.254-.207.5-.423a15.047,15.047,0,0,0,1.351-1.358c.276-.316.537-.641.78-.975q.183-.251.352-.507a12.892,12.892,0,0,0,.9-1.6q.261-.549.467-1.119a12.376,12.376,0,0,0,.732-4.216,12.93,12.93,0,0,0-5.854-10.993q-.573-.414-1.182-.794-.3-.19-.617-.373-.622-.365-1.275-.7c-.216-.112-.435-.221-.656-.329-.661-.321-1.338-.623-2.025-.908q-.342-.144-.689-.28-.691-.274-1.39-.53t-1.4-.493q-1.08-.375-2.021-.724-.628-.232-1.2-.457-.855-.336-1.585-.656t-1.343-.63c-.273-.138-.529-.274-.768-.41-2.133-1.208-2.992-2.362-3.092-3.82-.007-.1-.012-.2-.012-.3,0-2.024,1.733-4.353,6.468-4.732.437-.035.889-.06,1.378-.06a24.041,24.041,0,0,1,8.133,1.349c.14.05.282.094.425.131.049.012.1.02.146.031.094.022.189.044.284.06.058.009.117.014.175.022.086.011.171.023.257.03.062.005.124.005.186.008s.148.007.222.007h.012a4.841,4.841,0,0,0,.579-.039c.045-.005.088-.012.132-.019a4.971,4.971,0,0,0,.5-.1l.08-.019a4.732,4.732,0,0,0,.538-.184c.041-.016.082-.034.123-.052a4.854,4.854,0,0,0,.462-.231l.053-.029a4.431,4.431,0,0,0,.459-.315c.036-.028.07-.056.1-.084a4.141,4.141,0,0,0,.388-.36l.024-.024a4.005,4.005,0,0,0,.344-.435c.026-.037.05-.074.075-.112a3.82,3.82,0,0,0,.274-.494l.265-.586a3.664,3.664,0,0,0,.038-2.968,3.962,3.962,0,0,0-.419-.743,4.181,4.181,0,0,0-.575-.646,4.537,4.537,0,0,0-1.53-.915,27.476,27.476,0,0,0-3.473-.986A32.363,32.363,0,0,0,204.97,104.614Z"/>
    </g>
    <ellipse id="Ellipse_214" data-name="Ellipse 214" class="cls-1" cx="56.496" cy="13.188" rx="56.496" ry="13.188" transform="translate(95.788 45.506)"/>
  </g>
</svg>
