<svg xmlns="http://www.w3.org/2000/svg" width="150.021" height="134.837" viewBox="0 0 150.021 134.837">
  <defs>
    <style>
      .cls-1, .cls-2 {
        fill: #414042;
      }

      .cls-1 {
        fill-rule: evenodd;
      }
    </style>
  </defs>
  <g id="Group_3341" data-name="Group 3341" transform="translate(-99.99 -38.372)">
    <path id="Path_11016" data-name="Path 11016" class="cls-1" d="M244.719,108.867a1.261,1.261,0,0,1-.338-1.163,15.3,15.3,0,0,0-.2-9.907c-1.71-4.577-4.854-8.019-10.518-8.8a62.708,62.708,0,0,0-8.19-.155c-1.955-.009-3.912-.009-5.918-.008l0,.091c-3.494-.019-7.372-.04-8.632-.063-8.153-.149,1.171-10.357-.353-36.02-.874-14.695-14.368-19.3-18.735-8.639a70.721,70.721,0,0,0-2.881,9.316c-3.442,13.466-10.251,27.8-21.872,35.618a30.112,30.112,0,0,1-15.208,5.13h-.525a2.807,2.807,0,0,0-2.8,2.8v63.855a2.806,2.806,0,0,0,2.8,2.8h.532c19.209,2,19,9.266,40.31,9.443q9.99.084,19.981.035c3.75-.007,7.5-.026,11.248.015,5.041.056,8.755-1.922,11.3-5.661a14.8,14.8,0,0,0,1.978-12.835c-.172-.623-.206-1,.546-1.357a13.244,13.244,0,0,0,7.237-8.69,15.2,15.2,0,0,0-.216-9.237C254.965,127.223,248.065,110.818,244.719,108.867Z"/>
    <path id="Rectangle_9655" data-name="Rectangle 9655" class="cls-2" d="M5.246,0H38.485a5.246,5.246,0,0,1,5.246,5.246V68.532a5.247,5.247,0,0,1-5.247,5.247H5.247A5.247,5.247,0,0,1,0,68.532V5.246A5.246,5.246,0,0,1,5.246,0Z" transform="translate(99.99 92.101)"/>
  </g>
</svg>
