<svg xmlns="http://www.w3.org/2000/svg" width="130.474" height="163.078" viewBox="0 0 130.474 163.078">
  <defs>
    <style>
      .cls-1 {
        fill: #414042;
      }
    </style>
  </defs>
  <g id="Group_3339" data-name="Group 3339" transform="translate(-109.763 -33.461)">
    <path id="Path_11014" data-name="Path 11014" class="cls-1" d="M236.335,50.882c-37.871-23.127-79.375-23.254-122.275-.223l-4.3,2.3V101.1a102.212,102.212,0,0,0,62.026,94.059L175,196.539l3.214-1.378A102.207,102.207,0,0,0,240.237,101.1V53.272ZM223.927,101.1A85.913,85.913,0,0,1,175,178.716,85.917,85.917,0,0,1,126.073,101.1V62.8c34.713-17.3,67.218-17.416,97.854-.288Z"/>
    <path id="Path_11015" data-name="Path 11015" class="cls-1" d="M153.894,99.8l-11.579,11.484,24.843,25.054,40.5-40.408L196.138,84.378l-28.916,28.861Z"/>
  </g>
</svg>
