<svg xmlns="http://www.w3.org/2000/svg" width="335.062" height="145.593" viewBox="0 0 335.062 145.593">
  <defs>
    <style>
      .cls-1 {
        fill: #f2f2f2;
      }

      .cls-2 {
        fill: #484848;
      }
    </style>
  </defs>
  <g id="Group_3392" data-name="Group 3392" transform="translate(-26.283 -95.775)">
    <rect id="Rectangle_9648" data-name="Rectangle 9648" class="cls-1" width="133.242" height="74.823" transform="translate(115.895 130.355)"/>
    <g id="グループ化_3172" data-name="グループ化 3172" transform="translate(26.283 95.775)">
      <path id="パス_10565" data-name="パス 10565" class="cls-2" d="M360.5,206.955a68.253,68.253,0,0,0,.84-12.089c.027-12.416-5.223-22.558-12.741-30.239-7.525-7.723-17.253-13.245-26.854-17.3a158.771,158.771,0,0,0-37.065-10.14c-6.667-5.558-51.567-40.623-124.736-40.644-38.995,0-60.923,1.939-73.3,3.931-12.372,2.028-15.195,3.919-16.243,4.722l-.369.337c-.041.043-5.515,5.913-12.188,14.155-6.672,8.258-14.55,18.806-19.467,28.561l-.268.668a34.051,34.051,0,0,0-.851,4.577c-.248,1.783-.469,3.779-.658,5.666-.213,2.062-.382,3.969-.49,5.3a24.1,24.1,0,0,0-4.228,4.472,30.089,30.089,0,0,0-5.608,18.182,45.942,45.942,0,0,0,1.362,12.119,20.85,20.85,0,0,0,4.874,8.973l.025.026a3.863,3.863,0,0,0,5.5.1,3.961,3.961,0,0,0,.1-5.561,12.976,12.976,0,0,1-3-5.655,37.67,37.67,0,0,1-1.071-10c.023-9.45,4.336-14.228,6.558-16.231a10.136,10.136,0,0,1,1.219-.941l0-.013a3.981,3.981,0,0,0,1.884-3.067c0-.007.14-1.821.368-4.277s.534-5.557.869-8c.176-1.313.385-2.471.523-3.07,3.88-7.626,10.105-16.375,15.9-23.732,5.88-7.466,11.3-13.546,13.4-15.851.238-.262.394-.431.537-.592a14.739,14.739,0,0,1,1.488-.6,67.569,67.569,0,0,1,11.06-2.5c11.732-1.883,33.337-3.829,72.07-3.825,73.961-.025,118.094,37.354,120.443,39.388l.09.085a3.9,3.9,0,0,0,2.125.958l.42.054c.289.034.727.093,1.3.186,1.141.171,2.807.43,4.881.823a160.372,160.372,0,0,1,16.279,3.954c12.756,3.8,27.929,10.324,37.565,20.279,6.433,6.674,10.48,14.567,10.507,24.729a54.65,54.65,0,0,1-.9,11.588c-.635,2.713-1.469,4.14-2.554,5.154a8.609,8.609,0,0,1-3.159,1.738,33.271,33.271,0,0,1-8.279,1.3h0a3.937,3.937,0,0,0,.479,7.858,37.1,37.1,0,0,0,11.352-2.1,14.734,14.734,0,0,0,7.669-6.576A22.186,22.186,0,0,0,360.5,206.955Z" transform="translate(-26.283 -96.542)"/>
      <path id="パス_10566" data-name="パス 10566" class="cls-2" d="M105.446,213.417a28.712,28.712,0,1,0-28.707,28.717A28.711,28.711,0,0,0,105.446,213.417ZM91.478,198.681a20.854,20.854,0,1,1-29.491-.01,20.741,20.741,0,0,1,29.491.01Z" transform="translate(-26.283 -96.542)"/>
      <path id="パス_10567" data-name="パス 10567" class="cls-2" d="M300.93,184.71h0a28.712,28.712,0,1,0,28.718,28.707A28.713,28.713,0,0,0,300.926,184.71Zm-20.843,28.707a20.844,20.844,0,1,1,20.842,20.847,20.771,20.771,0,0,1-20.842-20.847Z" transform="translate(-29.817 -96.542)"/>
      <path id="パス_10568" data-name="パス 10568" class="cls-2" d="M115.372,213.521a3.933,3.933,0,0,0,0,7.866H261.306a3.933,3.933,0,1,0-.021-7.866Z" transform="translate(-27.912 -96.542)"/>
    </g>
    <g id="Group_3330" data-name="Group 3330" transform="translate(129.955 142.451)">
      <path id="Path_10995" data-name="Path 10995" class="cls-2" d="M160.043,189.763a1.782,1.782,0,0,1-1.67-2.394l12.811-34.9a1.78,1.78,0,0,1,3.341,0l12.809,34.9a1.779,1.779,0,1,1-3.34,1.227l-11.14-30.346L161.714,188.6A1.782,1.782,0,0,1,160.043,189.763Z" transform="translate(-131.541 -143.239)"/>
      <path id="Path_10996" data-name="Path 10996" class="cls-2" d="M164.68,177.129h16.347a1.78,1.78,0,0,0,0-3.56H164.68a1.78,1.78,0,1,0,0,3.56Z" transform="translate(-131.541 -143.239)"/>
      <path id="Path_10997" data-name="Path 10997" class="cls-2" d="M200.819,189.763h-6.074a1.778,1.778,0,0,1-1.779-1.781v-34.9a1.778,1.778,0,0,1,1.779-1.779h6.074A13,13,0,0,1,213.8,164.288v12.493A13,13,0,0,1,200.819,189.763Zm-4.295-3.56h4.295a9.433,9.433,0,0,0,9.424-9.422V164.288a9.433,9.433,0,0,0-9.424-9.423h-4.295Z" transform="translate(-131.541 -143.239)"/>
      <path id="Path_10998" data-name="Path 10998" class="cls-2" d="M234.845,154.931a1.779,1.779,0,0,0,1.78-1.779v-8.133a1.779,1.779,0,0,0-1.78-1.78h-8.134a1.78,1.78,0,0,0,0,3.56h6.354v6.353A1.779,1.779,0,0,0,234.845,154.931Z" transform="translate(-131.541 -143.239)"/>
      <path id="Path_10999" data-name="Path 10999" class="cls-2" d="M133.32,154.931a1.779,1.779,0,0,0,1.781-1.779V146.8h6.354a1.78,1.78,0,0,0,0-3.56H133.32a1.779,1.779,0,0,0-1.779,1.78v8.133A1.778,1.778,0,0,0,133.32,154.931Z" transform="translate(-131.541 -143.239)"/>
      <path id="Path_11000" data-name="Path 11000" class="cls-2" d="M133.32,197.831h8.135a1.78,1.78,0,1,0,0-3.56H135.1v-6.352a1.78,1.78,0,0,0-3.56,0v8.133A1.778,1.778,0,0,0,133.32,197.831Z" transform="translate(-131.541 -143.239)"/>
      <path id="Path_11001" data-name="Path 11001" class="cls-2" d="M226.711,197.831h8.134a1.779,1.779,0,0,0,1.78-1.779v-8.133a1.78,1.78,0,0,0-3.56,0v6.352h-6.354a1.78,1.78,0,1,0,0,3.56Z" transform="translate(-131.541 -143.239)"/>
    </g>
  </g>
</svg>
