<svg xmlns="http://www.w3.org/2000/svg" width="1649.434" height="1952.135" viewBox="0 0 1649.434 1952.135">
  <defs>
    <style>
      .cls-1 {
        fill: #83c024;
      }
    </style>
  </defs>
  <path id="Path_10600" data-name="Path 10600" class="cls-1" d="M1561.04,1510.238,776.034,1044.431a45.907,45.907,0,0,1-22.117-39.588l.539-928.913A45.913,45.913,0,0,1,776.48,36.449l781.581-466.275a42.523,42.523,0,0,1,43.769,0L2381.322,35.258a45.913,45.913,0,0,1,22.029,39.532l-.485,931.095a45.919,45.919,0,0,1-21.965,39.451l-776.126,464.81A42.53,42.53,0,0,1,1561.04,1510.238Z" transform="translate(-753.917 435.89)"/>
</svg>
