<svg xmlns="http://www.w3.org/2000/svg" width="242.847" height="245.789" viewBox="0 0 242.847 245.789">
  <defs>
    <style>
      .cls-1 {
        fill: #454545;
      }
    </style>
  </defs>
  <g id="Group_3325" data-name="Group 3325" transform="translate(0 0)">
    <g id="Group_3322" data-name="Group 3322">
      <path id="Path_10986" data-name="Path 10986" class="cls-1" d="M97.585,211.037a5.143,5.143,0,0,1-3.643-1.507l-10.809-10.8a15.6,15.6,0,0,1-.01-22.023L203.847,55.864a15.525,15.525,0,0,1,13.843-4.31l78.7,14.523a15.6,15.6,0,0,1,12.55,12.849l12.293,76.791a15.6,15.6,0,0,1-4.362,13.469L276.575,209.52a5.15,5.15,0,1,1-7.286-7.281L309.58,161.9a5.291,5.291,0,0,0,1.475-4.556L298.761,80.559a5.277,5.277,0,0,0-4.247-4.348l-78.7-14.522a5.276,5.276,0,0,0-4.685,1.456L90.414,183.993a5.28,5.28,0,0,0,0,7.45l10.809,10.8a5.153,5.153,0,0,1-3.643,8.8Z" transform="translate(-78.576 -51.292)"/>
    </g>
    <g id="Group_3323" data-name="Group 3323" transform="translate(166.002 36.944)">
      <path id="Path_10987" data-name="Path 10987" class="cls-1" d="M265.495,129.833a21,21,0,0,1-17.265-9.015c-4.806-6.985-5.807-18.126,2.807-27.266a14.228,14.228,0,0,1,4.952-3.41c11.589-4.785,21.658.126,26.469,7.113s5.807,18.123-2.808,27.264a14.319,14.319,0,0,1-4.947,3.406v0A24.116,24.116,0,0,1,265.495,129.833Zm-.242-31.3a13.99,13.99,0,0,0-5.344,1.14,4.025,4.025,0,0,0-1.369.941c-4.987,5.294-4.212,10.889-1.821,14.359s7.331,6.2,14.059,3.424a4.066,4.066,0,0,0,1.369-.941c4.987-5.293,4.212-10.887,1.821-14.359A10.458,10.458,0,0,0,265.253,98.533Z" transform="translate(-244.578 -88.236)"/>
    </g>
    <g id="Group_3324" data-name="Group 3324" transform="translate(39.649 95.955)">
      <path id="Path_10988" data-name="Path 10988" class="cls-1" d="M185.349,298.708a5.155,5.155,0,0,1-3.643-1.507l-61.97-61.907a5.154,5.154,0,0,1,3.643-8.8l33.569,0V154.027a5.152,5.152,0,0,1,5.153-5.153h46.375a5.152,5.152,0,0,1,5.153,5.153v72.466l33.569,0a5.151,5.151,0,0,1,3.643,8.793L188.992,297.2a5.127,5.127,0,0,1-3.638,1.512ZM135.829,236.8l49.515,49.468,49.42-49.473-26.288,0a5.154,5.154,0,0,1-5.152-5.153V159.18h-36.07v72.466A5.152,5.152,0,0,1,162.1,236.8Z" transform="translate(-118.225 -148.874)"/>
    </g>
  </g>
</svg>
