<?xml version="1.0" encoding="utf-8"?>
<!-- Generator: Adobe Illustrator 17.1.0, SVG Export Plug-In . SVG Version: 6.00 Build 0)  -->
<!DOCTYPE svg PUBLIC "-//W3C//DTD SVG 1.1//EN" "http://www.w3.org/Graphics/SVG/1.1/DTD/svg11.dtd">
<svg version="1.1" id="Layer_1" xmlns="http://www.w3.org/2000/svg" xmlns:xlink="http://www.w3.org/1999/xlink" x="0px" y="0px"
	 viewBox="0 0 20 16.231" enable-background="new 0 0 20 16.231" xml:space="preserve">
<path fill="#B2E8FF" d="M17.59,8.195c-0.614,0.843-1.542,1.461-2.536,1.461c-1.026,0-1.922-0.661-2.542-1.546
	c-0.388,0.135-0.813,0.331-1.13,0.58C12.415,9.657,13,11.021,13,12.544v2.027c2,0.412,4.733,0.046,6.702-1.136L20,13.406v-1.86
	C20,10.044,18.886,8.756,17.59,8.195z"/>
<path fill="#B2E8FF" d="M14.951,8.656c1.472,0,2.666-2.527,2.666-3.999s-1.194-2.666-2.666-2.666s-2.666,1.194-2.666,2.666
	S13.479,8.656,14.951,8.656z"/>
<path fill="#B2E8FF" d="M12,12.544c0-1.937-1.253-3.56-3.019-4.093C8.288,9.222,7.459,9.75,6.478,9.75
	c-1.024,0-2.149-0.571-2.857-1.398C1.69,8.772,0,10.49,0,12.544V14.7c4,2.063,9,2.019,12,0.001V12.544z"/>
<path fill="#B2E8FF" d="M6.5,8.75c1.933,0,3.5-3.317,3.5-5.25C10,1.567,8.433,0,6.5,0S3,1.567,3,3.5C3,5.433,4.567,8.75,6.5,8.75z"
	/>
</svg>
