<?xml version="1.0" encoding="utf-8"?>
<!-- Generator: Adobe Illustrator 17.1.0, SVG Export Plug-In . SVG Version: 6.00 Build 0)  -->
<!DOCTYPE svg PUBLIC "-//W3C//DTD SVG 1.1//EN" "http://www.w3.org/Graphics/SVG/1.1/DTD/svg11.dtd">
<svg version="1.1" id="Layer_1" xmlns="http://www.w3.org/2000/svg" xmlns:xlink="http://www.w3.org/1999/xlink" x="0px" y="0px"
	 viewBox="0 0 15 15" enable-background="new 0 0 15 15" xml:space="preserve">
<path fill="#7C91A6" d="M13,1v2.5C13,4.327,12.327,5,11.5,5H11h-0.5C9.673,5,9,4.327,9,3.5V1H6v2.5C6,4.327,5.327,5,4.5,5H4H3.5
	C2.673,5,2,4.327,2,3.5V1H0v14h15V1H13z M13,13H2V7h11V13z"/>
<path fill="#7C91A6" d="M3.5,4h1C4.776,4,5,3.776,5,3.5V1c0-0.552-0.448-1-1-1H3.5C3.224,0,3,0.224,3,0.5v3C3,3.776,3.224,4,3.5,4z"
	/>
<path fill="#7C91A6" d="M10.5,4h1C11.775,4,12,3.776,12,3.5V1c0-0.552-0.448-1-1-1h-0.5C10.225,0,10,0.224,10,0.5v3
	C10,3.776,10.225,4,10.5,4z"/>
</svg>
