<?xml version="1.0" encoding="utf-8"?>
<!-- Generator: Adobe Illustrator 17.1.0, SVG Export Plug-In . SVG Version: 6.00 Build 0)  -->
<!DOCTYPE svg PUBLIC "-//W3C//DTD SVG 1.1//EN" "http://www.w3.org/Graphics/SVG/1.1/DTD/svg11.dtd">
<svg version="1.1" id="Layer_1" xmlns="http://www.w3.org/2000/svg" xmlns:xlink="http://www.w3.org/1999/xlink" x="0px" y="0px"
	 viewBox="0 0 21 5" enable-background="new 0 0 21 5" xml:space="preserve">
<g>
	<g>
		<path fill-rule="evenodd" clip-rule="evenodd" fill="#FFFFFF" d="M2.5,0C1.119,0,0,1.119,0,2.5S1.119,5,2.5,5
			C3.881,5,5,3.881,5,2.5S3.881,0,2.5,0z M10.5,0C9.119,0,8,1.119,8,2.5S9.119,5,10.5,5C11.881,5,13,3.881,13,2.5S11.881,0,10.5,0z
			 M18.5,0C17.119,0,16,1.119,16,2.5S17.119,5,18.5,5C19.881,5,21,3.881,21,2.5S19.881,0,18.5,0z"/>
	</g>
</g>
</svg>
