<svg xmlns="http://www.w3.org/2000/svg" viewBox="0 0 14.085 14.08">
  <path id="user_20_4_" data-name="user%20(4)" d="M12.023,2.114A7.043,7.043,0,0,0,.418,9.484.287.287,0,0,0,.957,9.29a6.47,6.47,0,1,1,10.775,2.258l-.041.044c-.024.026-.048.052-.074.077a6.477,6.477,0,0,1-9.15,0l-.039-.041c0-.026,0-.053,0-.078q0-.087,0-.172c0-.019,0-.038,0-.057,0-.038,0-.076.006-.114,0-.023,0-.045.006-.067s.006-.068.01-.1.006-.048.009-.072.008-.065.013-.1.008-.049.012-.073.01-.063.016-.094.01-.049.015-.073.012-.061.019-.091.012-.049.017-.074.014-.06.022-.089.013-.049.02-.073.016-.059.025-.088.015-.049.023-.073.018-.057.028-.086L2.7,9.982c.01-.028.02-.057.031-.085l.028-.071.034-.083.03-.07.037-.081.033-.069.04-.08.035-.067L3.011,9.3l.037-.066.046-.077.04-.064.049-.075.042-.063.052-.074.044-.061.054-.072.046-.059.057-.071.047-.057.06-.069.049-.055L3.7,8.368l.051-.053.066-.065L3.866,8.2l.069-.064.053-.048.073-.062.054-.045.077-.061.054-.042.083-.061.053-.038.093-.063.046-.031c.041-.027.082-.052.124-.077l.019-.012q.073-.043.147-.084l.052-.027.1-.052L5.028,7.4l.082-.039a2.79,2.79,0,0,0,3.864,0A4.668,4.668,0,0,1,11.27,9.694a.287.287,0,1,0,.525-.231A5.168,5.168,0,0,0,9.357,6.907,2.8,2.8,0,0,0,7.042,2.535a.287.287,0,1,0,0,.573A2.224,2.224,0,0,1,8.695,6.824h0a2.218,2.218,0,0,1-3.3,0h0a2.221,2.221,0,0,1,.086-3.071.287.287,0,0,0-.4-.408,2.794,2.794,0,0,0-.346,3.561l-.008,0-.066.034L4.551,7l-.07.04-.093.054-.071.044-.088.055-.071.047-.085.057L4,7.343,3.921,7.4l-.068.052-.078.062-.067.055-.075.064-.064.057L3.5,7.76l-.062.059-.071.07-.06.06-.069.073-.057.062-.067.077-.053.062L2.991,8.3l-.049.061-.068.09-.042.057c-.028.039-.056.079-.083.119l-.022.031q-.051.076-.1.153L2.6,8.868c-.021.034-.041.069-.061.1L2.5,9.038c-.017.032-.035.063-.052.095L2.411,9.2c-.016.031-.031.061-.046.093l-.035.075c-.014.031-.028.061-.042.092l-.033.077c-.013.031-.026.062-.038.093l-.03.079c-.012.031-.023.063-.035.094l-.028.08q-.016.047-.031.1l-.025.082q-.014.048-.028.1t-.022.082c-.008.033-.016.066-.024.1s-.013.055-.019.083-.014.067-.021.1-.011.055-.016.083-.012.069-.017.1-.009.054-.013.082-.01.071-.014.107-.007.053-.01.08-.007.075-.011.113,0,.05-.007.076c0,.042-.005.085-.007.127,0,.021,0,.042,0,.063q0,.1,0,.192c0,.069,0,.135.005.207a.293.293,0,0,0,.006.049v0a.283.283,0,0,0,.014.045l0,0A.285.285,0,0,0,1.9,11.9l0,0a.292.292,0,0,0,.028.036l0,0,.038.04c.029.031.057.061.087.091a7.051,7.051,0,0,0,9.96,0c.03-.03.058-.06.087-.091l.038-.04a7.042,7.042,0,0,0-.125-9.829Z" transform="translate(0 -0.054)" fill="#66bb6a"/>
</svg>
