<svg xmlns="http://www.w3.org/2000/svg" viewBox="0 0 10.817 14.425">
  <g id="file" transform="translate(0)">
    <g id="Group_202" data-name="Group 202" transform="translate(0)">
      <g id="Group_201" data-name="Group 201">
        <path id="Path_109" data-name="Path 109" d="M74.856,2.92a.337.337,0,0,0-.1-.235L72.172.1h0a.336.336,0,0,0-.239-.1H64.751a.712.712,0,0,0-.711.711v13a.712.712,0,0,0,.711.711h9.395a.712.712,0,0,0,.711-.711V2.923A.027.027,0,0,0,74.856,2.92ZM72.271,1.153,73.7,2.585h-1.4a.036.036,0,0,1-.036-.036Zm1.91,12.561a.036.036,0,0,1-.036.036H64.751a.036.036,0,0,1-.036-.036v-13a.036.036,0,0,1,.036-.036H71.6V2.55a.712.712,0,0,0,.711.711h1.874V13.714Z" transform="translate(-64.04)" fill="#ffa726"/>
      </g>
    </g>
    <g id="Group_204" data-name="Group 204" transform="translate(2.082 4.621)">
      <g id="Group_203" data-name="Group 203" transform="translate(0)">
        <path id="Path_110" data-name="Path 110" d="M144.24,164.014h-5.978a.338.338,0,1,0,0,.676h5.978a.338.338,0,0,0,0-.676Z" transform="translate(-137.924 -164.014)" fill="#ffa726"/>
      </g>
    </g>
    <g id="Group_206" data-name="Group 206" transform="translate(2.082 6.659)">
      <g id="Group_205" data-name="Group 205" transform="translate(0)">
        <path id="Path_111" data-name="Path 111" d="M144.24,236.353h-5.978a.338.338,0,1,0,0,.676h5.978a.338.338,0,0,0,0-.676Z" transform="translate(-137.924 -236.353)" fill="#ffa726"/>
      </g>
    </g>
    <g id="Group_208" data-name="Group 208" transform="translate(2.082 8.697)">
      <g id="Group_207" data-name="Group 207" transform="translate(0)">
        <path id="Path_112" data-name="Path 112" d="M144.24,308.691h-5.978a.338.338,0,1,0,0,.676h5.978a.338.338,0,0,0,0-.676Z" transform="translate(-137.924 -308.691)" fill="#ffa726"/>
      </g>
    </g>
    <g id="Group_210" data-name="Group 210" transform="translate(2.082 10.735)">
      <g id="Group_209" data-name="Group 209" transform="translate(0)">
        <path id="Path_113" data-name="Path 113" d="M141.251,381.031h-2.989a.338.338,0,1,0,0,.676h2.989a.338.338,0,0,0,0-.676Z" transform="translate(-137.924 -381.031)" fill="#ffa726"/>
      </g>
    </g>
  </g>
</svg>
