<svg xmlns="http://www.w3.org/2000/svg" viewBox="0 0 11.533 12.639">
  <g id="list_20_4_" data-name="list%20(4)" transform="translate(0)">
    <g id="Group_200" data-name="Group 200" transform="translate(0)">
      <g id="Group_199" data-name="Group 199">
        <path id="Path_98" data-name="Path 98" d="M24.53,0H14.393a.694.694,0,0,0-.7.688V11.951a.694.694,0,0,0,.7.688H24.53a.694.694,0,0,0,.7-.688V.688A.694.694,0,0,0,24.53,0Zm.233,11.951a.231.231,0,0,1-.233.229H14.393a.231.231,0,0,1-.233-.229V2.735h10.6Zm0-9.675H14.16V.688a.231.231,0,0,1,.233-.229H24.53a.231.231,0,0,1,.233.229Z" transform="translate(-13.695)" fill="#26a69a"/>
        <path id="Path_99" data-name="Path 99" d="M124.946,134h4.613a.251.251,0,0,0,0-.5h-4.613a.251.251,0,0,0,0,.5Z" transform="translate(-120.032 -127.389)" fill="#26a69a"/>
        <path id="Path_100" data-name="Path 100" d="M124.946,225h4.613a.251.251,0,0,0,0-.5h-4.613a.251.251,0,0,0,0,.5Z" transform="translate(-120.032 -214.408)" fill="#26a69a"/>
        <path id="Path_101" data-name="Path 101" d="M53.86,93.091a.251.251,0,0,0,.388-.078l1.078-2.156a.251.251,0,1,0-.448-.224L53.943,92.5l-.834-.718a.251.251,0,1,0-.327.38Z" transform="translate(-50.919 -86.432)" fill="#26a69a"/>
        <path id="Path_102" data-name="Path 102" d="M53.86,184.091a.251.251,0,0,0,.388-.078l1.078-2.156a.251.251,0,1,0-.448-.224l-.934,1.869-.834-.718a.251.251,0,0,0-.327.38Z" transform="translate(-50.919 -173.563)" fill="#26a69a"/>
      </g>
    </g>
  </g>
</svg>
