<svg xmlns="http://www.w3.org/2000/svg" viewBox="0 0 12.511 12.508">
  <g id="pie-chart_20_1_" data-name="pie-chart%20(1)" transform="translate(0 0)">
    <path id="Path_103" data-name="Path 103" d="M6.255,12.512a6.251,6.251,0,1,1,4.423-1.829A6.236,6.236,0,0,1,6.255,12.512Zm0-12.129A5.877,5.877,0,1,0,10.411,2.1,5.837,5.837,0,0,0,6.255.383Z" transform="translate(0 -0.004)" fill="#29b6f6"/>
    <path id="Path_104" data-name="Path 104" d="M20.479,10.738a.19.19,0,0,1-.134-.055l-4.289-4.29A.191.191,0,0,1,16,6.259V.194a.19.19,0,1,1,.379,0V6.181l4.234,4.234a.19.19,0,0,1-.134.324Z" transform="translate(-9.934 -0.004)" fill="#29b6f6"/>
    <path id="Path_105" data-name="Path 105" d="M16.189,9.361a.189.189,0,0,1-.134-.323l4.288-4.288a.19.19,0,0,1,.268.268L16.323,9.305A.188.188,0,0,1,16.189,9.361Z" transform="translate(-9.934 -2.916)" fill="#29b6f6"/>
    <path id="Path_106" data-name="Path 106" d="M20.189,13.981a.189.189,0,0,1-.134-.323l3.909-3.909a.19.19,0,1,1,.268.268l-3.909,3.909A.189.189,0,0,1,20.189,13.981Z" transform="translate(-12.417 -6.02)" fill="#29b6f6"/>
    <path id="Path_107" data-name="Path 107" d="M24.244,19.553a.189.189,0,0,1-.134-.323l2.983-2.983a.19.19,0,0,1,.268.268L24.378,19.5A.187.187,0,0,1,24.244,19.553Z" transform="translate(-14.935 -10.054)" fill="#29b6f6"/>
    <path id="Path_108" data-name="Path 108" d="M16.189,4.333a.189.189,0,0,1-.134-.323l2.481-2.481A.19.19,0,0,1,18.8,1.8L16.323,4.277A.189.189,0,0,1,16.189,4.333Z" transform="translate(-9.934 -0.916)" fill="#29b6f6"/>
  </g>
</svg>
