<svg xmlns="http://www.w3.org/2000/svg" viewBox="0 0 12.759 11.165">
  <g id="folder_20_1_" data-name="folder%20(1)" transform="translate(0)">
    <g id="Group_198" data-name="Group 198" transform="translate(0 0)">
      <path id="Path_88" data-name="Path 88" d="M11.748,31.483H5.469V30.378a.88.88,0,0,0-.878-.878H.324A.325.325,0,0,0,0,29.824V39.9a.763.763,0,0,0,.762.762H12a.763.763,0,0,0,.762-.762V32.494A1.011,1.011,0,0,0,11.748,31.483ZM12.11,39.9a.114.114,0,0,1-.113.113H.762A.114.114,0,0,1,.648,39.9V30.148H4.591a.229.229,0,0,1,.23.23v1.429a.325.325,0,0,0,.324.324h6.606a.362.362,0,0,1,.362.362V39.9Z" transform="translate(0 -29.5)" fill="#ef5350"/>
      <path id="Path_89" data-name="Path 89" d="M45.171,205.1a.371.371,0,1,0,.371.371A.372.372,0,0,0,45.171,205.1Z" transform="translate(-43.413 -200.398)" fill="#ef5350"/>
      <path id="Path_90" data-name="Path 90" d="M224.471,205.1a.371.371,0,1,0,.371.371A.372.372,0,0,0,224.471,205.1Z" transform="translate(-218.092 -200.398)" fill="#ef5350"/>
      <path id="Path_91" data-name="Path 91" d="M179.671,205.1a.371.371,0,1,0,.371.371A.372.372,0,0,0,179.671,205.1Z" transform="translate(-174.493 -200.398)" fill="#ef5350"/>
      <path id="Path_92" data-name="Path 92" d="M89.971,205.1a.371.371,0,1,0,.371.371A.372.372,0,0,0,89.971,205.1Z" transform="translate(-87.198 -200.398)" fill="#ef5350"/>
      <path id="Path_93" data-name="Path 93" d="M134.771,205.1a.371.371,0,1,0,.371.371A.372.372,0,0,0,134.771,205.1Z" transform="translate(-130.797 -200.398)" fill="#ef5350"/>
      <path id="Path_94" data-name="Path 94" d="M358.971,205.1a.371.371,0,1,0,.371.371A.372.372,0,0,0,358.971,205.1Z" transform="translate(-348.986 -200.398)" fill="#ef5350"/>
      <path id="Path_95" data-name="Path 95" d="M403.771,205.1a.371.371,0,1,0,.371.371A.373.373,0,0,0,403.771,205.1Z" transform="translate(-392.771 -200.398)" fill="#ef5350"/>
      <path id="Path_96" data-name="Path 96" d="M269.271,205.1a.371.371,0,1,0,.371.371A.372.372,0,0,0,269.271,205.1Z" transform="translate(-261.691 -200.398)" fill="#ef5350"/>
      <path id="Path_97" data-name="Path 97" d="M314.071,205.1a.371.371,0,1,0,.371.371A.372.372,0,0,0,314.071,205.1Z" transform="translate(-305.29 -200.398)" fill="#ef5350"/>
    </g>
  </g>
</svg>
