<svg viewBox="0 0 104 64" xmlns="http://www.w3.org/2000/svg">
	<polygon fill="#ffc500" points="104 44.9 104 64 53.16 64 82.17 45.7 82.2 45.69 83.22 45.03 83.22 44.9 104 44.9"/>
	<polygon fill="#ffe200" points="84.05 45.16 104 45.16 104 64 94.63 64 84.05 45.16"/>
	<polygon fill="#ffd100" points="64.71 0 24.47 62.22 24.46 62.23 23.31 64 23.17 64.22 23.14 64 23.05 63.25 20.51 43.12 15.07 0 64.71 0"/>
	<polygon fill="#ff9e00" points="83.87 45.16 53.79 64 47.3 64 49.85 55.84 67.36 0 71.96 0 83.8 44.9 83.87 45.16"/>
	<polygon fill="#ffd100" points="104 45.16 84.05 45.16 83.87 45.16 84.09 44.9 104 21.39 104 44.9 104 45.16"/>
	<polygon fill="#ffaf00" points="71.96 0 104 0 104 21.39 84.09 44.9 83.87 45.16 83.8 44.9 71.96 0"/>
	<polygon fill="#ffaf00" points="23.14 64 22.02 64 23.05 63.25 24.46 62.23 24.47 62.22 31.26 57.28 35.16 60.46 39.5 64 23.87 64 23.17 64.22 23.14 64"/>
	<polygon fill="#ffc500" points="67.36 0 49.85 55.84 47.3 64 23.87 64 23.17 64.22 23.14 64 0.34 64 20.5 43.13 20.51 43.12 62.16 0 67.36 0"/>
</svg>
