<svg xmlns="http://www.w3.org/2000/svg" xmlns:xlink="http://www.w3.org/1999/xlink" width="85.785" height="52.83" viewBox="0 0 85.785 52.83">
  <defs>
    <linearGradient id="linear-gradient" y1="0.5" x2="0.922" y2="0.5" gradientUnits="objectBoundingBox">
      <stop offset="0.216" stop-color="#fff"/>
      <stop offset="0.987" stop-color="#fff" stop-opacity="0"/>
    </linearGradient>
    <linearGradient id="linear-gradient-2" x1="-0.001" y1="0.496" x2="1.001" y2="0.496" xlink:href="#linear-gradient"/>
    <linearGradient id="linear-gradient-3" x1="0.5" y1="0.168" x2="0.5" y2="1.163" gradientUnits="objectBoundingBox">
      <stop offset="0" stop-color="#57219f"/>
      <stop offset="0.232" stop-color="#532194"/>
      <stop offset="0.639" stop-color="#482176"/>
      <stop offset="1" stop-color="#3c2157"/>
    </linearGradient>
  </defs>
  <g id="Group_10264" data-name="Group 10264" transform="translate(-699.9 -254.234)">
    <g id="Group_4916" data-name="Group 4916" transform="translate(699.9 266.817)">
      <g id="Group_4913" data-name="Group 4913" transform="translate(8.715 0)">
        <path id="Path_8258" data-name="Path 8258" d="M37.842,50.817H4.186A4.191,4.191,0,0,1,0,46.631V21.586A4.191,4.191,0,0,1,4.186,17.4h33.68a4.191,4.191,0,0,1,4.186,4.186V46.655A4.206,4.206,0,0,1,37.842,50.817Z" transform="translate(0 -17.4)" fill="#ff574b"/>
        <g id="Group_4908" data-name="Group 4908" transform="translate(5.478 9.401)">
          <g id="Group_4906" data-name="Group 4906" transform="translate(0 7.559)">
            <path id="Path_8259" data-name="Path 8259" d="M52.848,93.8H24.024A1.123,1.123,0,0,1,22.9,92.677V89.424A1.123,1.123,0,0,1,24.024,88.3H52.872A1.123,1.123,0,0,1,54,89.424v3.253A1.159,1.159,0,0,1,52.848,93.8Z" transform="translate(-22.9 -88.3)" fill="#fff"/>
            <g id="Group_4905" data-name="Group 4905" transform="translate(2.033 2.057)">
              <ellipse id="Ellipse_1512" data-name="Ellipse 1512" cx="0.742" cy="0.742" rx="0.742" ry="0.742" fill="#fff"/>
              <ellipse id="Ellipse_1513" data-name="Ellipse 1513" cx="0.742" cy="0.742" rx="0.742" ry="0.742" transform="translate(2.823)" fill="#fff"/>
              <ellipse id="Ellipse_1514" data-name="Ellipse 1514" cx="0.742" cy="0.742" rx="0.742" ry="0.742" transform="translate(5.645)" fill="#fff"/>
              <ellipse id="Ellipse_1515" data-name="Ellipse 1515" cx="0.742" cy="0.742" rx="0.742" ry="0.742" transform="translate(8.468)" fill="#fff"/>
              <ellipse id="Ellipse_1516" data-name="Ellipse 1516" cx="0.742" cy="0.742" rx="0.742" ry="0.742" transform="translate(11.29)" fill="#fff"/>
              <ellipse id="Ellipse_1517" data-name="Ellipse 1517" cx="0.742" cy="0.742" rx="0.742" ry="0.742" transform="translate(14.113)" fill="#fff"/>
              <ellipse id="Ellipse_1518" data-name="Ellipse 1518" cx="0.742" cy="0.742" rx="0.742" ry="0.742" transform="translate(16.935)" fill="#fff"/>
              <ellipse id="Ellipse_1519" data-name="Ellipse 1519" cx="0.742" cy="0.742" rx="0.742" ry="0.742" transform="translate(19.758)" fill="#fff"/>
              <path id="Path_8260" data-name="Path 8260" d="M125.8,97.642a.742.742,0,1,1,.742.742A.73.73,0,0,1,125.8,97.642Z" transform="translate(-103.219 -96.9)" fill="#fff"/>
              <path id="Path_8261" data-name="Path 8261" d="M137.6,97.642a.742.742,0,1,1,.742.742A.73.73,0,0,1,137.6,97.642Z" transform="translate(-112.197 -96.9)" fill="#fff"/>
            </g>
          </g>
          <g id="Group_4907" data-name="Group 4907">
            <path id="Path_8262" data-name="Path 8262" d="M52.848,62.178H24.024A1.123,1.123,0,0,1,22.9,61.053V57.824A1.123,1.123,0,0,1,24.024,56.7H52.872A1.123,1.123,0,0,1,54,57.824v3.253A1.156,1.156,0,0,1,52.848,62.178Z" transform="translate(-22.9 -56.7)" fill="#fff"/>
            <path id="Path_8263" data-name="Path 8263" d="M57.31,65.879H30.854a.454.454,0,0,1-.454-.454v-.67a.454.454,0,0,1,.454-.454H57.286a.454.454,0,0,1,.454.454v.67A.45.45,0,0,1,57.31,65.879Z" transform="translate(-28.606 -62.482)" fill="#fff"/>
          </g>
        </g>
        <g id="Group_4909" data-name="Group 4909" transform="translate(11.099 25.021)">
          <path id="Path_8264" data-name="Path 8264" d="M64.675,127.262H47.524a1.123,1.123,0,0,1-1.124-1.124v-3.014A1.123,1.123,0,0,1,47.524,122H64.675a1.123,1.123,0,0,1,1.124,1.124v3.014A1.123,1.123,0,0,1,64.675,127.262Z" transform="translate(-46.4 -122)" fill="#021c70"/>
          <text id="SIGN_UP" data-name="SIGN UP" transform="translate(3.892 2.804)" fill="#fff" font-size="2" font-family="Montserrat-Bold, Montserrat" font-weight="700"><tspan x="0" y="0">SIGN UP</tspan></text>
        </g>
        <path id="Path_8265" data-name="Path 8265" d="M42.028,23.548V21.586A4.191,4.191,0,0,0,37.842,17.4H4.186A4.175,4.175,0,0,0,0,21.586v1.961Z" transform="translate(0 -17.4)" fill="#021c70"/>
        <path id="Path_8266" data-name="Path 8266" d="M22.538,21.4H7.229A3.231,3.231,0,0,0,4,24.629v1H18.3Z" transform="translate(-3.043 -20.443)" opacity="0.68" fill="url(#linear-gradient)"/>
        <g id="Group_4912" data-name="Group 4912" transform="translate(2.894 2.009)">
          <g id="Group_4910" data-name="Group 4910" transform="translate(0 0.526)">
            <path id="Path_8267" data-name="Path 8267" d="M12.1,28.742a.742.742,0,1,1,.742.742A.745.745,0,0,1,12.1,28.742Z" transform="translate(-12.1 -28)" fill="#fff"/>
            <path id="Path_8268" data-name="Path 8268" d="M23.9,28.742a.742.742,0,1,1,.742.742A.745.745,0,0,1,23.9,28.742Z" transform="translate(-21.077 -28)" fill="#fff"/>
            <path id="Path_8269" data-name="Path 8269" d="M35.7,28.742a.742.742,0,1,1,.742.742A.745.745,0,0,1,35.7,28.742Z" transform="translate(-30.055 -28)" fill="#fff"/>
          </g>
          <g id="Group_4911" data-name="Group 4911" transform="translate(30.761)">
            <rect id="Rectangle_4383" data-name="Rectangle 4383" width="4.377" height="0.526" fill="#fff"/>
            <rect id="Rectangle_4384" data-name="Rectangle 4384" width="4.377" height="0.526" transform="translate(0 1.268)" fill="#fff"/>
            <rect id="Rectangle_4385" data-name="Rectangle 4385" width="4.377" height="0.526" transform="translate(0 2.536)" fill="#fff"/>
          </g>
        </g>
      </g>
      <g id="Group_4915" data-name="Group 4915" transform="translate(0 10.457)">
        <ellipse id="Ellipse_1520" data-name="Ellipse 1520" cx="5.968" cy="5.968" rx="5.968" ry="5.968" fill="#fc0"/>
        <g id="Group_4914" data-name="Group 4914" transform="translate(3.278 2.766)">
          <path id="Path_8270" data-name="Path 8270" d="M77.7,16.768h5.609a2.539,2.539,0,0,0-1.946-2.177,2,2,0,1,0-1.742,0A2.545,2.545,0,0,0,77.7,16.768Z" transform="translate(-77.7 -10.8)" fill="#fff"/>
        </g>
      </g>
    </g>
    <g id="Group_4929" data-name="Group 4929" transform="translate(755.771 254.234)">
      <g id="Group_4923" data-name="Group 4923" transform="translate(0 10.259)">
        <path id="Path_8271" data-name="Path 8271" d="M19.086,75.811H4.506A4.5,4.5,0,0,1,0,71.3v-28.1A4.5,4.5,0,0,1,4.506,38.7H19.086a4.5,4.5,0,0,1,4.506,4.506V71.3A4.5,4.5,0,0,1,19.086,75.811Z" transform="translate(0 -38.7)" fill="#fc0"/>
        <g id="Group_4917" data-name="Group 4917" transform="translate(0 0.027)">
          <path id="Path_8272" data-name="Path 8272" d="M23.592,44.049v-.742A4.5,4.5,0,0,0,19.086,38.8H4.506A4.5,4.5,0,0,0,0,43.306v.742Z" transform="translate(0 -38.8)" fill="#ff4a62"/>
          <path id="Path_8273" data-name="Path 8273" d="M4.1,45.928A3.452,3.452,0,0,1,7.52,42.8H22.1a3.414,3.414,0,0,1,3.42,3.128Z" transform="translate(-3.013 -41.74)" opacity="0.68" fill="url(#linear-gradient-2)"/>
        </g>
        <g id="Group_4918" data-name="Group 4918" transform="translate(2.121 8.324)">
          <rect id="Rectangle_4386" data-name="Rectangle 4386" width="18.953" height="3.313" fill="#fff"/>
          <rect id="Rectangle_4387" data-name="Rectangle 4387" width="1.193" height="16.832" transform="translate(17.883 1.05) rotate(90)" fill="#fff"/>
        </g>
        <g id="Group_4919" data-name="Group 4919" transform="translate(2.121 14.023)">
          <rect id="Rectangle_4388" data-name="Rectangle 4388" width="18.953" height="3.313" fill="#fff"/>
          <rect id="Rectangle_4389" data-name="Rectangle 4389" width="1.193" height="16.832" transform="translate(17.883 1.05) rotate(90)" fill="#fff"/>
        </g>
        <g id="Group_4920" data-name="Group 4920" transform="translate(2.121 19.722)">
          <rect id="Rectangle_4390" data-name="Rectangle 4390" width="18.953" height="3.313" fill="#fff"/>
          <rect id="Rectangle_4391" data-name="Rectangle 4391" width="1.193" height="16.832" transform="translate(17.883 1.05) rotate(90)" fill="#fff"/>
        </g>
        <g id="Group_4921" data-name="Group 4921" transform="translate(2.147 25.66)">
          <path id="Path_8274" data-name="Path 8274" d="M25.7,140.51H9.16a1.063,1.063,0,0,1-1.06-1.06V136.56a1.063,1.063,0,0,1,1.06-1.06H25.7a1.063,1.063,0,0,1,1.06,1.06v2.889A1.063,1.063,0,0,1,25.7,140.51Z" transform="translate(-8.1 -135.5)" fill="#ff4a62"/>
          <text id="REGISTER" transform="translate(2.562 3.003)" fill="#fff" font-size="2" font-family="Montserrat-Bold, Montserrat" font-weight="700"><tspan x="0" y="0">REGISTER</tspan></text>
        </g>
        <g id="Group_4922" data-name="Group 4922" transform="translate(7.82 32.843)">
          <path id="Path_8275" data-name="Path 8275" d="M29.5,163.369a.769.769,0,1,1,.769.769A.769.769,0,0,1,29.5,163.369Z" transform="translate(-29.5 -162.6)" fill="#fff"/>
          <path id="Path_8276" data-name="Path 8276" d="M40.7,163.369a.769.769,0,1,1,.769.769A.753.753,0,0,1,40.7,163.369Z" transform="translate(-37.731 -162.6)" fill="#fff"/>
          <path id="Path_8277" data-name="Path 8277" d="M51.9,163.369a.769.769,0,1,1,.769.769A.753.753,0,0,1,51.9,163.369Z" transform="translate(-45.962 -162.6)" fill="#fff"/>
        </g>
      </g>
      <g id="Group_4925" data-name="Group 4925" transform="translate(4.665)">
        <path id="Path_8278" data-name="Path 8278" d="M25.208,15.216a7.608,7.608,0,1,1,7.608-7.608A7.625,7.625,0,0,1,25.208,15.216Z" transform="translate(-17.6)" fill="#fff" opacity="0.27"/>
        <path id="Path_8279" data-name="Path 8279" d="M28.147,17.095a6.547,6.547,0,1,1,6.547-6.547A6.562,6.562,0,0,1,28.147,17.095Z" transform="translate(-20.54 -2.94)" fill="#fff"/>
        <ellipse id="Ellipse_1521" data-name="Ellipse 1521" cx="5.487" cy="5.487" rx="5.487" ry="5.487" transform="translate(2.121 2.121)" fill="url(#linear-gradient-3)"/>
        <g id="Group_4924" data-name="Group 4924" transform="translate(5.143 4.665)">
          <path id="Path_8280" data-name="Path 8280" d="M37,23.087h5.143a2.379,2.379,0,0,0-1.776-2.015,1.829,1.829,0,1,0-1.59,0A2.379,2.379,0,0,0,37,23.087Z" transform="translate(-37 -17.6)" fill="#fff"/>
        </g>
      </g>
      <g id="Group_4928" data-name="Group 4928" transform="translate(17.919 40.849)">
        <g id="Group_4927" data-name="Group 4927" transform="translate(3.632 3.658)">
          <g id="Group_4926" data-name="Group 4926">
            <path id="Path_8281" data-name="Path 8281" d="M89.544,174.527,87.317,172.3l1.59-.9a.386.386,0,0,0,.186-.345.371.371,0,0,0-.239-.318l-7.051-2.81a.365.365,0,0,0-.477.477l2.81,7.025a.422.422,0,0,0,.318.239.386.386,0,0,0,.345-.186l.9-1.59,2.227,2.227a.384.384,0,0,0,.53,0l1.087-1.087a.325.325,0,0,0,0-.5Zm0,0" transform="translate(-81.3 -167.9)" fill="#2c1840"/>
          </g>
        </g>
        <path id="Path_8282" data-name="Path 8282" d="M73.177,159.014a.469.469,0,0,0-.663.663l1.06,1.06a.5.5,0,0,0,.345.133.558.558,0,0,0,.345-.133.464.464,0,0,0,0-.663Zm0,0" transform="translate(-71.109 -157.609)" fill="#ff4a62"/>
        <path id="Path_8283" data-name="Path 8283" d="M70.039,170.377a.475.475,0,0,0-.477-.477H68.077a.477.477,0,0,0,0,.954h1.484a.475.475,0,0,0,.477-.477Zm0,0" transform="translate(-67.6 -165.712)" fill="#ff4a62"/>
        <path id="Path_8284" data-name="Path 8284" d="M73.437,177.477a.469.469,0,0,0-.663-.663h0l-1.06,1.06a.464.464,0,0,0,0,.663.5.5,0,0,0,.345.133.558.558,0,0,0,.345-.133m.371-1.723" transform="translate(-70.521 -170.691)" fill="#ff4a62"/>
        <path id="Path_8285" data-name="Path 8285" d="M83.877,156.539a.475.475,0,0,0,.477-.477v-1.484a.477.477,0,0,0-.954,0v1.484a.493.493,0,0,0,.477.477Zm0,0" transform="translate(-79.212 -154.1)" fill="#ff4a62"/>
        <path id="Path_8286" data-name="Path 8286" d="M90.732,160.07a.558.558,0,0,0,.345-.133l1.06-1.06a.469.469,0,0,0-.663-.663l-1.06,1.06a.464.464,0,0,0,0,.663.439.439,0,0,0,.318.133Zm0,0" transform="translate(-84.264 -157.021)" fill="#ff4a62"/>
      </g>
    </g>
  </g>
</svg>
