<?xml version="1.0" encoding="utf-8"?>
<!-- Generator: Adobe Illustrator 23.0.0, SVG Export Plug-In . SVG Version: 6.00 Build 0)  -->
<svg version="1.1" id="Layer_1" xmlns="http://www.w3.org/2000/svg" xmlns:xlink="http://www.w3.org/1999/xlink" x="0px" y="0px"
	 viewBox="0 0 34.2 32.8" style="enable-background:new 0 0 34.2 32.8;" xml:space="preserve">
<style type="text/css">
	.st0{fill:#FFFFFF;}
	.st1{fill:#98B9CC;}
</style>
<circle id="Ellipse_1497" class="st0" cx="15.7" cy="15.8" r="15.7"/>
<path id="Path_7964" class="st0" d="M16.2,0.5c-0.8,0.1-1.5,0.2-2.3,0.4c-0.1,0-0.2,0-0.3-0.2c0-0.1,0.1-0.2,0.2-0.3c0,0,0,0,0,0
	c0.8-0.2,1.5-0.3,2.3-0.4c0.1,0,0.2,0,0.3,0.2c0,0,0,0,0,0C16.5,0.4,16.4,0.5,16.2,0.5z"/>
<path id="Path_7965" class="st0" d="M20.7,0.7c-0.4-0.1-0.8-0.1-1.1-0.1c-0.4,0-0.8-0.1-1.1-0.1c-0.1,0-0.2-0.1-0.2-0.2
	c0-0.1,0.1-0.2,0.2-0.2c0.4,0,0.8,0.1,1.2,0.1c0.4,0,0.8,0.1,1.2,0.2c0.1,0,0.2,0.1,0.2,0.3c0,0,0,0,0,0C20.9,0.6,20.8,0.7,20.7,0.7
	L20.7,0.7z"/>
<path id="Path_7966" class="st0" d="M24.8,2.1c-0.3-0.2-0.7-0.3-1-0.5c-0.3-0.2-0.7-0.3-1.1-0.4c-0.1,0-0.2-0.1-0.2-0.3c0,0,0,0,0,0
	c0.1-0.1,0.2-0.2,0.3-0.1C23.2,0.9,23.6,1,24,1.2c0.4,0.1,0.7,0.3,1.1,0.5c0.1,0.1,0.2,0.2,0.1,0.3C25.1,2.1,25,2.1,24.8,2.1
	C24.8,2.1,24.8,2.1,24.8,2.1L24.8,2.1z"/>
<path id="Path_7967" class="st0" d="M28.5,4.5c-0.3-0.3-0.6-0.5-0.9-0.7c-0.3-0.2-0.6-0.5-0.9-0.7c-0.1-0.1-0.1-0.3,0-0.3
	c0.1-0.1,0.2-0.1,0.3,0c0.3,0.2,0.6,0.4,0.9,0.7c0.3,0.2,0.6,0.5,0.9,0.7c0.1,0.1,0.1,0.2,0,0.3C28.7,4.6,28.6,4.6,28.5,4.5z"/>
<path id="Path_7968" class="st0" d="M31.4,7.9c-0.4-0.6-0.9-1.3-1.4-1.8c-0.1-0.1-0.1-0.2,0-0.3c0.1-0.1,0.3-0.1,0.3,0
	c0.5,0.6,1,1.2,1.4,1.9c0.1,0.1,0,0.3-0.1,0.3C31.6,8.1,31.4,8,31.4,7.9C31.4,7.9,31.4,7.9,31.4,7.9L31.4,7.9z"/>
<path id="Path_7969" class="st0" d="M33.2,12l-0.3-1.1c-0.1-0.4-0.3-0.7-0.4-1.1c-0.1-0.1,0-0.2,0.1-0.3c0.1,0,0.3,0,0.3,0.1
	c0.2,0.4,0.3,0.7,0.5,1.1l0.4,1.1c0,0.1,0,0.3-0.1,0.3C33.3,12.2,33.2,12.1,33.2,12z"/>
<path id="Path_7970" class="st0" d="M33.8,16.4c0-0.8-0.1-1.5-0.2-2.3c0-0.1,0.1-0.2,0.2-0.3c0.1,0,0.2,0.1,0.2,0.2c0,0,0,0,0,0
	c0.1,0.8,0.2,1.6,0.2,2.3c0,0.1,0,0.2-0.2,0.3C33.9,16.6,33.8,16.6,33.8,16.4C33.8,16.4,33.8,16.4,33.8,16.4z"/>
<path id="Path_7971" class="st0" d="M33.2,20.7c0.1-0.4,0.2-0.7,0.3-1.1c0.1-0.4,0.2-0.7,0.2-1.1c0-0.1,0.1-0.2,0.2-0.2c0,0,0,0,0,0
	c0.1,0,0.2,0.1,0.2,0.3c0,0.4-0.1,0.8-0.2,1.2c-0.1,0.4-0.1,0.8-0.3,1.1c0,0.1-0.1,0.2-0.3,0.2c0,0,0,0,0,0l0,0
	C33.2,21,33.1,20.9,33.2,20.7z"/>
<path id="Path_7972" class="st0" d="M31.4,24.8c0.2-0.3,0.4-0.7,0.6-1c0.2-0.3,0.4-0.7,0.5-1c0-0.1,0.2-0.2,0.3-0.2s0.2,0.2,0.2,0.3
	c0,0,0,0,0,0.1c-0.1,0.4-0.3,0.7-0.5,1.1c-0.2,0.4-0.4,0.7-0.6,1c0,0.1-0.2,0.2-0.3,0.1C31.4,25.1,31.3,25,31.4,24.8
	C31.4,24.9,31.4,24.8,31.4,24.8L31.4,24.8z"/>
<path id="Path_7973" class="st0" d="M28.6,28.2c0.3-0.2,0.5-0.5,0.8-0.8c0.3-0.3,0.5-0.6,0.8-0.9c0.1-0.1,0.2-0.1,0.3-0.1
	c0.1,0.1,0.1,0.2,0,0.3c0,0,0,0,0,0c-0.2,0.3-0.5,0.6-0.8,0.9c-0.3,0.3-0.5,0.6-0.8,0.8c-0.1,0.1-0.2,0.1-0.3,0
	C28.5,28.5,28.5,28.4,28.6,28.2C28.6,28.3,28.6,28.2,28.6,28.2L28.6,28.2z"/>
<path id="Path_7974" class="st0" d="M25,30.7c0.7-0.4,1.3-0.7,2-1.2c0.1-0.1,0.2-0.1,0.3,0c0.1,0.1,0.1,0.2,0,0.3c0,0,0,0,0,0
	c-0.6,0.4-1.3,0.9-2,1.2c-0.1,0.1-0.2,0-0.3-0.1c0,0,0,0,0,0C24.8,30.9,24.8,30.8,25,30.7z"/>
<path id="Path_7975" class="st0" d="M20.8,32.1l1.1-0.2l1.1-0.4c0.1-0.1,0.2,0,0.3,0.1s0,0.2-0.1,0.3c0,0,0,0-0.1,0L22,32.3
	l-1.1,0.2c-0.1,0-0.2,0-0.3-0.2c0,0,0,0,0,0C20.5,32.3,20.6,32.1,20.8,32.1z"/>
<path id="Path_7976" class="st0" d="M16.3,32.3c0.8,0.1,1.5,0.1,2.3,0.1c0.1,0,0.2,0,0.3,0.2c0,0.1,0,0.2-0.2,0.3c0,0-0.1,0-0.1,0
	c-0.8,0-1.6,0-2.4-0.1c-0.1,0-0.2-0.1-0.2-0.2c0,0,0,0,0,0C16.1,32.4,16.2,32.3,16.3,32.3C16.3,32.3,16.3,32.3,16.3,32.3L16.3,32.3z
	"/>
<path id="Path_7977" class="st0" d="M12,31.3c0.4,0.2,0.7,0.3,1.1,0.4c0.4,0.1,0.7,0.2,1.1,0.3c0.1,0,0.2,0.1,0.2,0.2
	c0,0.1-0.1,0.2-0.2,0.2c0,0,0,0-0.1,0c-0.4-0.1-0.8-0.2-1.1-0.3c-0.4-0.1-0.8-0.2-1.1-0.4c-0.1,0-0.2-0.1-0.2-0.2
	C11.7,31.3,11.8,31.3,12,31.3C12,31.3,12,31.3,12,31.3L12,31.3z"/>
<path id="Path_7978" class="st0" d="M8.2,29.2c0.3,0.2,0.6,0.5,0.9,0.7c0.3,0.2,0.6,0.4,1,0.6c0.1,0,0.2,0.2,0.1,0.3c0,0,0,0,0,0
	c-0.1,0.1-0.2,0.2-0.3,0.1c0,0,0,0,0,0c-0.3-0.2-0.7-0.4-1-0.6c-0.3-0.2-0.7-0.4-1-0.7c-0.1-0.1-0.1-0.2,0-0.3c0,0,0,0,0,0
	C7.9,29.1,8.1,29.1,8.2,29.2z"/>
<path id="Path_7979" class="st0" d="M5,26c0.2,0.3,0.5,0.6,0.7,0.9c0.2,0.3,0.5,0.6,0.8,0.8c0.1,0.1,0.1,0.2,0,0.3c0,0,0,0,0,0
	c-0.1,0.1-0.2,0.1-0.3,0c-0.3-0.3-0.6-0.6-0.8-0.9c-0.2-0.3-0.5-0.6-0.8-0.9c-0.1-0.1-0.1-0.2,0-0.3C4.7,25.9,4.9,25.9,5,26
	C5,26,5,26,5,26L5,26z"/>
<path id="Path_7980" class="st0" d="M2.9,22.2c0.3,0.7,0.6,1.4,1,2.1c0.1,0.1,0,0.2-0.1,0.3c-0.1,0.1-0.3,0-0.3-0.1
	c-0.4-0.7-0.7-1.4-1-2.1c-0.1-0.1,0-0.3,0.1-0.3C2.7,22,2.8,22.1,2.9,22.2L2.9,22.2z"/>
<path id="Path_7981" class="st0" d="M1.9,17.9c0,0.4,0.1,0.8,0.1,1.1l0.2,1.1c0,0.1,0,0.3-0.2,0.3c-0.1,0-0.2-0.1-0.3-0.2
	c0,0,0,0,0,0L1.6,19c-0.1-0.4-0.1-0.8-0.1-1.2c0-0.1,0.1-0.2,0.2-0.3c0,0,0,0,0,0C1.8,17.6,1.9,17.7,1.9,17.9
	C1.9,17.8,1.9,17.9,1.9,17.9L1.9,17.9z"/>
<path id="Path_7982" class="st0" d="M2.1,13.4c-0.1,0.8-0.2,1.5-0.3,2.3c0,0.1-0.1,0.2-0.2,0.2c0,0,0,0,0,0c-0.1,0-0.2-0.1-0.2-0.3
	c0-0.8,0.1-1.6,0.3-2.3c0-0.1,0.1-0.2,0.3-0.2C2.1,13.2,2.1,13.3,2.1,13.4C2.1,13.4,2.1,13.4,2.1,13.4L2.1,13.4z"/>
<path id="Path_7983" class="st0" d="M3.5,9.2c-0.2,0.3-0.3,0.7-0.5,1c-0.2,0.3-0.3,0.7-0.4,1.1c0,0.1-0.1,0.2-0.3,0.2c0,0,0,0,0,0
	c-0.1-0.1-0.2-0.2-0.1-0.3c0.1-0.4,0.3-0.7,0.4-1.1C2.8,9.8,3,9.4,3.1,9.1c0.1-0.1,0.2-0.2,0.3-0.1C3.5,9,3.6,9.1,3.5,9.2L3.5,9.2z"
	/>
<path id="Path_7984" class="st0" d="M6,5.6C5.8,5.9,5.5,6.2,5.3,6.5C5,6.8,4.8,7.1,4.6,7.4C4.6,7.6,4.4,7.6,4.3,7.5
	c-0.1-0.1-0.1-0.2,0-0.3c0.2-0.4,0.4-0.7,0.7-1c0.2-0.3,0.5-0.6,0.8-0.9C5.8,5.2,6,5.2,6,5.3l0,0C6.1,5.3,6.2,5.5,6,5.6
	C6.1,5.6,6,5.6,6,5.6L6,5.6z"/>
<path id="Path_7985" class="st0" d="M9.4,2.8C9.1,3,8.8,3.2,8.5,3.4C8.2,3.6,7.9,3.9,7.6,4.1c-0.1,0.1-0.2,0.1-0.3,0
	c-0.1-0.1-0.1-0.2,0-0.3c0,0,0,0,0,0c0.3-0.3,0.6-0.5,0.9-0.7c0.3-0.2,0.6-0.5,1-0.7c0.1-0.1,0.3,0,0.3,0.1C9.6,2.6,9.5,2.7,9.4,2.8
	z"/>
<path id="Path_7986" class="st0" d="M13.5,1c-0.7,0.2-1.5,0.5-2.2,0.8c-0.1,0.1-0.3,0-0.3-0.1c0-0.1,0-0.3,0.1-0.3c0,0,0,0,0,0
	c0.7-0.3,1.5-0.6,2.2-0.8c0.1,0,0.2,0,0.3,0.1C13.7,0.9,13.6,1,13.5,1L13.5,1z"/>
<g>
	<g>
		<path class="st1" d="M18.3,18.7h-5v-1.1c0.8-1.6,2-3.4,4.3-6.7h1.8v6.7h1.4v1.1h-1.4v2.1h-1.2V18.7z M14.6,17.6h3.7v-5.7h0
			C16.4,14.5,15.4,16.2,14.6,17.6L14.6,17.6z"/>
	</g>
</g>
</svg>
