<svg xmlns="http://www.w3.org/2000/svg" width="4.577" height="11.006" viewBox="0 0 4.577 11.006">
  <g id="family-group" transform="translate(-24.753)">
    <g id="Group_4669" data-name="Group 4669" transform="translate(24.753 0)">
      <circle id="Ellipse_1493" data-name="Ellipse 1493" cx="1.128" cy="1.128" r="1.128" transform="translate(1.283 0)" fill="#010002"/>
      <path id="Path_7909" data-name="Path 7909" d="M27.769,104.461a1.308,1.308,0,0,0-.325-.128l-.281.283-.272-.286h0a2.929,2.929,0,0,0-.48.212c-.866.531-1.247,1.315-1.645,3.13a.435.435,0,0,0,.143.424.482.482,0,0,0,.5.043.4.4,0,0,0,.077-.046.436.436,0,0,0,.138-.233,14.172,14.172,0,0,1,.39-1.445V107.8a.966.966,0,0,0,.081.387l0,4.31a.517.517,0,0,0,1.035,0v-3.7H27.2v3.7a.518.518,0,0,0,1.035,0V108.19a.888.888,0,0,0,.088-.386V106.42a2.141,2.141,0,0,1,.116,1.25.438.438,0,0,0,.392.479l.044,0a.438.438,0,0,0,.435-.394A3.139,3.139,0,0,0,27.769,104.461Z" transform="translate(-24.753 -102.012)" fill="#010002"/>
    </g>
  </g>
</svg>
