<svg xmlns="http://www.w3.org/2000/svg" width="6.582" height="9.395" viewBox="0 0 6.582 9.395">
  <g id="baby-with-diaper" transform="translate(-11.908)">
    <path id="Path_7923" data-name="Path 7923" d="M16.565,5.95s.9.9.9.9a.793.793,0,0,1-.059,1.072L16.153,9.228a.467.467,0,1,1-.661-.654l.795-.8-.778-.772L16.565,5.95Zm-2.793,0h0s-.9.9-.9.9a.793.793,0,0,0,.054,1.072l1.258,1.305a.467.467,0,1,0,.661-.654l-.793-.8.772-.772L13.772,5.95M15.2,2.606a1.3,1.3,0,1,0-1.3-1.3A1.3,1.3,0,0,0,15.2,2.606Zm1.412,2.823.019-.889,1.083,1.01a.453.453,0,0,0,.314.124.461.461,0,0,0,.315-.8S17.1,3.527,16.923,3.37a2.291,2.291,0,0,0-1.6-.459h-.247a2.3,2.3,0,0,0-1.6.458c-.178.157-1.42,1.507-1.42,1.507a.461.461,0,0,0,.315.8.455.455,0,0,0,.315-.124l1.083-1.01.019.889h2.826Z" transform="translate(0)" fill="#010002"/>
  </g>
</svg>
