<svg xmlns="http://www.w3.org/2000/svg" width="5.748" height="11.637" viewBox="0 0 5.748 11.637">
  <g id="basketball" transform="translate(0 -9.131)">
    <g id="Group_4673" data-name="Group 4673" transform="translate(1.924 11.874)">
      <g id="Group_4672" data-name="Group 4672">
        <circle id="Ellipse_1494" data-name="Ellipse 1494" cx="0.882" cy="0.882" r="0.882"/>
      </g>
    </g>
    <g id="Group_4675" data-name="Group 4675" transform="translate(0 11.3)">
      <g id="Group_4674" data-name="Group 4674">
        <path id="Path_7912" data-name="Path 7912" d="M5.677,101.741a.357.357,0,0,0-.572-.425l-1.841,2.475H2.312l-1.68-2.045a.357.357,0,1,0-.551.453l1.778,2.163v2.367L.839,110.087a.428.428,0,0,0,.819.249l.95-3.128h.331l.308,3.047a.428.428,0,0,0,.851-.086c-.371-3.67-.346-3.424-.352-3.456v-2.376Z" transform="translate(0 -101.172)"/>
      </g>
    </g>
    <g id="Group_4677" data-name="Group 4677" transform="translate(2.741 9.131)">
      <g id="Group_4676" data-name="Group 4676">
        <circle id="Ellipse_1495" data-name="Ellipse 1495" cx="1.005" cy="1.005" r="1.005"/>
      </g>
    </g>
  </g>
</svg>
