<svg xmlns="http://www.w3.org/2000/svg" width="30" height="30" viewBox="0 0 30 30">
  <g id="Group_10244" data-name="Group 10244" transform="translate(-1516 -120)">
    <rect id="Base" width="30" height="30" transform="translate(1516 120)" fill="none"/>
    <g id="car-compact" transform="translate(1524 90.63)">
      <path id="Path_10262" data-name="Path 10262" d="M0,45.006a1.89,1.89,0,0,1,.18-.8c.012-.063.026-.126.043-.19l1.252-3.1.008-.028c.438-1.3,1.062-2.512,2.643-2.512h6.045c1.62,0,2.192,1.237,2.64,2.505l1.31,3.111a1.915,1.915,0,0,1,.3,1.02v.966a1.878,1.878,0,0,1-.051.436.759.759,0,0,1,.051.273v2.873a.763.763,0,0,1-.763.763H12.073a.763.763,0,0,1-.762-.763V48.117H3.018v1.436a.763.763,0,0,1-.763.763H.763A.763.763,0,0,1,0,49.553V46.681a.764.764,0,0,1,.051-.273A1.886,1.886,0,0,1,0,45.972v-.966H0Zm11.881-3.819c-.5-1.407-.9-1.836-1.711-1.836H4.126c-.805,0-1.253.479-1.709,1.83L1.5,43.033a2.8,2.8,0,0,1,.972-.172h9.467a2.81,2.81,0,0,1,.881.14ZM11.1,46.339h1.67a.545.545,0,0,0,0-1.089H11.1a.545.545,0,0,0,0,1.089Zm-5.9-.109H9.082a.345.345,0,0,0,0-.69H5.2a.345.345,0,1,0,0,.69Zm-3.5.109h1.67a.545.545,0,0,0,0-1.089H1.694a.545.545,0,1,0,0,1.089Z" transform="translate(0)" fill="#aaa"/>
    </g>
  </g>
</svg>
