<svg xmlns="http://www.w3.org/2000/svg" width="14.201" height="14.201" viewBox="0 0 14.201 14.201">
  <g id="clock" transform="translate(1.043 1.043)">
    <path id="Path_1878" data-name="Path 1878" d="M13.961,20.046A5.8,5.8,0,0,1,8.4,14.484v-.523A5.8,5.8,0,0,1,13.961,8.4h.523a5.8,5.8,0,0,1,5.561,5.561v.523a5.8,5.8,0,0,1-5.561,5.561h-.523Z" transform="translate(-8.165 -8.165)" fill="#ffa757"/>
    <g id="Group_937" data-name="Group 937" transform="translate(-1.042 -1.042)">
      <path id="Path_1879" data-name="Path 1879" d="M7.1,0a7.1,7.1,0,1,0,7.1,7.1h0A7.109,7.109,0,0,0,7.1,0Zm5.23,7.4h1.249A6.488,6.488,0,0,1,7.4,13.576V12.327a.3.3,0,1,0-.609,0v1.249A6.488,6.488,0,0,1,.624,7.4H1.873a.3.3,0,0,0,0-.609H.624A6.488,6.488,0,0,1,6.8.624V1.873a.3.3,0,0,0,.609,0V.624A6.488,6.488,0,0,1,13.576,6.8H12.327a.3.3,0,1,0,0,.609Z" fill="#3f342b"/>
      <path id="Path_1880" data-name="Path 1880" d="M179.089,97.858V94.785a.3.3,0,1,0-.609,0v3.2a.3.3,0,0,0,.088.213l2.994,3.046a.3.3,0,0,0,.436-.426h0Z" transform="translate(-171.684 -90.883)" fill="#3f342b"/>
    </g>
  </g>
</svg>
