<svg xmlns="http://www.w3.org/2000/svg" width="20.589" height="20.589" viewBox="0 0 20.589 20.589">
  <g id="wall-clock" transform="translate(0 0)">
    <g id="Group_4645" data-name="Group 4645">
      <g id="Group_4644" data-name="Group 4644">
        <path id="Path_7901" data-name="Path 7901" d="M10.294,0A10.294,10.294,0,1,0,20.589,10.294,10.306,10.306,0,0,0,10.294,0Zm4.329,17.17-.444-.763a.288.288,0,0,0-.249-.143.282.282,0,0,0-.143.039.287.287,0,0,0-.1.392l.444.764a8.069,8.069,0,0,1-3.292.944V17.326a.542.542,0,0,0-1.084,0V18.4A8.067,8.067,0,0,1,6.5,17.482l.439-.767a.287.287,0,0,0-.248-.429.288.288,0,0,0-.249.144l-.439.766a8.193,8.193,0,0,1-2.462-2.379l.931-.538a.542.542,0,1,0-.542-.938L3,13.88a8.069,8.069,0,0,1-.828-3.273l.885,0a.287.287,0,0,0,0-.574l-.886,0A8.072,8.072,0,0,1,3,6.71l.933.538a.542.542,0,0,0,.542-.938l-.931-.538A8.191,8.191,0,0,1,5.965,3.42l.444.763a.283.283,0,0,0,.1.1.29.29,0,0,0,.287,0,.287.287,0,0,0,.1-.392L6.461,3.13a8.068,8.068,0,0,1,3.292-.944V3.264a.542.542,0,0,0,1.084,0V2.186a8.067,8.067,0,0,1,3.248.921l-.439.767a.287.287,0,0,0,.106.391.283.283,0,0,0,.142.038.288.288,0,0,0,.249-.144l.439-.766a8.192,8.192,0,0,1,2.462,2.379l-.931.538a.542.542,0,1,0,.542.938l.933-.538a8.067,8.067,0,0,1,.828,3.273l-.885,0a.287.287,0,0,0-.286.288.286.286,0,0,0,.287.286h0l.885,0a8.072,8.072,0,0,1-.83,3.323l-.933-.538a.542.542,0,0,0-.542.938l.931.538A8.2,8.2,0,0,1,14.624,17.17Z" fill="#aaa"/>
        <path id="Path_7902" data-name="Path 7902" d="M106.453,134.281l-3.475,1.928a1.137,1.137,0,0,0-1.058,0l-3.475-1.928a.681.681,0,1,0-.66,1.19l3.546,1.967a1.14,1.14,0,0,0,2.238,0l3.546-1.967a.68.68,0,1,0-.66-1.19Z" transform="translate(-92.154 -126.924)" fill="#aaa"/>
      </g>
    </g>
  </g>
</svg>
