<svg xmlns="http://www.w3.org/2000/svg" width="68.92" height="66.128" viewBox="0 0 68.92 66.128">
  <g id="Group_10155" data-name="Group 10155" transform="translate(-797.157 -1103.8)">
    <g id="Group_4708" data-name="Group 4708" transform="translate(470 -3)">
      <g id="Asset_1" data-name="Asset 1" transform="translate(304.157 1122.799)">
        <g id="ELEMENTS" transform="translate(23 -16)">
          <circle id="Ellipse_1497" data-name="Ellipse 1497" cx="31.707" cy="31.707" r="31.707" transform="translate(0 0.407)" fill="#ff574b" opacity="0.1"/>
          <path id="Path_7964" data-name="Path 7964" d="M20.02,1.236a32.077,32.077,0,0,0-4.553.777.481.481,0,0,1-.574-.333.444.444,0,0,1,.37-.518A31.059,31.059,0,0,1,19.928.385a.444.444,0,0,1,.537.37.463.463,0,0,1-.444.481Z" transform="translate(12.667 -0.2)" fill="#ff574b"/>
          <path id="Path_7965" data-name="Path 7965" d="M24.8,1.613a15.955,15.955,0,0,0-2.3-.278c-.759,0-1.518-.167-2.3-.185A.463.463,0,0,1,19.73.724a.5.5,0,0,1,.5-.444c.8,0,1.573.13,2.351.2a14.382,14.382,0,0,1,2.351.333.463.463,0,0,1,.407.518.463.463,0,0,1-.537.278Z" transform="translate(16.789 -0.28)" fill="#ff574b"/>
          <path id="Path_7966" data-name="Path 7966" d="M29.093,3.741a21.416,21.416,0,0,0-2.036-.981,17.824,17.824,0,0,0-2.166-.8.444.444,0,0,1-.333-.555.5.5,0,0,1,.611-.278,20.157,20.157,0,0,1,2.221.833,18.51,18.51,0,0,1,2.147.944.481.481,0,0,1,.259.629.463.463,0,0,1-.7.2Z" transform="translate(20.883 0.424)" fill="#ff574b"/>
          <path id="Path_7967" data-name="Path 7967" d="M32.759,6.9a21.9,21.9,0,0,0-1.851-1.462,13.327,13.327,0,0,0-1.851-1.351.49.49,0,0,1,.648-.722,14.1,14.1,0,0,1,1.851,1.388c.592.5,1.259.944,1.851,1.5a.481.481,0,0,1,0,.666A.463.463,0,0,1,32.759,6.9Z" transform="translate(24.621 2.264)" fill="#ff574b"/>
          <path id="Path_7968" data-name="Path 7968" d="M35.45,10.953a35.389,35.389,0,0,0-2.739-3.7.463.463,0,0,1,0-.648.481.481,0,0,1,.666.093,40.221,40.221,0,0,1,2.813,3.794.5.5,0,0,1-.13.666.444.444,0,0,1-.611-.2Z" transform="translate(27.723 5.021)" fill="#ff574b"/>
          <path id="Path_7969" data-name="Path 7969" d="M36.835,15.613l-.7-2.2c-.259-.722-.592-1.407-.888-2.129a.481.481,0,0,1,.185-.629.463.463,0,0,1,.592.278c.315.722.648,1.444.925,2.184l.722,2.258a.463.463,0,0,1-.278.592A.481.481,0,0,1,36.835,15.613Z" transform="translate(29.947 8.523)" fill="#ff574b"/>
          <path id="Path_7970" data-name="Path 7970" d="M36.909,20.446a34.778,34.778,0,0,0-.315-4.59.481.481,0,0,1,.352-.555.463.463,0,0,1,.5.426,33.523,33.523,0,0,1,.333,4.72.444.444,0,1,1-.87,0Z" transform="translate(31.132 12.501)" fill="#ff574b"/>
          <path id="Path_7971" data-name="Path 7971" d="M36.121,25.122a15.827,15.827,0,0,0,.555-2.24c.13-.759.315-1.5.389-2.258a.463.463,0,0,1,.481-.444.481.481,0,0,1,.389.555,12.889,12.889,0,0,1-.426,2.332,12.568,12.568,0,0,1-.555,2.3.463.463,0,0,1-.555.352h0A.481.481,0,0,1,36.121,25.122Z" transform="translate(30.717 16.654)" fill="#ff574b"/>
          <path id="Path_7972" data-name="Path 7972" d="M34.239,29.3a19.435,19.435,0,0,0,1.129-2.018,16.456,16.456,0,0,0,1-2.073.444.444,0,1,1,.8.352,18.678,18.678,0,0,1-1.018,2.129,18.508,18.508,0,0,1-1.166,2.055.444.444,0,1,1-.74-.444Z" transform="translate(29.027 20.637)" fill="#ff574b"/>
          <path id="Path_7973" data-name="Path 7973" d="M31.229,32.636c.592-.5,1.074-1.092,1.629-1.629a15.03,15.03,0,0,0,1.518-1.74.481.481,0,0,1,.648-.111.463.463,0,0,1,0,.666,15.715,15.715,0,0,1-1.555,1.851c-.555.555-1.074,1.166-1.666,1.666a.5.5,0,0,1-.685,0,.444.444,0,0,1,.111-.7Z" transform="translate(26.372 24.225)" fill="#ff574b"/>
          <path id="Path_7974" data-name="Path 7974" d="M27.283,34.833a37.315,37.315,0,0,0,3.961-2.369.426.426,0,1,1,.481.7,34.631,34.631,0,0,1-4.054,2.443.444.444,0,0,1-.666-.241A.463.463,0,0,1,27.283,34.833Z" transform="translate(22.97 27.044)" fill="#ff574b"/>
          <path id="Path_7975" data-name="Path 7975" d="M22.752,35.789l2.258-.426,2.221-.759a.442.442,0,1,1,.278.833l-2.258.722-2.314.481a.444.444,0,0,1-.555-.333.463.463,0,0,1,.37-.518Z" transform="translate(19.042 28.902)" fill="#ff574b"/>
          <path id="Path_7976" data-name="Path 7976" d="M18.052,35.457a31.634,31.634,0,0,0,4.59.13.444.444,0,1,1,0,.87,33.781,33.781,0,0,1-4.738-.13.463.463,0,0,1-.444-.481.481.481,0,0,1,.592-.389Z" transform="translate(14.857 29.641)" fill="#ff574b"/>
          <path id="Path_7977" data-name="Path 7977" d="M13.4,34.381a15.251,15.251,0,0,0,2.184.759c.74.2,1.462.481,2.221.611a.442.442,0,1,1-.2.851c-.777-.148-1.518-.426-2.277-.629a16.03,16.03,0,0,1-2.24-.777.444.444,0,1,1,.315-.814Z" transform="translate(10.827 28.681)" fill="#ff574b"/>
          <path id="Path_7978" data-name="Path 7978" d="M9.239,32.061a14.938,14.938,0,0,0,1.851,1.314,21.434,21.434,0,0,0,1.962,1.2.444.444,0,0,1,.241.592.463.463,0,0,1-.648.167,20.582,20.582,0,0,1-2.036-1.24,19.044,19.044,0,0,1-1.943-1.333.5.5,0,0,1-.074-.7A.463.463,0,0,1,9.239,32.061Z" transform="translate(7.216 26.651)" fill="#ff574b"/>
          <path id="Path_7979" data-name="Path 7979" d="M5.89,28.715c.444.629.981,1.185,1.462,1.851A15.011,15.011,0,0,0,8.926,32.25a.444.444,0,0,1,0,.648.481.481,0,0,1-.666,0,15.7,15.7,0,0,1-1.61-1.721c-.5-.611-1.055-1.185-1.518-1.851a.481.481,0,0,1,0-.666.463.463,0,0,1,.759.056Z" transform="translate(4.253 23.723)" fill="#ff574b"/>
          <path id="Path_7980" data-name="Path 7980" d="M3.533,24.55a34.3,34.3,0,0,0,1.981,4.165.481.481,0,0,1-.13.648.481.481,0,0,1-.629-.222,36.168,36.168,0,0,1-2.036-4.276.481.481,0,0,1,.241-.629.5.5,0,0,1,.574.315Z" transform="translate(2.279 20.095)" fill="#ff574b"/>
          <path id="Path_7981" data-name="Path 7981" d="M2.463,19.94a13.4,13.4,0,0,0,.259,2.277L3.2,24.475a.5.5,0,0,1-.315.592.463.463,0,0,1-.537-.389l-.481-2.351c-.13-.777-.185-1.573-.278-2.351a.463.463,0,0,1,.389-.537.481.481,0,0,1,.481.5Z" transform="translate(1.35 16.024)" fill="#ff574b"/>
          <path id="Path_7982" data-name="Path 7982" d="M2.929,15.157a38.092,38.092,0,0,0-.537,4.572.444.444,0,0,1-.426.481.481.481,0,0,1-.426-.518,36.631,36.631,0,0,1,.574-4.7.463.463,0,0,1,.518-.389.444.444,0,0,1,.3.555Z" transform="translate(1.31 11.904)" fill="#ff574b"/>
          <path id="Path_7983" data-name="Path 7983" d="M5.054,10.647a15.418,15.418,0,0,0-.962,2.11A21.471,21.471,0,0,0,3.259,14.9a.444.444,0,0,1-.555.333.481.481,0,0,1-.259-.611,22.581,22.581,0,0,1,.851-2.2,16.2,16.2,0,0,1,.981-2.166.463.463,0,0,1,.611-.241.481.481,0,0,1,.167.629Z" transform="translate(2.054 7.973)" fill="#ff574b"/>
          <path id="Path_7984" data-name="Path 7984" d="M8.24,6.765a19.287,19.287,0,0,0-1.5,1.851,19.121,19.121,0,0,0-1.37,1.851.463.463,0,0,1-.629.167.481.481,0,0,1,0-.666A17.4,17.4,0,0,1,6.074,7.913,20.194,20.194,0,0,1,7.592,6.062a.481.481,0,0,1,.666,0h0a.463.463,0,0,1-.019.7Z" transform="translate(3.921 4.526)" fill="#ff574b"/>
          <path id="Path_7985" data-name="Path 7985" d="M12.341,3.676a20.412,20.412,0,0,0-1.851,1.3A13.382,13.382,0,0,0,8.639,6.379a.458.458,0,1,1-.648-.648A13.993,13.993,0,0,1,9.842,4.287c.666-.444,1.277-.925,1.962-1.333a.5.5,0,0,1,.666.13A.463.463,0,0,1,12.341,3.676Z" transform="translate(6.687 1.932)" fill="#ff574b"/>
          <path id="Path_7986" data-name="Path 7986" d="M16.991,1.787A32.706,32.706,0,0,0,12.66,3.36a.481.481,0,0,1-.648-.2.463.463,0,0,1,.3-.592A31,31,0,0,1,16.75.954a.463.463,0,0,1,.592.259.5.5,0,0,1-.352.574Z" transform="translate(10.2 0.268)" fill="#ff574b"/>
        </g>
      </g>
    </g>
    <path id="Path_7999" data-name="Path 7999" d="M235.1,7.586H209.111a2.581,2.581,0,0,0-2.581,2.581v12.11a2.581,2.581,0,0,0,2.581,2.581h1.511v5.924l5.924-5.924H235.1a2.581,2.581,0,0,0,2.581-2.581V10.167A2.581,2.581,0,0,0,235.1,7.586Zm0,0" transform="translate(610.53 1118.852)" fill="#ff574b"/>
    <path id="Path_8001" data-name="Path 8001" d="M250.367,54.732c.941-.644,2.112-1.446,2.112-2.817a1.986,1.986,0,0,0-.761-1.6,2.7,2.7,0,0,0-1.665-.555,2.165,2.165,0,0,0-2.354,2c0,.574.241.853.738.853.56,0,.863-.311.863-.6a.77.77,0,0,1,1.538-.042c0,.616-.727,1.15-1.5,1.715-.868.637-1.766,1.3-1.766,2.159v1c0,.312.425.511.717.511h3.688c.266,0,.5-.34.5-.728s-.234-.707-.5-.707h-2.7v-.08c0-.364.5-.709,1.089-1.109Zm0,0" transform="translate(573.778 1081.09)" fill="#fafafa"/>
    <path id="Path_8002" data-name="Path 8002" d="M304.053,57.356c.564,0,.821-.264.821-.51V55.761h.432c.258,0,.511-.376.511-.759,0-.522-.265-.759-.511-.759h-.432v-.712c0-.23-.215-.5-.821-.5s-.821.269-.821.5v.712h-.856l1.824-3.659a.523.523,0,0,0,.053-.2.566.566,0,0,0-.305-.457,1.053,1.053,0,0,0-.516-.167.742.742,0,0,0-.685.422l-2.393,4.692a.672.672,0,0,0-.085.317.533.533,0,0,0,.552.573h2.411v1.085C303.232,57.092,303.489,57.356,304.053,57.356Zm0,0" transform="translate(526.593 1081.09)" fill="#fafafa"/>
    <path id="Path_8003" data-name="Path 8003" d="M364.084,45.962l-3.636,7.468a.476.476,0,0,0-.054.2.586.586,0,0,0,.594.562.529.529,0,0,0,.478-.266l3.646-7.469a.464.464,0,0,0,.043-.2.606.606,0,0,0-.625-.563A.47.47,0,0,0,364.084,45.962Zm0,0" transform="translate(472.756 1084.727)" fill="#fafafa"/>
    <path id="Path_8004" data-name="Path 8004" d="M415.291,52.384c.451,0,.832-.234.832-.511v-.681h1.828V51.9l-2.547,4.41a.544.544,0,0,0-.074.276c0,.49.547.831,1.039.831a.475.475,0,0,0,.467-.225l2.424-4.641a2.676,2.676,0,0,0,.333-.99V50.268c0-.223-.348-.51-.718-.51H415.2c-.362,0-.718.253-.718.51v1.606c0,.281.364.511.811.511Zm0,0" transform="translate(424.326 1081.09)" fill="#fafafa"/>
  </g>
</svg>
