<svg xmlns="http://www.w3.org/2000/svg" width="14.996" height="13.418" viewBox="0 0 14.996 13.418">
  <g id="frontal-taxi-cab" transform="translate(0 -11.942)">
    <path id="Path_7897" data-name="Path 7897" d="M14.356,16.657a.776.776,0,0,0-.206.029l-.728.2-.77-1.875a1.777,1.777,0,0,0-1.52-1.019h-.512V12.438a.5.5,0,0,0-.5-.5H4.872a.5.5,0,0,0-.5.5v1.555H3.854a1.777,1.777,0,0,0-1.52,1.019l-.769,1.873-.719-.2a.779.779,0,0,0-.206-.029A.636.636,0,0,0,0,17.33v.4a.827.827,0,0,0,.826.826H.879l-.11.268A6.2,6.2,0,0,0,.38,20.793v3.741a.827.827,0,0,0,.826.826H2.2a.827.827,0,0,0,.826-.826v-.919h8.936v.919a.827.827,0,0,0,.826.826h.993a.827.827,0,0,0,.826-.826V20.793a6.2,6.2,0,0,0-.389-1.971l-.11-.268h.064A.827.827,0,0,0,15,17.729v-.4A.635.635,0,0,0,14.356,16.657ZM9.488,12.6a.02.02,0,0,1,.02-.02H9.89a.02.02,0,0,1,.02.02v1.374a.019.019,0,0,1-.009.015H9.5a.019.019,0,0,1-.009-.015Zm-2.738-.02h.459a.032.032,0,0,1,.027.018l.544,1.369.5-.617a.029.029,0,0,0,0-.032L7.8,12.6c-.006-.009,0-.017.009-.017h.424a.04.04,0,0,1,.03.017l.247.4a.011.011,0,0,0,.021,0l.247-.4a.039.039,0,0,1,.03-.017h.424c.011,0,.015.007.009.017l-.479.721a.029.029,0,0,0,0,.032l.508.629a.011.011,0,0,1,0,.011h-.45a.037.037,0,0,1-.014-.012l-.279-.446a.011.011,0,0,0-.021,0l-.278.446a.037.037,0,0,1-.014.012H7.371a.027.027,0,0,1-.013-.014l-.094-.286a.029.029,0,0,0-.026-.019h-.52a.03.03,0,0,0-.026.019l-.1.287a.028.028,0,0,1-.013.014H6.17a.012.012,0,0,1,0-.014L6.723,12.6A.032.032,0,0,1,6.751,12.583ZM5.408,13.977V12.885a.02.02,0,0,0-.02-.02H4.929a.02.02,0,0,1-.02-.02V12.6a.02.02,0,0,1,.02-.02H6.311a.02.02,0,0,1,.02.02v.243a.02.02,0,0,1-.02.02H5.849a.02.02,0,0,0-.02.02v1.091a.019.019,0,0,1-.009.015h-.4A.019.019,0,0,1,5.408,13.977Zm-3.26,4.118,1.17-2.85a1.068,1.068,0,0,1,.912-.611h6.526a1.068,1.068,0,0,1,.912.611l1.17,2.85a.412.412,0,0,1-.41.611H2.558A.412.412,0,0,1,2.148,18.094Zm2.643,3.67a.331.331,0,0,1-.33.33H2.228a.331.331,0,0,1-.33-.33V20.7a.331.331,0,0,1,.33-.33H4.461a.331.331,0,0,1,.33.33v1.059Zm8.276,0a.331.331,0,0,1-.33.33H10.5a.331.331,0,0,1-.33-.33V20.7a.331.331,0,0,1,.33-.33h2.233a.331.331,0,0,1,.33.33Z"/>
    <path id="Path_7898" data-name="Path 7898" d="M103.283,28.123a.012.012,0,0,0,.012-.018l-.165-.38c0-.01-.012-.01-.016,0l-.174.38a.012.012,0,0,0,.012.018Z" transform="translate(-96.137 -14.733)"/>
  </g>
</svg>
