<svg xmlns="http://www.w3.org/2000/svg" width="9.971" height="9.962" viewBox="0 0 9.971 9.962">
  <g id="Group_4686" data-name="Group 4686" transform="translate(-791.608 -1195.477)">
    <path id="Path_7924" data-name="Path 7924" d="M3.424,11a2.234,2.234,0,0,1-.266-.227,2.532,2.532,0,0,1-.559-.8A2.322,2.322,0,0,1,2.391,9a2.359,2.359,0,0,1,.194-.977,2.5,2.5,0,0,1,.573-.811,2.672,2.672,0,0,1,3.69,0,2.485,2.485,0,0,1,.555.811,2.36,2.36,0,0,1,.207.986v.2c.126-.1.253-.188.374-.292A9.491,9.491,0,0,0,9.63,7.171a4.2,4.2,0,0,0-.3-.6,4.979,4.979,0,0,0-.78-.977,4.9,4.9,0,0,0-1.01-.755,5.184,5.184,0,0,0-3.875-.5,5.265,5.265,0,0,0-1.182.488,4.816,4.816,0,0,0-1.015.755A4.766,4.766,0,0,0,.176,7.712,4.569,4.569,0,0,0,0,8.95,2.229,2.229,0,0,0,.573,10.2,3.277,3.277,0,0,0,3.424,11Z" transform="translate(791.608 1191.306)" fill="#110f3c"/>
    <path id="Path_7925" data-name="Path 7925" d="M14.181,12.19a8.431,8.431,0,0,1-2.342,3.842,8.818,8.818,0,0,1-3.489,2.15,4.6,4.6,0,0,0,1.182.153,4.8,4.8,0,0,0,1.282-.153,4.95,4.95,0,0,0,1.156-.488,5.29,5.29,0,0,0,.977-.759,4.981,4.981,0,0,0,.754-.981,4.833,4.833,0,0,0,.484-1.156,4.615,4.615,0,0,0,.174-1.278,4.676,4.676,0,0,0-.174-1.308Z" transform="translate(787.219 1187.103)" fill="#110f3c"/>
    <path id="Path_7926" data-name="Path 7926" d="M8.844,14.611c-.136.109-.267.209-.4.31a10,10,0,0,1-1.77,1.064,5.587,5.587,0,0,1-4.36.467,4.719,4.719,0,0,0,.426.471l.222.188c1.689.375,4.075-.488,6.054-2.333a9.31,9.31,0,0,0,1.961-2.617A9.25,9.25,0,0,1,8.844,14.611Z" transform="translate(790.306 1187.12)" fill="#110f3c"/>
  </g>
</svg>
