<svg xmlns="http://www.w3.org/2000/svg" width="17.818" height="14" viewBox="0 0 17.818 14">
  <g id="Group_10143" data-name="Group 10143" transform="translate(-5.942 -7.524)">
    <g id="envelope" transform="translate(5.942 5.615)">
      <g id="Group_10142" data-name="Group 10142">
        <path id="Path_10083" data-name="Path 10083" d="M1.71,6.225q.338.239,2.038,1.417T6.354,9.456q.1.07.422.3t.537.378q.214.144.517.323a3,3,0,0,0,.572.268,1.575,1.575,0,0,0,.5.089h.02a1.577,1.577,0,0,0,.5-.089,3,3,0,0,0,.572-.268q.3-.179.517-.323t.537-.378q.323-.234.423-.3l4.653-3.232A4.724,4.724,0,0,0,17.331,5a2.626,2.626,0,0,0,.487-1.5,1.6,1.6,0,0,0-1.591-1.591H1.591a1.42,1.42,0,0,0-1.178.517A2.007,2.007,0,0,0,0,3.719,2.323,2.323,0,0,0,.547,5.076,4.935,4.935,0,0,0,1.71,6.225Z" fill="#aaa"/>
        <path id="Path_10084" data-name="Path 10084" d="M16.824,7.288q-3.261,2.207-4.952,3.43-.567.417-.92.651a5.676,5.676,0,0,1-.94.477,2.861,2.861,0,0,1-1.094.244H8.9a2.862,2.862,0,0,1-1.094-.244,5.679,5.679,0,0,1-.94-.477q-.353-.234-.92-.651Q4.6,9.735,1,7.288a5.267,5.267,0,0,1-1-.865v7.895a1.532,1.532,0,0,0,.467,1.124,1.532,1.532,0,0,0,1.124.467H16.227a1.6,1.6,0,0,0,1.591-1.591V6.423A5.483,5.483,0,0,1,16.824,7.288Z" fill="#aaa"/>
      </g>
    </g>
  </g>
</svg>
