<svg id="Group_4815" data-name="Group 4815" xmlns="http://www.w3.org/2000/svg" width="17" height="17" viewBox="0 0 17 17">
  <path id="Path_8234" data-name="Path 8234" d="M125.6,140.453l5.353-5.353,1.726,1.726-5.35,5.353Z" transform="translate(-120.988 -130.14)" fill="#021c70"/>
  <path id="Path_8235" data-name="Path 8235" d="M101.9,301.609l1.909-.529-1.381-1.381Z" transform="translate(-98.159 -288.696)" fill="#021c70"/>
  <path id="Path_8236" data-name="Path 8236" d="M287.285,103.392a.92.92,0,0,0-1.3,0l-.389.389,1.726,1.726.389-.389a.92.92,0,0,0,0-1.3Z" transform="translate(-275.114 -99.339)" fill="#021c70"/>
  <g id="Group_4814" data-name="Group 4814" transform="translate(0 0)">
    <path id="Path_8237" data-name="Path 8237" d="M8.5,17A8.5,8.5,0,0,1,2.489,2.489,8.5,8.5,0,0,1,14.511,14.511,8.449,8.449,0,0,1,8.5,17ZM8.5.7a7.8,7.8,0,1,0,7.8,7.8A7.81,7.81,0,0,0,8.5.7Z" transform="translate(0 0)" fill="#021c70"/>
  </g>
</svg>
