<svg xmlns="http://www.w3.org/2000/svg" width="36.274" height="36.3" viewBox="0 0 36.274 36.3">
  <g id="Group_4785" data-name="Group 4785" transform="translate(0)">
    <path id="Path_8192" data-name="Path 8192" d="M214.674,30.082a6.181,6.181,0,0,1-6.192,6.192h-23.89a6.2,6.2,0,0,1-6.192-6.192V6.192A6.181,6.181,0,0,1,184.592,0h23.89a6.181,6.181,0,0,1,6.192,6.192Z" transform="translate(-178.4)" fill="#395398"/>
    <path id="Path_8193" data-name="Path 8193" d="M243.511,52.16V38.209h4.677l.691-5.421h-5.368V29.333c0-1.568.425-2.631,2.684-2.631h2.87v-4.89c-.5-.053-2.206-.213-4.2-.213-4.146,0-6.989,2.525-6.989,7.175v4.013H233.2v5.421h4.677V52.134h5.634Z" transform="translate(-218.637 -15.86)" fill="#fff"/>
  </g>
</svg>
