<svg xmlns="http://www.w3.org/2000/svg" width="17.13" height="22.648" viewBox="0 0 17.13 22.648">
  <g id="Group_4827" data-name="Group 4827" transform="translate(0.065)">
    <g id="Group_4822" data-name="Group 4822" transform="translate(-0.065 3.981)">
      <g id="Group_4821" data-name="Group 4821" transform="translate(0)">
        <path id="Path_8238" data-name="Path 8238" d="M16.964,93.477a.886.886,0,0,0-.783-.469H13.668a2.52,2.52,0,0,0-4.963,0H6.157a1.946,1.946,0,1,0-3.264,0H.823a.891.891,0,0,0-.783.469.878.878,0,0,0,.049.911l5.936,8.829v5.007a.438.438,0,0,0,.442.442.485.485,0,0,0,.177-.035l4.07-1.774a.447.447,0,0,0,.265-.407v-3.238l5.936-8.829A.89.89,0,0,0,16.964,93.477Zm-5.777-1.663a1.639,1.639,0,0,1,1.575,1.194H9.612A1.635,1.635,0,0,1,11.187,91.814Zm-6.657-.929a1.062,1.062,0,1,1-1.062,1.062A1.065,1.065,0,0,1,4.529,90.885Zm5.64,11.948a.442.442,0,0,0-.075.248v3.083l-3.185,1.389v-4.03h1.6a.442.442,0,1,0,0-.885H6.7l-4.45-6.622h8.935a.442.442,0,1,0,0-.885H1.654L.823,93.893H16.181Z" transform="translate(0.065 -90)" fill="#fff"/>
      </g>
    </g>
    <g id="Group_4824" data-name="Group 4824" transform="translate(8.064)">
      <g id="Group_4823" data-name="Group 4823">
        <path id="Path_8239" data-name="Path 8239" d="M185.646,0a1.946,1.946,0,1,0,1.946,1.946A1.946,1.946,0,0,0,185.646,0Zm0,3.008a1.062,1.062,0,1,1,1.062-1.062A1.065,1.065,0,0,1,185.646,3.008Z" transform="translate(-183.7)" fill="#fff"/>
      </g>
    </g>
    <g id="Group_4826" data-name="Group 4826" transform="translate(5.591 0.566)">
      <g id="Group_4825" data-name="Group 4825">
        <path id="Path_8240" data-name="Path 8240" d="M128.242,12.8a.444.444,0,0,0-.442.442v1.814a.442.442,0,0,0,.885,0V13.242A.441.441,0,0,0,128.242,12.8Z" transform="translate(-127.8 -12.8)" fill="#fff"/>
      </g>
    </g>
  </g>
</svg>
