<svg xmlns="http://www.w3.org/2000/svg" width="30.097" height="19.129" viewBox="0 0 30.097 19.129">
  <g id="Group_10012" data-name="Group 10012" transform="translate(9560.132 9468.759)">
    <path id="Path_8410" data-name="Path 8410" d="M343.777,376.863V379.6h2.738v2.738h-2.738v2.738h-2.738v-2.738H338.3V379.6h2.738v-2.738Zm0,0" transform="translate(-9876.55 -9840.202)" fill="#dd4b39"/>
    <path id="Path_8411" data-name="Path 8411" d="M236.234,367.282a9.78,9.78,0,0,1,.152-13.689,9.384,9.384,0,0,1,10.191-1.978l1.369.761,1.521,1.064-2.434,2.434-.912-.609a5.808,5.808,0,0,0-7.149.913,6.385,6.385,0,0,0,0,8.822,5.881,5.881,0,0,0,8.518,0,4.852,4.852,0,0,0,1.369-2.433v-.3h-5.475v-3.042h8.669l.153.76v2.129a8.49,8.49,0,0,1-2.282,5.324,10.079,10.079,0,0,1-13.689-.152Zm0,0" transform="translate(-9793.646 -9819.67)" fill="#dd4b39"/>
  </g>
</svg>
