<svg xmlns="http://www.w3.org/2000/svg" width="30.162" height="28.806" viewBox="0 0 30.162 28.806">
  <g id="Group_4789" data-name="Group 4789" transform="translate(0 0)">
    <g id="Group_4786" data-name="Group 4786">
      <path id="Path_8195" data-name="Path 8195" d="M32.361,42.906H20.8a9.311,9.311,0,0,1-9.3-9.3V23.4a9.311,9.311,0,0,1,9.3-9.3h11.56a9.311,9.311,0,0,1,9.3,9.3V33.579A9.317,9.317,0,0,1,32.361,42.906ZM20.8,16.173A7.236,7.236,0,0,0,13.573,23.4V33.579A7.236,7.236,0,0,0,20.8,40.807h11.56a7.236,7.236,0,0,0,7.228-7.228V23.4a7.236,7.236,0,0,0-7.228-7.228H20.8Z" transform="translate(-11.5 -14.1)" fill="#fff"/>
    </g>
    <g id="Group_4787" data-name="Group 4787" transform="translate(6.803 6.112)">
      <path id="Path_8196" data-name="Path 8196" d="M45.391,53.682a8.291,8.291,0,1,1,8.291-8.291A8.3,8.3,0,0,1,45.391,53.682Zm0-14.509a6.218,6.218,0,1,0,6.218,6.218A6.226,6.226,0,0,0,45.391,39.173Z" transform="translate(-37.1 -37.1)" fill="#fff"/>
    </g>
    <g id="Group_4788" data-name="Group 4788" transform="translate(21.498 4.65)">
      <path id="Path_8197" data-name="Path 8197" d="M95.855,33.327A1.727,1.727,0,1,1,94.127,31.6,1.724,1.724,0,0,1,95.855,33.327Z" transform="translate(-92.4 -31.6)" fill="#fff"/>
    </g>
  </g>
</svg>
