<svg xmlns="http://www.w3.org/2000/svg" width="141.992" height="38.521" viewBox="0 0 141.992 38.521">
  <g id="Asset_1" data-name="Asset 1" transform="translate(0 0)">
    <g id="Layer_1" data-name="Layer 1" transform="translate(0)">
      <path id="Path_2085" data-name="Path 2085" d="M10.442,25.714A6.878,6.878,0,0,1,9.63,25a7.993,7.993,0,0,1-1.706-2.518A7.539,7.539,0,0,1,7.292,19.4a7.663,7.663,0,0,1,.592-3.082A7.9,7.9,0,0,1,9.63,13.759a8.117,8.117,0,0,1,2.5-1.706,7.924,7.924,0,0,1,6.2,0,8.117,8.117,0,0,1,2.545,1.706,7.856,7.856,0,0,1,1.692,2.559,7.663,7.663,0,0,1,.633,3.109v.633c.385-.3.77-.592,1.142-.922a29.552,29.552,0,0,0,5.022-5.5,13.442,13.442,0,0,0-.922-1.9,15.629,15.629,0,0,0-2.38-3.082,15.01,15.01,0,0,0-3.082-2.38A15.372,15.372,0,0,0,11.171,4.707a15.766,15.766,0,0,0-3.6,1.541,14.734,14.734,0,0,0-3.1,2.38A15.133,15.133,0,0,0,.537,15.341,14.872,14.872,0,0,0,0,19.248,7.14,7.14,0,0,0,1.747,23.2C3.687,25.371,6.879,26.141,10.442,25.714Z" transform="translate(0 1.567)" fill="#fff"/>
      <path id="Path_2086" data-name="Path 2086" d="M26.744,12.19a26.594,26.594,0,0,1-7.388,12.121A27.818,27.818,0,0,1,8.35,31.093a14.5,14.5,0,0,0,3.728.482,15.133,15.133,0,0,0,4.045-.482,15.615,15.615,0,0,0,3.646-1.541,16.688,16.688,0,0,0,3.082-2.394,15.711,15.711,0,0,0,2.38-3.1,15.244,15.244,0,0,0,1.527-3.646,14.556,14.556,0,0,0,.55-4.031,14.748,14.748,0,0,0-.55-4.127Z" transform="translate(3.138 4.581)" fill="#fff"/>
      <path id="Path_2087" data-name="Path 2087" d="M21.31,12c.151.358.261.729.385,1.087h0l.165.454c.179-.482.316-.867.454-1.293.426-1.376.908-2.669,1.183-3.921A23.581,23.581,0,0,1,21.31,12Z" transform="translate(8.008 3.13)" fill="#fff"/>
      <path id="Path_2088" data-name="Path 2088" d="M22.162,19.892c-.413.344-.812.66-1.224.977a30.184,30.184,0,0,1-5.379,3.357C10.606,26.633,5.708,27.211,2.31,25.7A14.707,14.707,0,0,0,3.6,27.183l.674.592c5.132,1.183,12.382-1.541,18.394-7.36a29.3,29.3,0,0,0,5.957-8.255A28.891,28.891,0,0,1,22.162,19.892Z" transform="translate(0.868 4.569)" fill="#fff"/>
      <path id="Path_2089" data-name="Path 2089" d="M21.646,11.82l-.206.454.22-.4Z" transform="translate(8.056 4.442)" fill="#fff"/>
      <path id="Path_2090" data-name="Path 2090" d="M23.525,8.461,19.26,7.993,32.261,0Z" transform="translate(7.237)" fill="#fff"/>
      <path id="Path_2091" data-name="Path 2091" d="M22.36,8.461l.619,3.439,1.114-2.518L31.1,0Z" transform="translate(8.402)" fill="#fef0f1"/>
      <path id="Path_2092" data-name="Path 2092" d="M22.81,9.338l2.339-1.6L23.924,6.82Z" transform="translate(8.571 2.563)" fill="#fbd0d2"/>
      <path id="Path_2093" data-name="Path 2093" d="M23.62,9.383l3.508,3.549L30.623,0Z" transform="translate(8.876)" fill="#fff"/>
      <path id="Path_2094" data-name="Path 2094" d="M39.159,29.673a7.223,7.223,0,0,1-2.82-.564,7.333,7.333,0,0,1-2.3-1.568,7.567,7.567,0,0,1-1.568-2.3,7.168,7.168,0,0,1-.564-2.82V17.607H29.9V13.48h2.009V7h4.127v6.48h6.274v4.127H36.022v4.815a3.041,3.041,0,0,0,.248,1.224,3.467,3.467,0,0,0,.66.991,3.673,3.673,0,0,0,1,.674,3.1,3.1,0,0,0,1.224.248H42.3v4.127Z" transform="translate(11.235 2.63)" fill="#fff"/>
      <path id="Path_2095" data-name="Path 2095" d="M44.727,27.91H40.6V11.69h1l1.376,1.926a7.14,7.14,0,0,1,2.27-1.376,7.47,7.47,0,0,1,2.628-.482h3.66v4.127H47.85a3.1,3.1,0,0,0-1.224.248,2.752,2.752,0,0,0-.991.66,3.151,3.151,0,0,0-.674,1,3.288,3.288,0,0,0-.234,1.224Z" transform="translate(15.256 4.393)" fill="#fff"/>
      <path id="Path_2096" data-name="Path 2096" d="M54.987,9.242a2.752,2.752,0,0,1-.22,1.073,2.642,2.642,0,0,1-.605.88,2.834,2.834,0,0,1-.88.592,2.889,2.889,0,0,1-1.087.22,2.756,2.756,0,0,1-1.073-5.3,2.545,2.545,0,0,1,1.073-.22,2.641,2.641,0,0,1,1.087.22,2.834,2.834,0,0,1,.88.592,2.641,2.641,0,0,1,.605.88A2.752,2.752,0,0,1,54.987,9.242Zm-.715,20.637H50.144V13.644h4.127Z" transform="translate(18.576 2.439)" fill="#fff"/>
      <path id="Path_2097" data-name="Path 2097" d="M59.4,34.287H55.27V11.848h1L57.925,13.8a11.28,11.28,0,0,1,1.224-.991A8.791,8.791,0,0,1,60.525,12a7.223,7.223,0,0,1,1.5-.537,5.943,5.943,0,0,1,1.555-.193,8.378,8.378,0,0,1,3.219.605,8.159,8.159,0,0,1,2.6,1.775A8.255,8.255,0,0,1,71.174,16.4a9.19,9.19,0,0,1,.647,3.494,9.63,9.63,0,0,1-.647,3.6A8.255,8.255,0,0,1,69.4,26.252a7.622,7.622,0,0,1-2.641,1.692,8.64,8.64,0,0,1-3.219.592,5.5,5.5,0,0,1-1.073-.11,7.428,7.428,0,0,1-1.073-.33,9.631,9.631,0,0,1-1.018-.468c-.344-.165-.674-.344-.977-.523Zm8.255-14.432a4.9,4.9,0,0,0-.33-1.844,4.21,4.21,0,0,0-.881-1.376,4.127,4.127,0,0,0-1.376-.867,4.237,4.237,0,0,0-1.61-.3,4.127,4.127,0,0,0-1.6.3,3.852,3.852,0,0,0-2.187,2.256,4.9,4.9,0,0,0-.33,1.844,4.719,4.719,0,0,0,.33,1.8,4.059,4.059,0,0,0,3.783,2.614,4.017,4.017,0,0,0,1.61-.33,3.935,3.935,0,0,0,1.376-.894,4.127,4.127,0,0,0,.881-1.376,4.719,4.719,0,0,0,.358-1.871Z" transform="translate(20.769 4.235)" fill="#fff"/>
      <path id="Path_2098" data-name="Path 2098" d="M84.874,19.825a8.874,8.874,0,0,1-.647,3.384,8.571,8.571,0,0,1-1.775,2.752,8.131,8.131,0,0,1-2.628,1.8,8.183,8.183,0,0,1-9.08-1.8,8.131,8.131,0,0,1-1.775-2.752,8.626,8.626,0,0,1-.66-3.384,8.722,8.722,0,0,1,.66-3.412,8.048,8.048,0,0,1,1.775-2.752A8.255,8.255,0,0,1,73.387,11.9a7.924,7.924,0,0,1,3.219-.66,8.406,8.406,0,0,1,3.233.619,7.952,7.952,0,0,1,2.614,1.8,8.571,8.571,0,0,1,1.775,2.752,9.328,9.328,0,0,1,.647,3.412Zm-4.127,0a4.719,4.719,0,0,0-.33-1.8,4.361,4.361,0,0,0-.88-1.376,3.742,3.742,0,0,0-1.376-.894,4.183,4.183,0,0,0-3.192,0,3.522,3.522,0,0,0-1.293.894,4.361,4.361,0,0,0-.88,1.376,5.008,5.008,0,0,0-.316,1.8,4.815,4.815,0,0,0,.316,1.747,4.512,4.512,0,0,0,.88,1.376,4,4,0,0,0,1.293.936,3.962,3.962,0,0,0,1.6.344,4.052,4.052,0,0,0,3.8-2.6,4.719,4.719,0,0,0,.358-1.8Z" transform="translate(25.669 4.224)" fill="#fff"/>
      <path id="Path_2099" data-name="Path 2099" d="M90.373,29.673a7.154,7.154,0,0,1-5.132-2.132,7.291,7.291,0,0,1-1.527-2.3,6.879,6.879,0,0,1-.564-2.82V17.607H81.1V13.48h2.022V7H87.25v6.48h6.26v4.127H87.236v4.815a3.288,3.288,0,0,0,.234,1.224,3.247,3.247,0,0,0,.674.991,3.481,3.481,0,0,0,1,.674,3,3,0,0,0,1.224.248H93.5v4.127Z" transform="translate(30.475 2.63)" fill="#fff"/>
      <path id="Path_2100" data-name="Path 2100" d="M107.731,28.072h-1l-1.6-2.229a12.383,12.383,0,0,1-1.252.991,9.4,9.4,0,0,1-1.376.812,9.63,9.63,0,0,1-1.486.537,6.59,6.59,0,0,1-1.555.193,8.915,8.915,0,0,1-3.219-.578,7.567,7.567,0,0,1-2.628-1.665,8.035,8.035,0,0,1-1.789-2.752,9.63,9.63,0,0,1-.647-3.618,9.149,9.149,0,0,1,.633-3.357A8.255,8.255,0,0,1,93.6,13.654a7.815,7.815,0,0,1,2.628-1.761,8.392,8.392,0,0,1,3.219-.633,5.957,5.957,0,0,1,1.555.206,7.223,7.223,0,0,1,1.5.536,8.8,8.8,0,0,1,1.376.825,11.005,11.005,0,0,1,1.238,1l1.6-1.912h1ZM103.6,19.817a4.444,4.444,0,0,0-.316-1.637,4.623,4.623,0,0,0-.894-1.376,4.389,4.389,0,0,0-1.376-.991,3.536,3.536,0,0,0-1.6-.371,4.389,4.389,0,0,0-1.6.289,3.591,3.591,0,0,0-1.376.853,3.8,3.8,0,0,0-.867,1.376,5.365,5.365,0,0,0-.316,1.885,5.31,5.31,0,0,0,.316,1.885,3.853,3.853,0,0,0,.867,1.376,3.769,3.769,0,0,0,1.376.853,4.389,4.389,0,0,0,1.6.289,3.536,3.536,0,0,0,1.6-.371,4.389,4.389,0,0,0,1.376-.991,4.981,4.981,0,0,0,.894-1.376,4.568,4.568,0,0,0,.275-1.692Z" transform="translate(34.262 4.231)" fill="#fff"/>
    </g>
  </g>
</svg>
