<svg xmlns="http://www.w3.org/2000/svg" width="55.562" height="13.312" viewBox="0 0 55.562 13.312">
  <g id="Group_4844" data-name="Group 4844" transform="translate(-0.1 0)">
    <g id="Group_4842" data-name="Group 4842" transform="translate(14.073 2.715)">
      <path id="Path_8243" data-name="Path 8243" d="M26.167,7.941H24.71v3.113c0,.6.331.662.861.662h.6v1.722c-.4,0-.861.066-1.258.066-1.987,0-2.517-.6-2.517-2.517V7.941H21.2V6.352h1.192V4.1H24.71V6.352h1.457Z" transform="translate(-21.2 -4.1)"/>
    </g>
    <g id="Group_4843" data-name="Group 4843" transform="translate(25.861 2.715)">
      <path id="Path_8244" data-name="Path 8244" d="M43.967,7.941H42.51v3.113c0,.6.331.662.861.662h.6v1.722c-.4,0-.861.066-1.258.066-1.987,0-2.517-.6-2.517-2.517V7.941H39V6.352h1.192V4.1H42.51V6.352h1.457Z" transform="translate(-39 -4.1)"/>
    </g>
    <path id="Path_8245" data-name="Path 8245" d="M6.59,10.458c0,2.119-1.06,3.113-3.245,3.113C.895,13.57.1,12.179.1,10.06v-.4H2.352v.861a.838.838,0,0,0,.927.927c.53,0,.861-.331.861-1.192V4.1H6.59Z" transform="translate(0 -1.385)"/>
    <path id="Path_8246" data-name="Path 8246" d="M12.518,11.371a1.5,1.5,0,0,0,1.589,1.589,1.39,1.39,0,0,0,1.324-.795h2.185c-.4,1.656-1.921,2.318-3.51,2.318A3.582,3.582,0,0,1,10.2,10.709,3.692,3.692,0,0,1,14.041,7c2.517,0,3.775,1.921,3.709,4.3H12.518Zm2.914-1.258a1.458,1.458,0,0,0-1.391-1.457,1.572,1.572,0,0,0-1.523,1.457Z" transform="translate(-3.411 -2.364)"/>
    <path id="Path_8247" data-name="Path 8247" d="M30.952,12.1a.944.944,0,0,0,.4.795,1.656,1.656,0,0,0,.861.265c.464,0,1.06-.2,1.06-.728s-.728-.662-1.126-.728c-1.457-.4-3.311-.4-3.311-2.318,0-1.722,1.854-2.185,3.245-2.185,1.523,0,3.179.464,3.245,2.318H33.2a.621.621,0,0,0-.331-.6,1.335,1.335,0,0,0-.728-.2c-.4,0-.993.066-.993.53,0,.662,1.523.795,2.583.993a1.957,1.957,0,0,1,1.788,1.921c0,1.921-1.788,2.517-3.377,2.517-1.656,0-3.377-.53-3.444-2.517h2.252Z" transform="translate(-9.66 -2.432)"/>
    <path id="Path_8248" data-name="Path 8248" d="M46.965,9.618a2.061,2.061,0,0,1,1.126-1.854A4.895,4.895,0,0,1,50.342,7.3c1.656,0,3.311.4,3.311,2.384V12.8a4.058,4.058,0,0,0,.265,1.788H51.534a2.353,2.353,0,0,1-.132-.662,3.252,3.252,0,0,1-2.318.861c-1.324,0-2.384-.662-2.384-2.119,0-2.318,2.517-2.119,4.106-2.45.4-.066.6-.2.6-.662,0-.53-.662-.728-1.126-.728-.662,0-1.06.265-1.126.861H46.965Zm2.98,3.642c1.126,0,1.457-.6,1.391-2.053a6.517,6.517,0,0,1-1.457.4c-.53.132-.927.331-.927.927A.9.9,0,0,0,49.945,13.26Z" transform="translate(-15.74 -2.466)"/>
    <path id="Path_8249" data-name="Path 8249" d="M60.946,7.7a2.409,2.409,0,0,0-.795.993h0V7.5H57.9v7.086h2.318v-3.51A1.616,1.616,0,0,1,61.94,9.421a2.381,2.381,0,0,1,.728.132Z" transform="translate(-19.522 -2.533)"/>
    <path id="Path_8250" data-name="Path 8250" d="M70.74,0l.2,4.04H76.5L71.2,7.55,72.4,13.311,67.826,9.4,61.8,12.516l3.576-4.9L62,4.04h5.563Z" transform="translate(-20.84)" fill="#f47735" fill-rule="evenodd"/>
  </g>
</svg>
