<svg xmlns="http://www.w3.org/2000/svg" width="20.764" height="10.184" viewBox="0 0 20.764 10.184">
  <g id="witness" transform="translate(-0.001 -130.441)">
    <path id="Path_8385" data-name="Path 8385" d="M20.617,135.136a13.5,13.5,0,0,0-20.469,0,.608.608,0,0,0,0,.794,13.5,13.5,0,0,0,20.469,0A.608.608,0,0,0,20.617,135.136Zm-13.689.4a3.455,3.455,0,1,1,3.455,3.455A3.459,3.459,0,0,1,6.928,135.533Zm8.126,0a4.661,4.661,0,0,0-1.55-3.473,12.285,12.285,0,0,1,5.834,3.473,12.285,12.285,0,0,1-5.834,3.473A4.661,4.661,0,0,0,15.054,135.533ZM7.261,132.06a4.664,4.664,0,0,0,0,6.945,12.285,12.285,0,0,1-5.834-3.473A12.285,12.285,0,0,1,7.261,132.06Z" fill="#aaa"/>
    <path id="Path_8386" data-name="Path 8386" d="M207.8,205.767a2.037,2.037,0,1,0,2.037,2.037A2.039,2.039,0,0,0,207.8,205.767Zm0,2.858a.821.821,0,1,1,.821-.821A.822.822,0,0,1,207.8,208.625Z" transform="translate(-197.422 -72.271)" fill="#aaa"/>
  </g>
</svg>
