<svg xmlns="http://www.w3.org/2000/svg" width="14.095" height="20.461" viewBox="0 0 14.095 20.461">
  <path id="Facebook_Places" d="M80.667,5.093a6.374,6.374,0,0,0-.33-.818A7.01,7.01,0,0,0,66.9,6.347V7.22c0,.036.013.364.03.528.255,2.037,1.862,4.2,3.062,6.238,1.291,2.182,2.631,4.329,3.959,6.475.819-1.4,1.634-2.819,2.434-4.183.218-.4.471-.8.689-1.182.145-.254.423-.509.55-.746C78.922,11.986,81,9.6,81,7.257V6.293A7.261,7.261,0,0,0,80.667,5.093ZM73.914,9.476a2.5,2.5,0,0,1-2.395-1.71,2.372,2.372,0,0,1-.067-.637V6.565a2.369,2.369,0,0,1,2.541-2.328,2.576,2.576,0,0,1,2.581,2.619A2.642,2.642,0,0,1,73.914,9.476Z" transform="translate(-66.905 0)" fill="#aaa"/>
</svg>
