<svg xmlns="http://www.w3.org/2000/svg" width="12.229" height="8.547" viewBox="0 0 12.229 8.547">
  <g id="Group_4901" data-name="Group 4901" transform="translate(0 0)">
    <g id="Group_4900" data-name="Group 4900" transform="translate(0 0)">
      <path id="Path_8256" data-name="Path 8256" d="M1.245,61.094h0a.287.287,0,0,0,.223.527l4.009-1.334-.75,1.224a.232.232,0,0,0,.305.327l.786-.409a.231.231,0,0,0,.061-.046l2.329-2.433,2.874-1.5c1.089-.587.962-1.038.9-1.162A.614.614,0,0,0,11.569,56a2.442,2.442,0,0,0-1.041.017,1.349,1.349,0,0,1-.32.022c-.308-.008-.516.012-1.553.551L2.987,59.531l-2.2-1.141a.287.287,0,0,0-.264,0l-.37.192a.287.287,0,0,0-.091.434l1.526,1.9Z" transform="translate(0 -55.948)" fill="#021c70"/>
      <path id="Path_8257" data-name="Path 8257" d="M23.62,282.5H12.89a.546.546,0,0,0,0,1.093H23.62a.546.546,0,0,0,0-1.093Z" transform="translate(-11.938 -275.047)" fill="#021c70"/>
    </g>
  </g>
</svg>
