<svg xmlns="http://www.w3.org/2000/svg" width="18.191" height="16.328" viewBox="0 0 18.191 16.328">
  <g id="Group_4865" data-name="Group 4865" transform="translate(-212.874 -739.737)">
    <g id="clock" transform="translate(220.935 745.935)">
      <path id="Path_8251" data-name="Path 8251" d="M5.065,0a5.065,5.065,0,1,0,5.065,5.065A5.071,5.071,0,0,0,5.065,0Zm0,9.064a4,4,0,1,1,4-4A4,4,0,0,1,5.065,9.064Z" fill="#ff574b"/>
      <path id="Path_8252" data-name="Path 8252" d="M161,70.258h-1.978a.875.875,0,0,0-.288-.288V67.592a.453.453,0,1,0-.906,0V69.97a.869.869,0,1,0,1.194,1.194H161a.453.453,0,0,0,0-.906Z" transform="translate(-153.211 -65.349)" fill="#ff574b"/>
    </g>
    <g id="takeoff-the-plane" transform="translate(212.874 683.789)">
      <g id="Group_4864" data-name="Group 4864" transform="translate(0 55.948)">
        <g id="Group_4863" data-name="Group 4863">
          <path id="Path_8253" data-name="Path 8253" d="M1.528,62.264h0a.352.352,0,0,0,.273.646l4.921-1.637-.92,1.5a.285.285,0,0,0,.374.4l.965-.5a.284.284,0,0,0,.074-.056l2.859-2.986L13.6,57.794c1.336-.72,1.181-1.274,1.1-1.426a.753.753,0,0,0-.5-.361,3,3,0,0,0-1.278.021,1.656,1.656,0,0,1-.393.027c-.378-.01-.634.015-1.906.676L3.666,60.346l-2.7-1.4a.352.352,0,0,0-.324,0l-.455.236a.352.352,0,0,0-.112.533L1.95,62.048Z" transform="translate(0 -55.948)" fill="#ff574b"/>
        </g>
      </g>
    </g>
  </g>
</svg>
