<svg xmlns="http://www.w3.org/2000/svg" width="18.997" height="26.29" viewBox="0 0 18.997 26.29">
  <g id="Group_4808" data-name="Group 4808" transform="translate(-577.979 -216)">
    <g id="black-plane" transform="translate(577.979 216)">
      <g id="flights" transform="translate(0 0)">
        <path id="Path_2045" data-name="Path 2045" d="M16.961,20.807a1.3,1.3,0,0,0-1.272-1.272H11.025L6.785,12.75h-1.7l2.12,6.785H2.544l-1.272-1.7H0l.848,2.968L0,23.775H1.272l1.272-1.7H7.209l-2.12,6.785h1.7l4.24-6.785h4.664A1.3,1.3,0,0,0,16.961,20.807Z" transform="translate(0 -12.75)" fill="#fff"/>
      </g>
    </g>
    <g id="black-plane-2" data-name="black-plane" transform="translate(596.975 242.29) rotate(180)">
      <g id="flights-2" data-name="flights" transform="translate(0 0)">
        <path id="Path_2045-2" data-name="Path 2045" d="M16.961,8.057a1.3,1.3,0,0,0-1.272-1.272H11.025L6.785,0h-1.7l2.12,6.785H2.544l-1.272-1.7H0L.848,8.057,0,11.025H1.272l1.272-1.7H7.209l-2.12,6.785h1.7l4.24-6.785h4.664A1.3,1.3,0,0,0,16.961,8.057Z" fill="#fff"/>
      </g>
    </g>
  </g>
</svg>
