<svg xmlns="http://www.w3.org/2000/svg" width="30" height="30" viewBox="0 0 30 30">
  <g id="ic_people" transform="translate(0.149 0.477)">
    <rect id="Base" width="30" height="30" transform="translate(-0.149 -0.476)" fill="none"/>
    <path id="Icon" d="M1753.264,537.567c-1.469,0-4.413,1.053-4.413,2.521v1.261h8.825v-1.261C1757.677,538.619,1754.732,537.567,1753.264,537.567Zm0-1.261a1.891,1.891,0,1,0-1.891-1.891A1.889,1.889,0,0,0,1753.264,536.306Z" transform="translate(-1732.802 -528.105)" fill="#aaa"/>
    <g id="hotel_1_" data-name="hotel (1)" transform="translate(5.547 10.69)">
      <path id="Path_2058" data-name="Path 2058" d="M236.033,423.1a.08.08,0,0,0-.08-.08h-.94a.08.08,0,0,0-.08.08v2.282h1.1Z" transform="translate(-228.713 -411.795)" fill="#aaa"/>
      <path id="Path_2059" data-name="Path 2059" d="M.641,232.892V239.9a.4.4,0,0,0,.4.4H6.064v-2.282a.877.877,0,0,1,.876-.876h.94a.877.877,0,0,1,.876.876V240.3H13.8a.4.4,0,0,0,.4-.4v-7.011Zm3.532,1.085a.4.4,0,0,1,.8,0v.506a.4.4,0,0,1-.8,0Zm0,1.888a.4.4,0,0,1,.8,0v.506a.4.4,0,1,1-.8,0Zm0,1.889a.4.4,0,1,1,.8,0v.506a.4.4,0,0,1-.8,0ZM2.28,233.977a.4.4,0,0,1,.8,0v.506a.4.4,0,0,1-.8,0Zm0,1.888a.4.4,0,0,1,.8,0v.506a.4.4,0,1,1-.8,0Zm0,1.889a.4.4,0,1,1,.8,0v.506a.4.4,0,0,1-.8,0Zm4.582-1.383a.4.4,0,1,1-.8,0v-.506a.4.4,0,0,1,.8,0Zm0-1.888a.4.4,0,0,1-.8,0v-.506a.4.4,0,0,1,.8,0Zm1.893,1.888a.4.4,0,1,1-.8,0v-.506a.4.4,0,0,1,.8,0Zm0-1.888a.4.4,0,0,1-.8,0v-.506a.4.4,0,0,1,.8,0Zm2.989-.506a.4.4,0,0,1,.8,0v.506a.4.4,0,0,1-.8,0Zm0,1.888a.4.4,0,0,1,.8,0v.506a.4.4,0,1,1-.8,0Zm0,1.889a.4.4,0,1,1,.8,0v.506a.4.4,0,0,1-.8,0Zm-1.893-3.777a.4.4,0,0,1,.8,0v.506a.4.4,0,0,1-.8,0Zm0,1.888a.4.4,0,0,1,.8,0v.506a.4.4,0,1,1-.8,0Zm0,1.889a.4.4,0,1,1,.8,0v.506a.4.4,0,0,1-.8,0Z" transform="translate(-0.641 -226.71)" fill="#aaa"/>
      <path id="Path_2060" data-name="Path 2060" d="M7.906,114.934l.574-2.4h-.9a.4.4,0,0,0-.355.217l-1.113,2.181Z" transform="translate(-5.962 -109.549)" fill="#aaa"/>
      <path id="Path_2061" data-name="Path 2061" d="M104.709,5.386h1.362l.408-2.192v.062a1.219,1.219,0,0,0,.6,1.051l-.2,1.08h1.441V4.474h.8v.912h1.438l-.21-1.078a1.219,1.219,0,0,0,.606-1.052l.415,2.13h1.36l-.595-2.4h-1.181V1.219A1.22,1.22,0,0,0,109.734,0H107.7a1.22,1.22,0,0,0-1.219,1.219V2.987h-1.2Zm4.231-3.547V1.591a.4.4,0,0,1,.8,0V2.883a.4.4,0,0,1-.8,0V2.635h-.448v.248a.4.4,0,0,1-.8,0V1.591a.4.4,0,0,1,.8,0v.248Z" transform="translate(-101.946 0)" fill="#aaa"/>
      <path id="Path_2062" data-name="Path 2062" d="M415.9,114.934h1.791l-1.113-2.181a.4.4,0,0,0-.355-.217H415.3Z" transform="translate(-404.295 -109.549)" fill="#aaa"/>
    </g>
  </g>
</svg>
