<svg xmlns="http://www.w3.org/2000/svg" width="17.413" height="19.16" viewBox="0 0 17.413 19.16">
  <path id="Path_7899" data-name="Path 7899" d="M17,14.3a2.425,2.425,0,0,0-1.854.862l-7.458-1.29,5.349-2.921A2.433,2.433,0,1,0,13.76,6.6L10.472,3.4A2.45,2.45,0,1,0,8.8,4.794l3.343,3.251a2.4,2.4,0,0,0-.173.894c0,.041,0,.081.006.122L5.706,12.487a2.43,2.43,0,1,0,.8,3.374l8.127,1.406A2.431,2.431,0,1,0,17,14.3ZM15.536,8.94A1.133,1.133,0,1,1,14.4,7.807,1.134,1.134,0,0,1,15.536,8.94ZM7.109,2.431A1.133,1.133,0,1,1,8.242,3.564,1.134,1.134,0,0,1,7.109,2.431ZM4.45,15.7a1.133,1.133,0,1,1,1.133-1.133A1.134,1.134,0,0,1,4.45,15.7ZM17,17.862a1.133,1.133,0,1,1,1.132-1.133A1.134,1.134,0,0,1,17,17.862Z" transform="translate(-2.02 0)" fill="#aaa"/>
</svg>
