<svg xmlns="http://www.w3.org/2000/svg" width="36.273" height="36.273" viewBox="0 0 36.273 36.273">
  <g id="Group_4784" data-name="Group 4784" transform="translate(-0.001)">
    <g id="Group_4782" data-name="Group 4782">
      <path id="Path_8188" data-name="Path 8188" d="M391.373,30.082a6.181,6.181,0,0,1-6.192,6.192h-23.89a6.181,6.181,0,0,1-6.192-6.192V6.192A6.164,6.164,0,0,1,361.291,0h23.89a6.181,6.181,0,0,1,6.192,6.192Z" transform="translate(-355.099)" fill="#7bc5f8"/>
    </g>
    <g id="Group_4783" data-name="Group 4783" transform="translate(6.298 7.839)">
      <path id="Path_8189" data-name="Path 8189" d="M471.1,30.8Z" transform="translate(-446.572 -30.455)" fill="#fff"/>
      <path id="Path_8190" data-name="Path 8190" d="M402.318,32.423a3.22,3.22,0,0,1-.983.133l.027-.106a7.88,7.88,0,0,0,1.966-2.259c.08-.266-.027-.345-.027-.345l-1.648.691-1.382.611h0a5.5,5.5,0,0,0-4.013-1.648c-2.87,0-5.209,2.046-5.209,4.544a7.5,7.5,0,0,0,.213,1.727h0a15.82,15.82,0,0,1-6.325-1.887c-4.172-2.1-4.438-3.561-4.438-3.561-.664.691-.983,3-.319,4.81a6.014,6.014,0,0,0,1.887,2.179h0a4.927,4.927,0,0,1-1.329-.213,3,3,0,0,1-.93-.452c-.4.983.4,2.764,1.807,4.039a7.3,7.3,0,0,0,2.312,1.2l-2.339.053c-.133,2.285,4.783,3.641,4.783,3.641h0a7.953,7.953,0,0,1-4.89,1.78,8.989,8.989,0,0,1-2.684-.4,12.718,12.718,0,0,0,8.716,3.109c8.769-.452,13.712-8,13.951-15.413v.027a7.2,7.2,0,0,0,1.3-1.09,9.3,9.3,0,0,0,1.435-1.913A16.171,16.171,0,0,1,402.318,32.423Z" transform="translate(-378.8 -29.5)" fill="#fff"/>
      <path id="Path_8191" data-name="Path 8191" d="M471.1,30.8Z" transform="translate(-446.572 -30.455)" fill="#fff"/>
    </g>
  </g>
</svg>
