<svg xmlns="http://www.w3.org/2000/svg" width="18.505" height="20.824" viewBox="0 0 18.505 20.824">
  <g id="vietnam_1_" data-name="vietnam (1)" transform="translate(-28.508 0)">
    <path id="Path_7893" data-name="Path 7893" d="M55.2,23.747c.007-.025.014-.05.019-.075l.005-.024q.007-.033.012-.066l0-.029c0-.022.005-.044.007-.067s0-.018,0-.027c0-.031,0-.062,0-.094h0V21.706h0V20.644h0V19.437h0v-4.7A1.385,1.385,0,0,0,54.66,13.6c-.032-.022-.064-.043-.1-.063L53.635,13l-.868-.5-.7-.4L49.4,10.558l-1.042-.6-.781-.451-.484-.28a1.379,1.379,0,0,0-1.379,0L45.23,9.5l-.781.452-1.042.6h0L40.736,12.1l-1.17.676-.867.5-.457.264c-.033.019-.064.04-.1.061a1.384,1.384,0,0,0-.594,1.134v5.906h0v1.062h0v1.661h0c0,.031,0,.062,0,.093,0,.009,0,.018,0,.027s0,.044.007.066l0,.029q.005.033.012.066l.005.024c.006.025.012.05.019.074l0,.014a1.377,1.377,0,0,0,.16.348h0a1.383,1.383,0,0,0,.163.208l.006.006q.043.045.09.086l.015.013c.032.027.065.053.1.077s.064.043.1.063l.914.528.868.5.711.411,3.713,2.144.781.451.484.28a1.379,1.379,0,0,0,1.379,0l.481-.278.781-.452,1.042-.6,2.251-1.3.42-.243,1.068-.617.867-.5.56-.323c.033-.019.064-.04.1-.061s.067-.05.1-.076l.016-.013q.047-.041.091-.086l.006-.006a1.379,1.379,0,0,0,.325-.558Z" transform="translate(-8.642 -8.639)" fill="#ed1f34"/>
    <path id="Path_7894" data-name="Path 7894" d="M160.933,168.656l3.112-.161,1.115-2.91,1.115,2.91,3.112.161-2.423,1.959.809,3.01-2.612-1.7-2.612,1.7.809-3.01Z" transform="translate(-127.4 -159.193)" fill="#ffe000"/>
    <path id="Path_7895" data-name="Path 7895" d="M40.15,14.457a.367.367,0,0,1-.2-.059L37.76,12.973,35.571,14.4a.368.368,0,0,1-.556-.4l.678-2.522L33.663,9.83a.368.368,0,0,1,.212-.653l2.608-.135L37.417,6.6a.368.368,0,0,1,.687,0l.934,2.439,2.608.135a.368.368,0,0,1,.212.653l-2.031,1.642.678,2.522a.368.368,0,0,1-.355.463Zm-2.39-2.29a.368.368,0,0,1,.2.059l1.585,1.031-.491-1.826a.368.368,0,0,1,.124-.381l1.47-1.189-1.888-.1a.368.368,0,0,1-.324-.236L37.76,7.763l-.676,1.766a.368.368,0,0,1-.324.236l-1.888.1,1.47,1.189a.368.368,0,0,1,.124.381l-.491,1.826,1.585-1.031A.369.369,0,0,1,37.76,12.167Zm0,8.657h0a1.755,1.755,0,0,1-.876-.235l-7.5-4.329c-.04-.023-.079-.048-.125-.08s-.082-.06-.126-.1l-.02-.017c-.039-.034-.078-.07-.114-.108l-.009-.009a1.751,1.751,0,0,1-.2-.259l0,0a1.752,1.752,0,0,1-.2-.442l0-.016c-.009-.032-.017-.063-.025-.1l-.007-.03c-.006-.028-.011-.056-.015-.085s0-.025-.005-.035c0-.029-.007-.057-.009-.085v-.005c0-.01,0-.019,0-.029,0-.042,0-.081,0-.119V6.084a1.741,1.741,0,0,1,.132-.664,1.755,1.755,0,0,1,.623-.776c.044-.031.083-.055.121-.078l7.5-4.331a1.752,1.752,0,0,1,1.752,0l7.5,4.329c.04.023.079.048.125.08a1.756,1.756,0,0,1,.752,1.438V14.74c0,.037,0,.076,0,.119q0,.015,0,.029v.006c0,.028-.005.056-.009.084,0,.012,0,.022,0,.033-.005.033-.01.061-.016.089l-.007.031c-.007.032-.016.064-.025.1l-.006.02a1.755,1.755,0,0,1-.412.7l0,.005c-.038.04-.077.076-.117.111l-.016.014c-.048.04-.089.072-.129.1s-.083.056-.122.078l-7.5,4.331A1.754,1.754,0,0,1,37.762,20.824ZM29.4,15.288v0a1.024,1.024,0,0,0,.12.153l.007.008c.018.019.041.04.064.06l.011.009c.029.024.052.042.074.057s.051.034.072.046l7.5,4.329a1.017,1.017,0,0,0,1.017,0l7.5-4.331c.021-.012.043-.026.071-.045s.045-.033.073-.056l.012-.01c.023-.02.046-.041.066-.063l0,0a1.022,1.022,0,0,0,.24-.412l0-.009c.006-.019.01-.038.015-.056l0-.018c0-.016.006-.032.009-.048v-.005l0-.017c0-.015,0-.032.005-.048l0-.021c0-.022,0-.045,0-.068V6.081a1.012,1.012,0,0,0-.035-.261,1.02,1.02,0,0,0-.4-.573c-.028-.02-.051-.034-.072-.047L38.267.872a1.016,1.016,0,0,0-1.017,0L29.752,5.2c-.021.012-.043.026-.07.045a1.021,1.021,0,0,0-.438.836v8.659c0,.023,0,.046,0,.069l0,.019c0,.017,0,.034.005.05l0,.02c0,.017.006.033.009.049l0,.018c0,.019.009.037.014.055l0,.011A1.017,1.017,0,0,0,29.4,15.288Z" transform="translate(0)" fill="none"/>
  </g>
</svg>
